<svg width="680" height="420" xmlns="http://www.w3.org/2000/svg" xmlns:xlink="http://www.w3.org/1999/xlink" version="1.1" baseProfile="full" viewBox="0 0 680 420">
<rect width="680" height="420" x="0" y="0" fill="#ffffff"></rect>
<text dominant-baseline="central" text-anchor="middle" style="font-size:13px;font-family:Arial;" xml:space="preserve" y="-6.5" transform="matrix(0,-1,1,0,25,219)" fill="#383842">准确率 (%)</text>
<path d="M78.5 346L78.5 92" fill="none" pointer-events="visible" stroke="#42424b" stroke-width="1.2" stroke-linecap="round" class="zr10-cls-58"></path>
<text dominant-baseline="central" text-anchor="middle" style="font-size:13px;font-family:Arial;" xml:space="preserve" y="6.5" transform="matrix(0,-1,1,0,647,219)" fill="#383842">耗时 (s)</text>
<path d="M594.5 346L594.5 92" fill="none" pointer-events="visible" stroke="#42424b" stroke-width="1.2" stroke-linecap="round" class="zr10-cls-58"></path>
<text dominant-baseline="central" text-anchor="middle" style="font-size:13px;font-family:Arial;" y="6.5" transform="translate(336 388)" fill="#383842">参数</text>
<path d="M78 346.5L594 346.5" fill="none" pointer-events="visible" stroke="#42424b" stroke-width="1.2" stroke-linecap="round" class="zr10-cls-58"></path>
<path d="M78 346.5L83 346.5" fill="none" pointer-events="visible" stroke="#42424b" class="zr10-cls-58"></path>
<path d="M78 309.5L83 309.5" fill="none" pointer-events="visible" stroke="#42424b" class="zr10-cls-58"></path>
<path d="M78 273.5L83 273.5" fill="none" pointer-events="visible" stroke="#42424b" class="zr10-cls-58"></path>
<path d="M78 237.5L83 237.5" fill="none" pointer-events="visible" stroke="#42424b" class="zr10-cls-58"></path>
<path d="M78 201.5L83 201.5" fill="none" pointer-events="visible" stroke="#42424b" class="zr10-cls-58"></path>
<path d="M78 164.5L83 164.5" fill="none" pointer-events="visible" stroke="#42424b" class="zr10-cls-58"></path>
<path d="M78 128.5L83 128.5" fill="none" pointer-events="visible" stroke="#42424b" class="zr10-cls-58"></path>
<path d="M78 92.5L83 92.5" fill="none" pointer-events="visible" stroke="#42424b" class="zr10-cls-58"></path>
<path d="M594 346.5L589 346.5" fill="none" pointer-events="visible" stroke="#42424b" class="zr10-cls-58"></path>
<path d="M594 295.5L589 295.5" fill="none" pointer-events="visible" stroke="#42424b" class="zr10-cls-58"></path>
<path d="M594 244.5L589 244.5" fill="none" pointer-events="visible" stroke="#42424b" class="zr10-cls-58"></path>
<path d="M594 193.5L589 193.5" fill="none" pointer-events="visible" stroke="#42424b" class="zr10-cls-58"></path>
<path d="M594 143.5L589 143.5" fill="none" pointer-events="visible" stroke="#42424b" class="zr10-cls-58"></path>
<path d="M594 92.5L589 92.5" fill="none" pointer-events="visible" stroke="#42424b" class="zr10-cls-58"></path>
<path d="M78.5 346L78.5 341" fill="none" pointer-events="visible" stroke="#42424b" class="zr10-cls-58"></path>
<path d="M207.5 346L207.5 341" fill="none" pointer-events="visible" stroke="#42424b" class="zr10-cls-58"></path>
<path d="M336.5 346L336.5 341" fill="none" pointer-events="visible" stroke="#42424b" class="zr10-cls-58"></path>
<path d="M465.5 346L465.5 341" fill="none" pointer-events="visible" stroke="#42424b" class="zr10-cls-58"></path>
<path d="M594.5 346L594.5 341" fill="none" pointer-events="visible" stroke="#42424b" class="zr10-cls-58"></path>
<text dominant-baseline="central" text-anchor="end" style="font-size:13px;font-family:Arial;" transform="translate(70 346)" fill="#383842">69</text>
<text dominant-baseline="central" text-anchor="end" style="font-size:13px;font-family:Arial;" transform="translate(70 309.7143)" fill="#383842">72</text>
<text dominant-baseline="central" text-anchor="end" style="font-size:13px;font-family:Arial;" transform="translate(70 273.4286)" fill="#383842">75</text>
<text dominant-baseline="central" text-anchor="end" style="font-size:13px;font-family:Arial;" transform="translate(70 237.1429)" fill="#383842">78</text>
<text dominant-baseline="central" text-anchor="end" style="font-size:13px;font-family:Arial;" transform="translate(70 200.8571)" fill="#383842">81</text>
<text dominant-baseline="central" text-anchor="end" style="font-size:13px;font-family:Arial;" transform="translate(70 164.5714)" fill="#383842">84</text>
<text dominant-baseline="central" text-anchor="end" style="font-size:13px;font-family:Arial;" transform="translate(70 128.2857)" fill="#383842">87</text>
<text dominant-baseline="central" text-anchor="end" style="font-size:13px;font-family:Arial;" transform="translate(70 92)" fill="#383842">90</text>
<text dominant-baseline="central" text-anchor="start" style="font-size:13px;font-family:Arial;" transform="translate(602 346)" fill="#383842">2</text>
<text dominant-baseline="central" text-anchor="start" style="font-size:13px;font-family:Arial;" transform="translate(602 295.2)" fill="#383842">4</text>
<text dominant-baseline="central" text-anchor="start" style="font-size:13px;font-family:Arial;" transform="translate(602 244.4)" fill="#383842">6</text>
<text dominant-baseline="central" text-anchor="start" style="font-size:13px;font-family:Arial;" transform="translate(602 193.6)" fill="#383842">8</text>
<text dominant-baseline="central" text-anchor="start" style="font-size:13px;font-family:Arial;" transform="translate(602 142.8)" fill="#383842">10</text>
<text dominant-baseline="central" text-anchor="start" style="font-size:13px;font-family:Arial;" transform="translate(602 92)" fill="#383842">12</text>
<text dominant-baseline="central" text-anchor="middle" style="font-size:13px;font-family:Arial;" y="6.5" transform="translate(78 354)" fill="#383842">0.1</text>
<text dominant-baseline="central" text-anchor="middle" style="font-size:13px;font-family:Arial;" y="6.5" transform="translate(207 354)" fill="#383842">0.2</text>
<text dominant-baseline="central" text-anchor="middle" style="font-size:13px;font-family:Arial;" y="6.5" transform="translate(336 354)" fill="#383842">0.3</text>
<text dominant-baseline="central" text-anchor="middle" style="font-size:13px;font-family:Arial;" y="6.5" transform="translate(465 354)" fill="#383842">0.4</text>
<text dominant-baseline="central" text-anchor="middle" style="font-size:13px;font-family:Arial;" y="6.5" transform="translate(594 354)" fill="#383842">0.5</text>
<g clip-path="url(#zr10-c0)">
<path d="M78 321.8L207 237.1L336 164.6L465 128.3L594 116.2" fill="none" pointer-events="visible" stroke="#788bcc" stroke-width="2" stroke-linejoin="bevel" class="zr10-cls-60"></path>
</g>
<g clip-path="url(#zr10-c1)">
<path d="M78 340.9L207 307.9L336 267.3L465 208.8L594 137.7" fill="none" pointer-events="visible" stroke="#d69baf" stroke-width="2" stroke-linejoin="bevel" class="zr10-cls-60"></path>
</g>
<path d="M1 0A1 1 0 1 1 1 -0.1A1 1 0 0 1 1 0" transform="matrix(2.5,0,0,2.5,78,321.8095)" fill="#788bcc" ecmeta_series_index="0" ecmeta_data_index="0" ecmeta_ssr_type="chart" class="zr10-cls-61"></path>
<path d="M1 0A1 1 0 1 1 1 -0.1A1 1 0 0 1 1 0" transform="matrix(2.5,0,0,2.5,207,237.1429)" fill="#788bcc" ecmeta_series_index="0" ecmeta_data_index="1" ecmeta_ssr_type="chart" class="zr10-cls-61"></path>
<path d="M1 0A1 1 0 1 1 1 -0.1A1 1 0 0 1 1 0" transform="matrix(2.5,0,0,2.5,336,164.5714)" fill="#788bcc" ecmeta_series_index="0" ecmeta_data_index="2" ecmeta_ssr_type="chart" class="zr10-cls-61"></path>
<path d="M1 0A1 1 0 1 1 1 -0.1A1 1 0 0 1 1 0" transform="matrix(2.5,0,0,2.5,465,128.2857)" fill="#788bcc" ecmeta_series_index="0" ecmeta_data_index="3" ecmeta_ssr_type="chart" class="zr10-cls-61"></path>
<path d="M1 0A1 1 0 1 1 1 -0.1A1 1 0 0 1 1 0" transform="matrix(2.5,0,0,2.5,594,116.1905)" fill="#788bcc" ecmeta_series_index="0" ecmeta_data_index="4" ecmeta_ssr_type="chart" class="zr10-cls-61"></path>
<path d="M-1 -1l2 0l0 2l-2 0Z" transform="matrix(2.5,0,0,2.5,78,340.92)" fill="#d69baf" ecmeta_series_index="1" ecmeta_data_index="0" ecmeta_ssr_type="chart" class="zr10-cls-62"></path>
<path d="M-1 -1l2 0l0 2l-2 0Z" transform="matrix(2.5,0,0,2.5,207,307.9)" fill="#d69baf" ecmeta_series_index="1" ecmeta_data_index="1" ecmeta_ssr_type="chart" class="zr10-cls-62"></path>
<path d="M-1 -1l2 0l0 2l-2 0Z" transform="matrix(2.5,0,0,2.5,336,267.26)" fill="#d69baf" ecmeta_series_index="1" ecmeta_data_index="2" ecmeta_ssr_type="chart" class="zr10-cls-62"></path>
<path d="M-1 -1l2 0l0 2l-2 0Z" transform="matrix(2.5,0,0,2.5,465,208.84)" fill="#d69baf" ecmeta_series_index="1" ecmeta_data_index="3" ecmeta_ssr_type="chart" class="zr10-cls-62"></path>
<path d="M-1 -1l2 0l0 2l-2 0Z" transform="matrix(2.5,0,0,2.5,594,137.72)" fill="#d69baf" ecmeta_series_index="1" ecmeta_data_index="4" ecmeta_ssr_type="chart" class="zr10-cls-62"></path>
<path d="M-5 -6.5l161.2 0l0 25l-161.2 0Z" transform="translate(264.38 56.5)" fill="rgb(0,0,0)" fill-opacity="0" stroke="#b7b9be" stroke-width="0" class="zr10-cls-58"></path>
<path d="M0 4L16 4" transform="translate(265.38 58.5)" fill="#000" stroke="#788bcc" stroke-width="2" stroke-linecap="butt" stroke-miterlimit="10" class="zr10-cls-58"></path>
<path d="M11.2 4A3.2 3.2 0 1 1 11.2 3.7A3.2 3.2 0 0 1 11.2 4" transform="translate(265.38 58.5)" fill="#788bcc" class="zr10-cls-58"></path>
<text dominant-baseline="central" text-anchor="start" style="font-size:12px;font-family:Arial;" xml:space="preserve" x="21" y="4" transform="translate(265.38 58.5)" fill="#383842">准确率 (%)</text>
<path d="M-1 -2l80 0l0 12l-80 0Z" transform="translate(265.38 58.5)" fill="none" pointer-events="visible" ecmeta_series_index="0" ecmeta_data_index="0" ecmeta_ssr_type="legend" class="zr10-cls-63"></path>
<path d="M0 4L16 4" transform="translate(353.34 58.5)" fill="#000" stroke="#d69baf" stroke-width="2" stroke-linecap="butt" stroke-miterlimit="10" class="zr10-cls-58"></path>
<path d="M4.8 0.8l6.4 0l0 6.4l-6.4 0Z" transform="translate(353.34 58.5)" fill="#d69baf" class="zr10-cls-58"></path>
<text dominant-baseline="central" text-anchor="start" style="font-size:12px;font-family:Arial;" xml:space="preserve" x="21" y="4" transform="translate(353.34 58.5)" fill="#383842">耗时 (s)</text>
<path d="M-1 -2l63.3 0l0 12l-63.3 0Z" transform="translate(353.34 58.5)" fill="none" pointer-events="visible" ecmeta_series_index="1" ecmeta_data_index="1" ecmeta_ssr_type="legend" class="zr10-cls-63"></path>
<path d="M-5 -5l10 0l0 10l-10 0Z" transform="translate(340 21)" fill="rgb(0,0,0)" fill-opacity="0" stroke="#3c3c41" stroke-width="0" class="zr10-cls-58"></path>
<defs >
<clipPath id="zr10-c0">
<path d="M77 91l518 0l0 256l-518 0Z" fill="#000" class="zr10-cls-59"></path>
</clipPath>
<clipPath id="zr10-c1">
<path d="M77 91l518 0l0 256l-518 0Z" fill="#000" class="zr10-cls-59"></path>
</clipPath>
</defs>
<style ><![CDATA[
.zr10-cls-58:hover {
pointer-events:none;
}
.zr10-cls-59:hover {
cursor:pointer;
fill:rgba(0,0,0,1);
}
.zr10-cls-60:hover {
cursor:pointer;
}
.zr10-cls-61:hover {
cursor:pointer;
fill:rgba(132,152,224,1);
}
.zr10-cls-62:hover {
cursor:pointer;
fill:rgba(235,170,192,1);
}
.zr10-cls-63:hover {
cursor:pointer;
fill:rgba(0,0,0,0);
}

]]>

</style>
</svg>