<svg width="680" height="420" xmlns="http://www.w3.org/2000/svg" xmlns:xlink="http://www.w3.org/1999/xlink" version="1.1" baseProfile="full" viewBox="0 0 680 420"><desc>倍率性能; independently rendered demonstration data; MaterialArtHub data template</desc>
<rect width="680" height="420" x="0" y="0" fill="#ffffff"></rect>
<path d="M-84.3 -52.4l168.7 0l0 52.4l-168.7 0Z" transform="matrix(0,-1,1,0,76.3804,218.08)" fill="none" pointer-events="visible" class="zr3-cls-17"></path>
<text dominant-baseline="central" text-anchor="middle" style="font-size:22.577777777777776px;font-family:Arial;" xml:space="preserve" y="-39.28533333333333" transform="matrix(0,-1,1,0,76.3804,218.08)" fill="#383842">Specific capacity</text>
<text dominant-baseline="central" text-anchor="middle" style="font-size:22.577777777777776px;font-family:Arial;" xml:space="preserve" y="-13.095111111111109" transform="matrix(0,-1,1,0,76.3804,218.08)" fill="#383842">(mAh g⁻¹)</text>
<path d="M177.5 319.5L177.5 116.6" fill="none" pointer-events="visible" stroke="#42424b" stroke-width="1.2" stroke-linecap="round" class="zr3-cls-17"></path>
<path d="M-69.8 0l139.5 0l0 26.2l-139.5 0Z" transform="translate(408.5076 376.8098)" fill="none" pointer-events="visible" class="zr3-cls-17"></path>
<text dominant-baseline="central" text-anchor="middle" style="font-size:22.577777777777776px;font-family:Arial;" xml:space="preserve" y="13.095111111111109" transform="translate(408.5076 376.8098)" fill="#383842">Cycle number</text>
<path d="M177 319.5L640 319.5" fill="none" pointer-events="visible" stroke="#42424b" stroke-width="1.2" stroke-linecap="round" class="zr3-cls-17"></path>
<path d="M177 319.5L182 319.5" fill="none" pointer-events="visible" stroke="#42424b" class="zr3-cls-17"></path>
<path d="M177 279.5L182 279.5" fill="none" pointer-events="visible" stroke="#42424b" class="zr3-cls-17"></path>
<path d="M177 238.5L182 238.5" fill="none" pointer-events="visible" stroke="#42424b" class="zr3-cls-17"></path>
<path d="M177 198.5L182 198.5" fill="none" pointer-events="visible" stroke="#42424b" class="zr3-cls-17"></path>
<path d="M177 157.5L182 157.5" fill="none" pointer-events="visible" stroke="#42424b" class="zr3-cls-17"></path>
<path d="M177 116.5L182 116.5" fill="none" pointer-events="visible" stroke="#42424b" class="zr3-cls-17"></path>
<path d="M177.5 319.5L177.5 314.5" fill="none" pointer-events="visible" stroke="#42424b" class="zr3-cls-17"></path>
<path d="M254.5 319.5L254.5 314.5" fill="none" pointer-events="visible" stroke="#42424b" class="zr3-cls-17"></path>
<path d="M331.5 319.5L331.5 314.5" fill="none" pointer-events="visible" stroke="#42424b" class="zr3-cls-17"></path>
<path d="M408.5 319.5L408.5 314.5" fill="none" pointer-events="visible" stroke="#42424b" class="zr3-cls-17"></path>
<path d="M485.5 319.5L485.5 314.5" fill="none" pointer-events="visible" stroke="#42424b" class="zr3-cls-17"></path>
<path d="M563.5 319.5L563.5 314.5" fill="none" pointer-events="visible" stroke="#42424b" class="zr3-cls-17"></path>
<path d="M640.5 319.5L640.5 314.5" fill="none" pointer-events="visible" stroke="#42424b" class="zr3-cls-17"></path>
<path d="M-25.3 -13.1l25.3 0l0 26.2l-25.3 0Z" transform="translate(167.0151 319.5244)" fill="none" pointer-events="visible" class="zr3-cls-17"></path>
<text dominant-baseline="central" text-anchor="end" style="font-size:22.577777777777776px;font-family:Arial;" transform="translate(167.0151 319.5244)" fill="#383842">80</text>
<path d="M-37.9 -13.1l37.9 0l0 26.2l-37.9 0Z" transform="translate(167.0151 278.9467)" fill="none" pointer-events="visible" class="zr3-cls-17"></path>
<text dominant-baseline="central" text-anchor="end" style="font-size:22.577777777777776px;font-family:Arial;" transform="translate(167.0151 278.9467)" fill="#383842">100</text>
<path d="M-37.9 -13.1l37.9 0l0 26.2l-37.9 0Z" transform="translate(167.0151 238.3689)" fill="none" pointer-events="visible" class="zr3-cls-17"></path>
<text dominant-baseline="central" text-anchor="end" style="font-size:22.577777777777776px;font-family:Arial;" transform="translate(167.0151 238.3689)" fill="#383842">120</text>
<path d="M-37.9 -13.1l37.9 0l0 26.2l-37.9 0Z" transform="translate(167.0151 197.7911)" fill="none" pointer-events="visible" class="zr3-cls-17"></path>
<text dominant-baseline="central" text-anchor="end" style="font-size:22.577777777777776px;font-family:Arial;" transform="translate(167.0151 197.7911)" fill="#383842">140</text>
<path d="M-37.9 -13.1l37.9 0l0 26.2l-37.9 0Z" transform="translate(167.0151 157.2133)" fill="none" pointer-events="visible" class="zr3-cls-17"></path>
<text dominant-baseline="central" text-anchor="end" style="font-size:22.577777777777776px;font-family:Arial;" transform="translate(167.0151 157.2133)" fill="#383842">160</text>
<path d="M-37.9 -13.1l37.9 0l0 26.2l-37.9 0Z" transform="translate(167.0151 116.6356)" fill="none" pointer-events="visible" class="zr3-cls-17"></path>
<text dominant-baseline="central" text-anchor="end" style="font-size:22.577777777777776px;font-family:Arial;" transform="translate(167.0151 116.6356)" fill="#383842">180</text>
<path d="M-6.3 0l12.6 0l0 26.2l-12.6 0Z" transform="translate(177.0151 329.5244)" fill="none" pointer-events="visible" class="zr3-cls-17"></path>
<text dominant-baseline="central" text-anchor="middle" style="font-size:22.577777777777776px;font-family:Arial;" y="13.095111111111109" transform="translate(177.0151 329.5244)" fill="#383842">0</text>
<path d="M-6.3 0l12.6 0l0 26.2l-12.6 0Z" transform="translate(254.1793 329.5244)" fill="none" pointer-events="visible" class="zr3-cls-17"></path>
<text dominant-baseline="central" text-anchor="middle" style="font-size:22.577777777777776px;font-family:Arial;" y="13.095111111111109" transform="translate(254.1793 329.5244)" fill="#383842">5</text>
<path d="M-12.6 0l25.3 0l0 26.2l-25.3 0Z" transform="translate(331.3434 329.5244)" fill="none" pointer-events="visible" class="zr3-cls-17"></path>
<text dominant-baseline="central" text-anchor="middle" style="font-size:22.577777777777776px;font-family:Arial;" y="13.095111111111109" transform="translate(331.3434 329.5244)" fill="#383842">10</text>
<path d="M-12.6 0l25.3 0l0 26.2l-25.3 0Z" transform="translate(408.5076 329.5244)" fill="none" pointer-events="visible" class="zr3-cls-17"></path>
<text dominant-baseline="central" text-anchor="middle" style="font-size:22.577777777777776px;font-family:Arial;" y="13.095111111111109" transform="translate(408.5076 329.5244)" fill="#383842">15</text>
<path d="M-12.6 0l25.3 0l0 26.2l-25.3 0Z" transform="translate(485.6717 329.5244)" fill="none" pointer-events="visible" class="zr3-cls-17"></path>
<text dominant-baseline="central" text-anchor="middle" style="font-size:22.577777777777776px;font-family:Arial;" y="13.095111111111109" transform="translate(485.6717 329.5244)" fill="#383842">20</text>
<path d="M-12.6 0l25.3 0l0 26.2l-25.3 0Z" transform="translate(562.8359 329.5244)" fill="none" pointer-events="visible" class="zr3-cls-17"></path>
<text dominant-baseline="central" text-anchor="middle" style="font-size:22.577777777777776px;font-family:Arial;" y="13.095111111111109" transform="translate(562.8359 329.5244)" fill="#383842">25</text>
<path d="M-12.6 0l25.3 0l0 26.2l-25.3 0Z" transform="translate(640 329.5244)" fill="none" pointer-events="visible" class="zr3-cls-17"></path>
<text dominant-baseline="central" text-anchor="middle" style="font-size:22.577777777777776px;font-family:Arial;" y="13.095111111111109" transform="translate(640 329.5244)" fill="#383842">30</text>
<g clip-path="url(#zr3-c0)">
<path d="M192.4 132.9L207.9 134.9L223.3 132.9L238.7 136.9L254.2 134.9L269.6 161.3L285 159.2L300.5 163.3L315.9 161.3L331.3 163.3L346.8 191.7L362.2 193.7L377.6 191.7L393.1 195.8L408.5 193.7L423.9 224.2L439.4 226.2L454.8 224.2L470.2 228.2L485.7 226.2L501.1 268.8L516.5 270.8L532 268.8L547.4 272.9L562.8 270.8L578.3 139L593.7 141L609.1 139L624.6 143L640 141" fill="none" pointer-events="visible" stroke="#38679b" stroke-width="2" stroke-linejoin="bevel" class="zr3-cls-19"></path>
</g>
<g clip-path="url(#zr3-c1)">
<path d="M192.4 157.2L207.9 159.2L223.3 159.2L238.7 161.3L254.2 159.2L269.6 187.6L285 189.7L300.5 191.7L315.9 189.7L331.3 189.7L346.8 222.1L362.2 224.2L377.6 222.1L393.1 226.2L408.5 224.2L423.9 262.7L439.4 264.7L454.8 262.7L470.2 266.8L485.7 264.7L501.1 311.4L516.5 313.4L532 313.4L547.4 315.5L562.8 313.4L578.3 169.4L593.7 171.4L609.1 169.4L624.6 173.4L640 171.4" fill="none" pointer-events="visible" stroke="#c77972" stroke-width="2" stroke-linejoin="bevel" class="zr3-cls-19"></path>
</g>
<path d="M1 0A1 1 0 1 1 1 -0.1A1 1 0 0 1 1 0" transform="matrix(2.5,0,0,2.5,192.4479,132.8667)" fill="#38679b" ecmeta_series_index="0" ecmeta_data_index="0" ecmeta_ssr_type="chart" class="zr3-cls-20"></path>
<path d="M1 0A1 1 0 1 1 1 -0.1A1 1 0 0 1 1 0" transform="matrix(2.5,0,0,2.5,207.8808,134.8956)" fill="#38679b" ecmeta_series_index="0" ecmeta_data_index="1" ecmeta_ssr_type="chart" class="zr3-cls-20"></path>
<path d="M1 0A1 1 0 1 1 1 -0.1A1 1 0 0 1 1 0" transform="matrix(2.5,0,0,2.5,223.3136,132.8667)" fill="#38679b" ecmeta_series_index="0" ecmeta_data_index="2" ecmeta_ssr_type="chart" class="zr3-cls-20"></path>
<path d="M1 0A1 1 0 1 1 1 -0.1A1 1 0 0 1 1 0" transform="matrix(2.5,0,0,2.5,238.7464,136.9244)" fill="#38679b" ecmeta_series_index="0" ecmeta_data_index="3" ecmeta_ssr_type="chart" class="zr3-cls-20"></path>
<path d="M1 0A1 1 0 1 1 1 -0.1A1 1 0 0 1 1 0" transform="matrix(2.5,0,0,2.5,254.1793,134.8956)" fill="#38679b" ecmeta_series_index="0" ecmeta_data_index="4" ecmeta_ssr_type="chart" class="zr3-cls-20"></path>
<path d="M1 0A1 1 0 1 1 1 -0.1A1 1 0 0 1 1 0" transform="matrix(2.5,0,0,2.5,269.6121,161.2711)" fill="#38679b" ecmeta_series_index="0" ecmeta_data_index="5" ecmeta_ssr_type="chart" class="zr3-cls-20"></path>
<path d="M1 0A1 1 0 1 1 1 -0.1A1 1 0 0 1 1 0" transform="matrix(2.5,0,0,2.5,285.0449,159.2422)" fill="#38679b" ecmeta_series_index="0" ecmeta_data_index="6" ecmeta_ssr_type="chart" class="zr3-cls-20"></path>
<path d="M1 0A1 1 0 1 1 1 -0.1A1 1 0 0 1 1 0" transform="matrix(2.5,0,0,2.5,300.4778,163.3)" fill="#38679b" ecmeta_series_index="0" ecmeta_data_index="7" ecmeta_ssr_type="chart" class="zr3-cls-20"></path>
<path d="M1 0A1 1 0 1 1 1 -0.1A1 1 0 0 1 1 0" transform="matrix(2.5,0,0,2.5,315.9106,161.2711)" fill="#38679b" ecmeta_series_index="0" ecmeta_data_index="8" ecmeta_ssr_type="chart" class="zr3-cls-20"></path>
<path d="M1 0A1 1 0 1 1 1 -0.1A1 1 0 0 1 1 0" transform="matrix(2.5,0,0,2.5,331.3434,163.3)" fill="#38679b" ecmeta_series_index="0" ecmeta_data_index="9" ecmeta_ssr_type="chart" class="zr3-cls-20"></path>
<path d="M1 0A1 1 0 1 1 1 -0.1A1 1 0 0 1 1 0" transform="matrix(2.5,0,0,2.5,346.7762,191.7044)" fill="#38679b" ecmeta_series_index="0" ecmeta_data_index="10" ecmeta_ssr_type="chart" class="zr3-cls-20"></path>
<path d="M1 0A1 1 0 1 1 1 -0.1A1 1 0 0 1 1 0" transform="matrix(2.5,0,0,2.5,362.2091,193.7333)" fill="#38679b" ecmeta_series_index="0" ecmeta_data_index="11" ecmeta_ssr_type="chart" class="zr3-cls-20"></path>
<path d="M1 0A1 1 0 1 1 1 -0.1A1 1 0 0 1 1 0" transform="matrix(2.5,0,0,2.5,377.6419,191.7044)" fill="#38679b" ecmeta_series_index="0" ecmeta_data_index="12" ecmeta_ssr_type="chart" class="zr3-cls-20"></path>
<path d="M1 0A1 1 0 1 1 1 -0.1A1 1 0 0 1 1 0" transform="matrix(2.5,0,0,2.5,393.0747,195.7622)" fill="#38679b" ecmeta_series_index="0" ecmeta_data_index="13" ecmeta_ssr_type="chart" class="zr3-cls-20"></path>
<path d="M1 0A1 1 0 1 1 1 -0.1A1 1 0 0 1 1 0" transform="matrix(2.5,0,0,2.5,408.5076,193.7333)" fill="#38679b" ecmeta_series_index="0" ecmeta_data_index="14" ecmeta_ssr_type="chart" class="zr3-cls-20"></path>
<path d="M1 0A1 1 0 1 1 1 -0.1A1 1 0 0 1 1 0" transform="matrix(2.5,0,0,2.5,423.9404,224.1667)" fill="#38679b" ecmeta_series_index="0" ecmeta_data_index="15" ecmeta_ssr_type="chart" class="zr3-cls-20"></path>
<path d="M1 0A1 1 0 1 1 1 -0.1A1 1 0 0 1 1 0" transform="matrix(2.5,0,0,2.5,439.3732,226.1956)" fill="#38679b" ecmeta_series_index="0" ecmeta_data_index="16" ecmeta_ssr_type="chart" class="zr3-cls-20"></path>
<path d="M1 0A1 1 0 1 1 1 -0.1A1 1 0 0 1 1 0" transform="matrix(2.5,0,0,2.5,454.806,224.1667)" fill="#38679b" ecmeta_series_index="0" ecmeta_data_index="17" ecmeta_ssr_type="chart" class="zr3-cls-20"></path>
<path d="M1 0A1 1 0 1 1 1 -0.1A1 1 0 0 1 1 0" transform="matrix(2.5,0,0,2.5,470.2389,228.2244)" fill="#38679b" ecmeta_series_index="0" ecmeta_data_index="18" ecmeta_ssr_type="chart" class="zr3-cls-20"></path>
<path d="M1 0A1 1 0 1 1 1 -0.1A1 1 0 0 1 1 0" transform="matrix(2.5,0,0,2.5,485.6717,226.1956)" fill="#38679b" ecmeta_series_index="0" ecmeta_data_index="19" ecmeta_ssr_type="chart" class="zr3-cls-20"></path>
<path d="M1 0A1 1 0 1 1 1 -0.1A1 1 0 0 1 1 0" transform="matrix(2.5,0,0,2.5,501.1045,268.8022)" fill="#38679b" ecmeta_series_index="0" ecmeta_data_index="20" ecmeta_ssr_type="chart" class="zr3-cls-20"></path>
<path d="M1 0A1 1 0 1 1 1 -0.1A1 1 0 0 1 1 0" transform="matrix(2.5,0,0,2.5,516.5374,270.8311)" fill="#38679b" ecmeta_series_index="0" ecmeta_data_index="21" ecmeta_ssr_type="chart" class="zr3-cls-20"></path>
<path d="M1 0A1 1 0 1 1 1 -0.1A1 1 0 0 1 1 0" transform="matrix(2.5,0,0,2.5,531.9702,268.8022)" fill="#38679b" ecmeta_series_index="0" ecmeta_data_index="22" ecmeta_ssr_type="chart" class="zr3-cls-20"></path>
<path d="M1 0A1 1 0 1 1 1 -0.1A1 1 0 0 1 1 0" transform="matrix(2.5,0,0,2.5,547.403,272.86)" fill="#38679b" ecmeta_series_index="0" ecmeta_data_index="23" ecmeta_ssr_type="chart" class="zr3-cls-20"></path>
<path d="M1 0A1 1 0 1 1 1 -0.1A1 1 0 0 1 1 0" transform="matrix(2.5,0,0,2.5,562.8359,270.8311)" fill="#38679b" ecmeta_series_index="0" ecmeta_data_index="24" ecmeta_ssr_type="chart" class="zr3-cls-20"></path>
<path d="M1 0A1 1 0 1 1 1 -0.1A1 1 0 0 1 1 0" transform="matrix(2.5,0,0,2.5,578.2687,138.9533)" fill="#38679b" ecmeta_series_index="0" ecmeta_data_index="25" ecmeta_ssr_type="chart" class="zr3-cls-20"></path>
<path d="M1 0A1 1 0 1 1 1 -0.1A1 1 0 0 1 1 0" transform="matrix(2.5,0,0,2.5,593.7015,140.9822)" fill="#38679b" ecmeta_series_index="0" ecmeta_data_index="26" ecmeta_ssr_type="chart" class="zr3-cls-20"></path>
<path d="M1 0A1 1 0 1 1 1 -0.1A1 1 0 0 1 1 0" transform="matrix(2.5,0,0,2.5,609.1343,138.9533)" fill="#38679b" ecmeta_series_index="0" ecmeta_data_index="27" ecmeta_ssr_type="chart" class="zr3-cls-20"></path>
<path d="M1 0A1 1 0 1 1 1 -0.1A1 1 0 0 1 1 0" transform="matrix(2.5,0,0,2.5,624.5672,143.0111)" fill="#38679b" ecmeta_series_index="0" ecmeta_data_index="28" ecmeta_ssr_type="chart" class="zr3-cls-20"></path>
<path d="M1 0A1 1 0 1 1 1 -0.1A1 1 0 0 1 1 0" transform="matrix(2.5,0,0,2.5,640,140.9822)" fill="#38679b" ecmeta_series_index="0" ecmeta_data_index="29" ecmeta_ssr_type="chart" class="zr3-cls-20"></path>
<path d="M-1 -1l2 0l0 2l-2 0Z" transform="matrix(2.5,0,0,2.5,192.4479,157.2133)" fill="#c77972" ecmeta_series_index="1" ecmeta_data_index="0" ecmeta_ssr_type="chart" class="zr3-cls-21"></path>
<path d="M-1 -1l2 0l0 2l-2 0Z" transform="matrix(2.5,0,0,2.5,207.8808,159.2422)" fill="#c77972" ecmeta_series_index="1" ecmeta_data_index="1" ecmeta_ssr_type="chart" class="zr3-cls-21"></path>
<path d="M-1 -1l2 0l0 2l-2 0Z" transform="matrix(2.5,0,0,2.5,223.3136,159.2422)" fill="#c77972" ecmeta_series_index="1" ecmeta_data_index="2" ecmeta_ssr_type="chart" class="zr3-cls-21"></path>
<path d="M-1 -1l2 0l0 2l-2 0Z" transform="matrix(2.5,0,0,2.5,238.7464,161.2711)" fill="#c77972" ecmeta_series_index="1" ecmeta_data_index="3" ecmeta_ssr_type="chart" class="zr3-cls-21"></path>
<path d="M-1 -1l2 0l0 2l-2 0Z" transform="matrix(2.5,0,0,2.5,254.1793,159.2422)" fill="#c77972" ecmeta_series_index="1" ecmeta_data_index="4" ecmeta_ssr_type="chart" class="zr3-cls-21"></path>
<path d="M-1 -1l2 0l0 2l-2 0Z" transform="matrix(2.5,0,0,2.5,269.6121,187.6467)" fill="#c77972" ecmeta_series_index="1" ecmeta_data_index="5" ecmeta_ssr_type="chart" class="zr3-cls-21"></path>
<path d="M-1 -1l2 0l0 2l-2 0Z" transform="matrix(2.5,0,0,2.5,285.0449,189.6756)" fill="#c77972" ecmeta_series_index="1" ecmeta_data_index="6" ecmeta_ssr_type="chart" class="zr3-cls-21"></path>
<path d="M-1 -1l2 0l0 2l-2 0Z" transform="matrix(2.5,0,0,2.5,300.4778,191.7044)" fill="#c77972" ecmeta_series_index="1" ecmeta_data_index="7" ecmeta_ssr_type="chart" class="zr3-cls-21"></path>
<path d="M-1 -1l2 0l0 2l-2 0Z" transform="matrix(2.5,0,0,2.5,315.9106,189.6756)" fill="#c77972" ecmeta_series_index="1" ecmeta_data_index="8" ecmeta_ssr_type="chart" class="zr3-cls-21"></path>
<path d="M-1 -1l2 0l0 2l-2 0Z" transform="matrix(2.5,0,0,2.5,331.3434,189.6756)" fill="#c77972" ecmeta_series_index="1" ecmeta_data_index="9" ecmeta_ssr_type="chart" class="zr3-cls-21"></path>
<path d="M-1 -1l2 0l0 2l-2 0Z" transform="matrix(2.5,0,0,2.5,346.7762,222.1378)" fill="#c77972" ecmeta_series_index="1" ecmeta_data_index="10" ecmeta_ssr_type="chart" class="zr3-cls-21"></path>
<path d="M-1 -1l2 0l0 2l-2 0Z" transform="matrix(2.5,0,0,2.5,362.2091,224.1667)" fill="#c77972" ecmeta_series_index="1" ecmeta_data_index="11" ecmeta_ssr_type="chart" class="zr3-cls-21"></path>
<path d="M-1 -1l2 0l0 2l-2 0Z" transform="matrix(2.5,0,0,2.5,377.6419,222.1378)" fill="#c77972" ecmeta_series_index="1" ecmeta_data_index="12" ecmeta_ssr_type="chart" class="zr3-cls-21"></path>
<path d="M-1 -1l2 0l0 2l-2 0Z" transform="matrix(2.5,0,0,2.5,393.0747,226.1956)" fill="#c77972" ecmeta_series_index="1" ecmeta_data_index="13" ecmeta_ssr_type="chart" class="zr3-cls-21"></path>
<path d="M-1 -1l2 0l0 2l-2 0Z" transform="matrix(2.5,0,0,2.5,408.5076,224.1667)" fill="#c77972" ecmeta_series_index="1" ecmeta_data_index="14" ecmeta_ssr_type="chart" class="zr3-cls-21"></path>
<path d="M-1 -1l2 0l0 2l-2 0Z" transform="matrix(2.5,0,0,2.5,423.9404,262.7155)" fill="#c77972" ecmeta_series_index="1" ecmeta_data_index="15" ecmeta_ssr_type="chart" class="zr3-cls-21"></path>
<path d="M-1 -1l2 0l0 2l-2 0Z" transform="matrix(2.5,0,0,2.5,439.3732,264.7444)" fill="#c77972" ecmeta_series_index="1" ecmeta_data_index="16" ecmeta_ssr_type="chart" class="zr3-cls-21"></path>
<path d="M-1 -1l2 0l0 2l-2 0Z" transform="matrix(2.5,0,0,2.5,454.806,262.7155)" fill="#c77972" ecmeta_series_index="1" ecmeta_data_index="17" ecmeta_ssr_type="chart" class="zr3-cls-21"></path>
<path d="M-1 -1l2 0l0 2l-2 0Z" transform="matrix(2.5,0,0,2.5,470.2389,266.7733)" fill="#c77972" ecmeta_series_index="1" ecmeta_data_index="18" ecmeta_ssr_type="chart" class="zr3-cls-21"></path>
<path d="M-1 -1l2 0l0 2l-2 0Z" transform="matrix(2.5,0,0,2.5,485.6717,264.7444)" fill="#c77972" ecmeta_series_index="1" ecmeta_data_index="19" ecmeta_ssr_type="chart" class="zr3-cls-21"></path>
<path d="M-1 -1l2 0l0 2l-2 0Z" transform="matrix(2.5,0,0,2.5,501.1045,311.4089)" fill="#c77972" ecmeta_series_index="1" ecmeta_data_index="20" ecmeta_ssr_type="chart" class="zr3-cls-21"></path>
<path d="M-1 -1l2 0l0 2l-2 0Z" transform="matrix(2.5,0,0,2.5,516.5374,313.4378)" fill="#c77972" ecmeta_series_index="1" ecmeta_data_index="21" ecmeta_ssr_type="chart" class="zr3-cls-21"></path>
<path d="M-1 -1l2 0l0 2l-2 0Z" transform="matrix(2.5,0,0,2.5,531.9702,313.4378)" fill="#c77972" ecmeta_series_index="1" ecmeta_data_index="22" ecmeta_ssr_type="chart" class="zr3-cls-21"></path>
<path d="M-1 -1l2 0l0 2l-2 0Z" transform="matrix(2.5,0,0,2.5,547.403,315.4667)" fill="#c77972" ecmeta_series_index="1" ecmeta_data_index="23" ecmeta_ssr_type="chart" class="zr3-cls-21"></path>
<path d="M-1 -1l2 0l0 2l-2 0Z" transform="matrix(2.5,0,0,2.5,562.8359,313.4378)" fill="#c77972" ecmeta_series_index="1" ecmeta_data_index="24" ecmeta_ssr_type="chart" class="zr3-cls-21"></path>
<path d="M-1 -1l2 0l0 2l-2 0Z" transform="matrix(2.5,0,0,2.5,578.2687,169.3867)" fill="#c77972" ecmeta_series_index="1" ecmeta_data_index="25" ecmeta_ssr_type="chart" class="zr3-cls-21"></path>
<path d="M-1 -1l2 0l0 2l-2 0Z" transform="matrix(2.5,0,0,2.5,593.7015,171.4156)" fill="#c77972" ecmeta_series_index="1" ecmeta_data_index="26" ecmeta_ssr_type="chart" class="zr3-cls-21"></path>
<path d="M-1 -1l2 0l0 2l-2 0Z" transform="matrix(2.5,0,0,2.5,609.1343,169.3867)" fill="#c77972" ecmeta_series_index="1" ecmeta_data_index="27" ecmeta_ssr_type="chart" class="zr3-cls-21"></path>
<path d="M-1 -1l2 0l0 2l-2 0Z" transform="matrix(2.5,0,0,2.5,624.5672,173.4444)" fill="#c77972" ecmeta_series_index="1" ecmeta_data_index="28" ecmeta_ssr_type="chart" class="zr3-cls-21"></path>
<path d="M-1 -1l2 0l0 2l-2 0Z" transform="matrix(2.5,0,0,2.5,640,171.4156)" fill="#c77972" ecmeta_series_index="1" ecmeta_data_index="29" ecmeta_ssr_type="chart" class="zr3-cls-21"></path>
<path d="M0 0l245.7 0l0 25l-245.7 0Z" transform="translate(217.1367 58.5102)" fill="rgb(0,0,0)" fill-opacity="0" stroke="#b7b9be" stroke-width="0" class="zr3-cls-17"></path>
<path d="M0 4L16 4" transform="translate(218.1367 67.0253)" fill="#000" stroke="#38679b" stroke-width="2" stroke-linecap="butt" stroke-miterlimit="10" class="zr3-cls-17"></path>
<path d="M11.2 4A3.2 3.2 0 1 1 11.2 3.7A3.2 3.2 0 0 1 11.2 4" transform="translate(218.1367 67.0253)" fill="#38679b" class="zr3-cls-17"></path>
<path d="M21 -8.5l93.9 0l0 25l-93.9 0Z" transform="translate(218.1367 67.0253)" fill="none" pointer-events="visible" class="zr3-cls-17"></path>
<text dominant-baseline="central" text-anchor="start" style="font-size:21.577777777777776px;font-family:Arial;" xml:space="preserve" x="21" y="4" transform="translate(218.1367 67.0253)" fill="#383842">Sample A</text>
<path d="M-1 -8.5l115.9 0l0 25l-115.9 0Z" transform="translate(218.1367 67.0253)" fill="none" pointer-events="visible" ecmeta_series_index="0" ecmeta_data_index="0" ecmeta_ssr_type="legend" class="zr3-cls-22"></path>
<path d="M0 4L16 4" transform="translate(348 67.0253)" fill="#000" stroke="#c77972" stroke-width="2" stroke-linecap="butt" stroke-miterlimit="10" class="zr3-cls-17"></path>
<path d="M4.8 0.8l6.4 0l0 6.4l-6.4 0Z" transform="translate(348 67.0253)" fill="#c77972" class="zr3-cls-17"></path>
<path d="M21 -8.5l93.9 0l0 25l-93.9 0Z" transform="translate(348 67.0253)" fill="none" pointer-events="visible" class="zr3-cls-17"></path>
<text dominant-baseline="central" text-anchor="start" style="font-size:21.577777777777776px;font-family:Arial;" xml:space="preserve" x="21" y="4" transform="translate(348 67.0253)" fill="#383842">Sample B</text>
<path d="M-1 -8.5l115.9 0l0 25l-115.9 0Z" transform="translate(348 67.0253)" fill="none" pointer-events="visible" ecmeta_series_index="1" ecmeta_data_index="1" ecmeta_ssr_type="legend" class="zr3-cls-22"></path>
<path d="M-117.5 0l235 0l0 28.5l-235 0Z" transform="translate(340 12)" fill="rgb(0,0,0)" fill-opacity="0" stroke="#3c3c41" stroke-width="0" class="zr3-cls-17"></path>
<path d="M-117.5 0l235 0l0 28.5l-235 0Z" transform="translate(340 12)" fill="none" pointer-events="visible" class="zr3-cls-17"></path>
<text dominant-baseline="central" text-anchor="middle" style="font-size:24.577777777777776px;font-family:Arial;font-weight:600;" xml:space="preserve" y="14.255111111111109" transform="translate(340 12)" fill="#383842">倍率性能 · 示例数据</text>
<defs >
<clipPath id="zr3-c0">
<path d="M176 115.6l466 0l0 204.9l-466 0Z" fill="#000" class="zr3-cls-18"></path>
</clipPath>
<clipPath id="zr3-c1">
<path d="M176 115.6l466 0l0 204.9l-466 0Z" fill="#000" class="zr3-cls-18"></path>
</clipPath>
</defs>
<style ><![CDATA[
.zr3-cls-17:hover {
pointer-events:none;
}
.zr3-cls-18:hover {
cursor:pointer;
fill:rgba(0,0,0,1);
}
.zr3-cls-19:hover {
cursor:pointer;
}
.zr3-cls-20:hover {
cursor:pointer;
fill:rgba(61,113,170,1);
}
.zr3-cls-21:hover {
cursor:pointer;
fill:rgba(218,133,125,1);
}
.zr3-cls-22:hover {
cursor:pointer;
fill:rgba(0,0,0,0);
}

]]>

</style>
</svg>