<svg width="760" height="500" xmlns="http://www.w3.org/2000/svg" xmlns:xlink="http://www.w3.org/1999/xlink" version="1.1" baseProfile="full" viewBox="0 0 760 500"><desc>三维针状图; independently rendered demonstration data; L1502 issue 27; independent web implementation</desc>
<rect width="760" height="500" x="0" y="0" fill="#ffffff"></rect>
<polyline points="384.4 216.7 382.5 76.6" fill="none" pointer-events="visible" stroke="#3B6E9E" stroke-width="1.5" stroke-linejoin="round" class="zr69-cls-819"></polyline>
<polyline points="420 228.3 420.8 62.8" fill="none" pointer-events="visible" stroke="#3B6E9E" stroke-width="1.5" stroke-linejoin="round" class="zr69-cls-819"></polyline>
<circle cx="382.5" cy="76.6" r="7.6" fill="#3B6E9E" stroke="#ffffff" stroke-width="0.65" class="zr69-cls-820"></circle>
<polyline points="357.7 233.4 353.6 79" fill="none" pointer-events="visible" stroke="#3B6E9E" stroke-width="1.5" stroke-linejoin="round" class="zr69-cls-819"></polyline>
<polyline points="457.5 240.4 460.9 96.1" fill="none" pointer-events="visible" stroke="#3B6E9E" stroke-width="1.5" stroke-linejoin="round" class="zr69-cls-819"></polyline>
<polyline points="496.9 253.2 501.2 154.8" fill="none" pointer-events="visible" stroke="#3B6E9E" stroke-width="1.5" stroke-linejoin="round" class="zr69-cls-819"></polyline>
<polyline points="394 245.8 392.4 64.7" fill="none" pointer-events="visible" stroke="#3B6E9E" stroke-width="1.5" stroke-linejoin="round" class="zr69-cls-819"></polyline>
<circle cx="420.8" cy="62.8" r="7.6" fill="#3B6E9E" stroke="#ffffff" stroke-width="0.65" class="zr69-cls-820"></circle>
<circle cx="353.6" cy="79" r="7.6" fill="#3B6E9E" stroke="#ffffff" stroke-width="0.65" class="zr69-cls-820"></circle>
<polyline points="329.2 251.4 322 81.7" fill="none" pointer-events="visible" stroke="#3B6E9E" stroke-width="1.5" stroke-linejoin="round" class="zr69-cls-819"></polyline>
<polyline points="538.3 266.7 543.1 194.5" fill="none" pointer-events="visible" stroke="#3B6E9E" stroke-width="1.5" stroke-linejoin="round" class="zr69-cls-819"></polyline>
<circle cx="460.9" cy="96.1" r="7.6" fill="#3B6E9E" stroke="#ffffff" stroke-width="0.65" class="zr69-cls-820"></circle>
<circle cx="501.2" cy="154.8" r="7.6" fill="#3B6E9E" stroke="#ffffff" stroke-width="0.65" class="zr69-cls-820"></circle>
<polyline points="432.2 258.9 433.9 99.5" fill="none" pointer-events="visible" stroke="#3B6E9E" stroke-width="1.5" stroke-linejoin="round" class="zr69-cls-819"></polyline>
<circle cx="543.1" cy="194.5" r="7.6" fill="#3B6E9E" stroke="#ffffff" stroke-width="0.65" class="zr69-cls-820"></circle>
<polyline points="472.4 272.7 476 161" fill="none" pointer-events="visible" stroke="#3B6E9E" stroke-width="1.5" stroke-linejoin="round" class="zr69-cls-819"></polyline>
<polyline points="366 264.7 361.4 66.8" fill="none" pointer-events="visible" stroke="#3B6E9E" stroke-width="1.5" stroke-linejoin="round" class="zr69-cls-819"></polyline>
<circle cx="392.4" cy="64.7" r="7.6" fill="#3B6E9E" stroke="#ffffff" stroke-width="0.65" class="zr69-cls-820"></circle>
<polyline points="582.1 280.9 590.3 189.2" fill="none" pointer-events="visible" stroke="#3B6E9E" stroke-width="1.5" stroke-linejoin="round" class="zr69-cls-819"></polyline>
<polyline points="298.4 270.7 287.5 84.6" fill="none" pointer-events="visible" stroke="#3B6E9E" stroke-width="1.5" stroke-linejoin="round" class="zr69-cls-819"></polyline>
<circle cx="322" cy="81.7" r="7.6" fill="#3B6E9E" stroke="#ffffff" stroke-width="0.65" class="zr69-cls-820"></circle>
<polyline points="514.8 287.2 519.4 202.6" fill="none" pointer-events="visible" stroke="#3B6E9E" stroke-width="1.5" stroke-linejoin="round" class="zr69-cls-819"></polyline>
<circle cx="433.9" cy="99.5" r="7.6" fill="#3B6E9E" stroke="#ffffff" stroke-width="0.65" class="zr69-cls-820"></circle>
<polyline points="404.9 278.8 404.4 103.3" fill="none" pointer-events="visible" stroke="#3B6E9E" stroke-width="1.5" stroke-linejoin="round" class="zr69-cls-819"></polyline>
<circle cx="476" cy="161" r="7.6" fill="#3B6E9E" stroke="#ffffff" stroke-width="0.65" class="zr69-cls-820"></circle>
<circle cx="590.3" cy="189.2" r="7.6" fill="#3B6E9E" stroke="#ffffff" stroke-width="0.65" class="zr69-cls-820"></circle>
<circle cx="519.4" cy="202.6" r="7.6" fill="#3B6E9E" stroke="#ffffff" stroke-width="0.65" class="zr69-cls-820"></circle>
<polyline points="446 293.7 448.3 167.7" fill="none" pointer-events="visible" stroke="#3B6E9E" stroke-width="1.5" stroke-linejoin="round" class="zr69-cls-819"></polyline>
<polyline points="335.9 285.1 327.4 69.1" fill="none" pointer-events="visible" stroke="#3B6E9E" stroke-width="1.5" stroke-linejoin="round" class="zr69-cls-819"></polyline>
<polyline points="559.7 302.6 567.9 197.3" fill="none" pointer-events="visible" stroke="#3B6E9E" stroke-width="1.5" stroke-linejoin="round" class="zr69-cls-819"></polyline>
<circle cx="361.4" cy="66.8" r="7.6" fill="#3B6E9E" stroke="#ffffff" stroke-width="0.65" class="zr69-cls-820"></circle>
<polyline points="265.2 291.5 249.6 87.8" fill="none" pointer-events="visible" stroke="#3B6E9E" stroke-width="1.5" stroke-linejoin="round" class="zr69-cls-819"></polyline>
<circle cx="287.5" cy="84.6" r="7.6" fill="#3B6E9E" stroke="#ffffff" stroke-width="0.65" class="zr69-cls-820"></circle>
<polyline points="489.4 309.5 493.5 211.5" fill="none" pointer-events="visible" stroke="#3B6E9E" stroke-width="1.5" stroke-linejoin="round" class="zr69-cls-819"></polyline>
<polyline points="375.5 300.3 371.9 107.5" fill="none" pointer-events="visible" stroke="#3B6E9E" stroke-width="1.5" stroke-linejoin="round" class="zr69-cls-819"></polyline>
<circle cx="404.4" cy="103.3" r="7.6" fill="#3B6E9E" stroke="#ffffff" stroke-width="0.65" class="zr69-cls-820"></circle>
<circle cx="448.3" cy="167.7" r="7.6" fill="#3B6E9E" stroke="#ffffff" stroke-width="0.65" class="zr69-cls-820"></circle>
<circle cx="567.9" cy="197.3" r="7.6" fill="#3B6E9E" stroke="#ffffff" stroke-width="0.65" class="zr69-cls-820"></circle>
<polyline points="417.4 316.5 417.9 175.2" fill="none" pointer-events="visible" stroke="#3B6E9E" stroke-width="1.5" stroke-linejoin="round" class="zr69-cls-819"></polyline>
<circle cx="493.5" cy="211.5" r="7.6" fill="#3B6E9E" stroke="#ffffff" stroke-width="0.65" class="zr69-cls-820"></circle>
<polyline points="303.3 307.1 289.8 71.7" fill="none" pointer-events="visible" stroke="#3B6E9E" stroke-width="1.5" stroke-linejoin="round" class="zr69-cls-819"></polyline>
<polyline points="535.3 326.1 543.3 206.3" fill="none" pointer-events="visible" stroke="#3B6E9E" stroke-width="1.5" stroke-linejoin="round" class="zr69-cls-819"></polyline>
<polyline points="229.2 314.1 207.7 91.4" fill="none" pointer-events="visible" stroke="#3B6E9E" stroke-width="1.5" stroke-linejoin="round" class="zr69-cls-819"></polyline>
<circle cx="327.4" cy="69.1" r="7.6" fill="#3B6E9E" stroke="#ffffff" stroke-width="0.65" class="zr69-cls-820"></circle>
<circle cx="249.6" cy="87.8" r="7.6" fill="#3B6E9E" stroke="#ffffff" stroke-width="0.65" class="zr69-cls-820"></circle>
<polyline points="461.8 333.6 464.8 221.2" fill="none" pointer-events="visible" stroke="#3B6E9E" stroke-width="1.5" stroke-linejoin="round" class="zr69-cls-819"></polyline>
<polyline points="343.6 323.7 335.9 112.1" fill="none" pointer-events="visible" stroke="#3B6E9E" stroke-width="1.5" stroke-linejoin="round" class="zr69-cls-819"></polyline>
<circle cx="371.9" cy="107.5" r="7.6" fill="#3B6E9E" stroke="#ffffff" stroke-width="0.65" class="zr69-cls-820"></circle>
<circle cx="417.9" cy="175.2" r="7.6" fill="#3B6E9E" stroke="#ffffff" stroke-width="0.65" class="zr69-cls-820"></circle>
<circle cx="543.3" cy="206.3" r="7.6" fill="#3B6E9E" stroke="#ffffff" stroke-width="0.65" class="zr69-cls-820"></circle>
<polyline points="386.3 341.2 384.2 183.4" fill="none" pointer-events="visible" stroke="#3B6E9E" stroke-width="1.5" stroke-linejoin="round" class="zr69-cls-819"></polyline>
<polyline points="267.9 331 248.2 74.5" fill="none" pointer-events="visible" stroke="#3B6E9E" stroke-width="1.5" stroke-linejoin="round" class="zr69-cls-819"></polyline>
<circle cx="464.8" cy="221.2" r="7.6" fill="#3B6E9E" stroke="#ffffff" stroke-width="0.65" class="zr69-cls-820"></circle>
<polyline points="508.9 351.7 516.1 216.2" fill="none" pointer-events="visible" stroke="#3B6E9E" stroke-width="1.5" stroke-linejoin="round" class="zr69-cls-819"></polyline>
<circle cx="289.8" cy="71.7" r="7.6" fill="#3B6E9E" stroke="#ffffff" stroke-width="0.65" class="zr69-cls-820"></circle>
<polyline points="431.7 359.8 433.2 232" fill="none" pointer-events="visible" stroke="#3B6E9E" stroke-width="1.5" stroke-linejoin="round" class="zr69-cls-819"></polyline>
<circle cx="207.7" cy="91.4" r="7.6" fill="#3B6E9E" stroke="#ffffff" stroke-width="0.65" class="zr69-cls-820"></circle>
<polyline points="308.8 349 296 117.3" fill="none" pointer-events="visible" stroke="#3B6E9E" stroke-width="1.5" stroke-linejoin="round" class="zr69-cls-819"></polyline>
<circle cx="335.9" cy="112.1" r="7.6" fill="#3B6E9E" stroke="#ffffff" stroke-width="0.65" class="zr69-cls-820"></circle>
<circle cx="384.2" cy="183.4" r="7.6" fill="#3B6E9E" stroke="#ffffff" stroke-width="0.65" class="zr69-cls-820"></circle>
<circle cx="516.1" cy="216.2" r="7.6" fill="#3B6E9E" stroke="#ffffff" stroke-width="0.65" class="zr69-cls-820"></circle>
<polyline points="352.4 368.2 346.8 192.5" fill="none" pointer-events="visible" stroke="#3B6E9E" stroke-width="1.5" stroke-linejoin="round" class="zr69-cls-819"></polyline>
<circle cx="433.2" cy="232" r="7.6" fill="#3B6E9E" stroke="#ffffff" stroke-width="0.65" class="zr69-cls-820"></circle>
<polyline points="480 379.6 485.8 227.3" fill="none" pointer-events="visible" stroke="#3B6E9E" stroke-width="1.5" stroke-linejoin="round" class="zr69-cls-819"></polyline>
<circle cx="248.2" cy="74.5" r="7.6" fill="#3B6E9E" stroke="#ffffff" stroke-width="0.65" class="zr69-cls-820"></circle>
<polyline points="398.8 388.5 397.9 244.1" fill="none" pointer-events="visible" stroke="#3B6E9E" stroke-width="1.5" stroke-linejoin="round" class="zr69-cls-819"></polyline>
<circle cx="296" cy="117.3" r="7.6" fill="#3B6E9E" stroke="#ffffff" stroke-width="0.65" class="zr69-cls-820"></circle>
<circle cx="346.8" cy="192.5" r="7.6" fill="#3B6E9E" stroke="#ffffff" stroke-width="0.65" class="zr69-cls-820"></circle>
<circle cx="485.8" cy="227.3" r="7.6" fill="#3B6E9E" stroke="#ffffff" stroke-width="0.65" class="zr69-cls-820"></circle>
<circle cx="397.9" cy="244.1" r="7.6" fill="#3B6E9E" stroke="#ffffff" stroke-width="0.65" class="zr69-cls-820"></circle>
<polyline points="448.4 410.3 452 239.6" fill="none" pointer-events="visible" stroke="#3B6E9E" stroke-width="1.5" stroke-linejoin="round" class="zr69-cls-819"></polyline>
<circle cx="452" cy="239.6" r="7.6" fill="#3B6E9E" stroke="#ffffff" stroke-width="0.65" class="zr69-cls-820"></circle>
<path d="M229.2 314.1L448.4 410.3" fill="none" pointer-events="visible" stroke="#64748b" stroke-width="1.1" class="zr69-cls-821"></path>
<path d="M229.2 314.1L227.2 318.7" fill="none" pointer-events="visible" stroke="#64748b" class="zr69-cls-821"></path>
<path d="M267.9 331L265.8 335.6" fill="none" pointer-events="visible" stroke="#64748b" class="zr69-cls-821"></path>
<path d="M308.8 349L306.8 353.6" fill="none" pointer-events="visible" stroke="#64748b" class="zr69-cls-821"></path>
<path d="M352.4 368.2L350.4 372.7" fill="none" pointer-events="visible" stroke="#64748b" class="zr69-cls-821"></path>
<path d="M398.8 388.5L396.8 393.1" fill="none" pointer-events="visible" stroke="#64748b" class="zr69-cls-821"></path>
<path d="M448.4 410.3L446.4 414.8" fill="none" pointer-events="visible" stroke="#64748b" class="zr69-cls-821"></path>
<path d="M582.1 280.9L448.4 410.3" fill="none" pointer-events="visible" stroke="#64748b" stroke-width="1.1" class="zr69-cls-821"></path>
<path d="M582.1 280.9L585.5 284.5" fill="none" pointer-events="visible" stroke="#64748b" class="zr69-cls-821"></path>
<path d="M559.7 302.6L563.1 306.2" fill="none" pointer-events="visible" stroke="#64748b" class="zr69-cls-821"></path>
<path d="M535.3 326.1L538.8 329.7" fill="none" pointer-events="visible" stroke="#64748b" class="zr69-cls-821"></path>
<path d="M508.9 351.7L512.4 355.3" fill="none" pointer-events="visible" stroke="#64748b" class="zr69-cls-821"></path>
<path d="M480 379.6L483.5 383.2" fill="none" pointer-events="visible" stroke="#64748b" class="zr69-cls-821"></path>
<path d="M448.4 410.3L451.9 413.9" fill="none" pointer-events="visible" stroke="#64748b" class="zr69-cls-821"></path>
<path d="M229.2 314.1L205.1 63.7" fill="none" pointer-events="visible" stroke="#64748b" stroke-width="1.1" class="zr69-cls-821"></path>
<path d="M229.2 314.1L224.3 314.6" fill="none" pointer-events="visible" stroke="#64748b" class="zr69-cls-821"></path>
<path d="M217.9 196.7L212.9 197.2" fill="none" pointer-events="visible" stroke="#64748b" class="zr69-cls-821"></path>
<path d="M205.1 63.7L200.1 64.2" fill="none" pointer-events="visible" stroke="#64748b" class="zr69-cls-821"></path>
<path d="M0 0l287.6 0l0 32.7l-287.6 0Z" transform="translate(236.2045 12)" fill="none" pointer-events="visible" class="zr69-cls-821"></path>
<text dominant-baseline="central" text-anchor="start" style="font: 27.233986928104574px Arial" xml:space="preserve" y="16.340392156862745" transform="translate(236.2045 12)" fill="#172033">三维针状图 · 示例数据</text>
<path d="M0 0l214.8 0l0 17l-214.8 0Z" transform="translate(272.6042 474.0428)" fill="none" pointer-events="visible" class="zr69-cls-821"></path>
<text dominant-baseline="central" text-anchor="start" style="font: 14.131032679738563px Arial" xml:space="preserve" y="8.478619607843138" transform="translate(272.6042 474.0428)" fill="#64748b">透视投影 · 方位 35° / 仰角 25°</text>
<path d="M0 0l10.2 0l0 21.8l-10.2 0Z" transform="translate(216.0804 323.4075)" fill="none" pointer-events="visible" class="zr69-cls-821"></path>
<text dominant-baseline="central" text-anchor="start" style="font: 18.168470588235294px Arial" y="10.901082352941176" transform="translate(216.0804 323.4075)" fill="#475569">1</text>
<path d="M0 0l10.2 0l0 21.8l-10.2 0Z" transform="translate(254.6965 340.3529)" fill="none" pointer-events="visible" class="zr69-cls-821"></path>
<text dominant-baseline="central" text-anchor="start" style="font: 18.168470588235294px Arial" y="10.901082352941176" transform="translate(254.6965 340.3529)" fill="#475569">2</text>
<path d="M0 0l10.2 0l0 21.8l-10.2 0Z" transform="translate(295.6798 358.3369)" fill="none" pointer-events="visible" class="zr69-cls-821"></path>
<text dominant-baseline="central" text-anchor="start" style="font: 18.168470588235294px Arial" y="10.901082352941176" transform="translate(295.6798 358.3369)" fill="#475569">3</text>
<path d="M0 0l10.2 0l0 21.8l-10.2 0Z" transform="translate(339.2548 377.4583)" fill="none" pointer-events="visible" class="zr69-cls-821"></path>
<text dominant-baseline="central" text-anchor="start" style="font: 18.168470588235294px Arial" y="10.901082352941176" transform="translate(339.2548 377.4583)" fill="#475569">4</text>
<path d="M0 0l10.2 0l0 21.8l-10.2 0Z" transform="translate(385.6754 397.8283)" fill="none" pointer-events="visible" class="zr69-cls-821"></path>
<text dominant-baseline="central" text-anchor="start" style="font: 18.168470588235294px Arial" y="10.901082352941176" transform="translate(385.6754 397.8283)" fill="#475569">5</text>
<path d="M0 0l10.2 0l0 21.8l-10.2 0Z" transform="translate(435.2296 419.5735)" fill="none" pointer-events="visible" class="zr69-cls-821"></path>
<text dominant-baseline="central" text-anchor="start" style="font: 18.168470588235294px Arial" y="10.901082352941176" transform="translate(435.2296 419.5735)" fill="#475569">6</text>
<path d="M0 0l13.9 0l0 24.8l-13.9 0Z" transform="translate(307.6879 406.9698)" fill="none" pointer-events="visible" class="zr69-cls-821"></path>
<text dominant-baseline="central" text-anchor="start" style="font: 20.69186928104575px Arial" y="12.41512156862745" transform="translate(307.6879 406.9698)" fill="#172033">X</text>
<path d="M0 0l10.2 0l0 21.8l-10.2 0Z" transform="translate(596.0302 286.2731)" fill="none" pointer-events="visible" class="zr69-cls-821"></path>
<text dominant-baseline="central" text-anchor="start" style="font: 18.168470588235294px Arial" y="10.901082352941176" transform="translate(596.0302 286.2731)" fill="#475569">1</text>
<path d="M0 0l10.2 0l0 21.8l-10.2 0Z" transform="translate(573.6165 307.96)" fill="none" pointer-events="visible" class="zr69-cls-821"></path>
<text dominant-baseline="central" text-anchor="start" style="font: 18.168470588235294px Arial" y="10.901082352941176" transform="translate(573.6165 307.96)" fill="#475569">2</text>
<path d="M0 0l10.2 0l0 21.8l-10.2 0Z" transform="translate(549.315 331.4735)" fill="none" pointer-events="visible" class="zr69-cls-821"></path>
<text dominant-baseline="central" text-anchor="start" style="font: 18.168470588235294px Arial" y="10.901082352941176" transform="translate(549.315 331.4735)" fill="#475569">3</text>
<path d="M0 0l10.2 0l0 21.8l-10.2 0Z" transform="translate(522.8766 357.0547)" fill="none" pointer-events="visible" class="zr69-cls-821"></path>
<text dominant-baseline="central" text-anchor="start" style="font: 18.168470588235294px Arial" y="10.901082352941176" transform="translate(522.8766 357.0547)" fill="#475569">4</text>
<path d="M0 0l10.2 0l0 21.8l-10.2 0Z" transform="translate(494.0065 384.9887)" fill="none" pointer-events="visible" class="zr69-cls-821"></path>
<text dominant-baseline="central" text-anchor="start" style="font: 18.168470588235294px Arial" y="10.901082352941176" transform="translate(494.0065 384.9887)" fill="#475569">5</text>
<path d="M0 0l10.2 0l0 21.8l-10.2 0Z" transform="translate(462.353 415.6158)" fill="none" pointer-events="visible" class="zr69-cls-821"></path>
<text dominant-baseline="central" text-anchor="start" style="font: 18.168470588235294px Arial" y="10.901082352941176" transform="translate(462.353 415.6158)" fill="#475569">6</text>
<path d="M0 0l13.9 0l0 24.8l-13.9 0Z" transform="translate(548.9625 377.2803)" fill="none" pointer-events="visible" class="zr69-cls-821"></path>
<text dominant-baseline="central" text-anchor="start" style="font: 20.69186928104575px Arial" y="12.41512156862745" transform="translate(548.9625 377.2803)" fill="#172033">Y</text>
<path d="M0 0l10.2 0l0 21.8l-10.2 0Z" transform="translate(186.4132 308.1673)" fill="none" pointer-events="visible" class="zr69-cls-821"></path>
<text dominant-baseline="central" text-anchor="start" style="font: 18.168470588235294px Arial" y="10.901082352941176" transform="translate(186.4132 308.1673)" fill="#475569">0</text>
<path d="M0 0l35.6 0l0 21.8l-35.6 0Z" transform="translate(162.306 189.548)" fill="none" pointer-events="visible" class="zr69-cls-821"></path>
<text dominant-baseline="central" text-anchor="start" style="font: 18.168470588235294px Arial" y="10.901082352941176" transform="translate(162.306 189.548)" fill="#475569">2.25</text>
<path d="M0 0l25.4 0l0 21.8l-25.4 0Z" transform="translate(159.643 56.5358)" fill="none" pointer-events="visible" class="zr69-cls-821"></path>
<text dominant-baseline="central" text-anchor="start" style="font: 18.168470588235294px Arial" y="10.901082352941176" transform="translate(159.643 56.5358)" fill="#475569">4.5</text>
<path d="M0 0l12.6 0l0 24.8l-12.6 0Z" transform="translate(131.4794 186.2092)" fill="none" pointer-events="visible" class="zr69-cls-821"></path>
<text dominant-baseline="central" text-anchor="start" style="font: 20.69186928104575px Arial" y="12.41512156862745" transform="translate(131.4794 186.2092)" fill="#172033">Z</text>
<style ><![CDATA[
.zr69-cls-819:hover {
cursor:pointer;
}
.zr69-cls-820:hover {
cursor:pointer;
fill:rgba(64,121,173,1);
}
.zr69-cls-821:hover {
pointer-events:none;
}

]]>

</style>
</svg>