<svg width="760" height="500" xmlns="http://www.w3.org/2000/svg" xmlns:xlink="http://www.w3.org/1999/xlink" version="1.1" baseProfile="full" viewBox="0 0 760 500"><desc>三维饼图; independently rendered demonstration data; L1502 issue 71; independent web implementation</desc>
<rect width="760" height="500" x="0" y="0" fill="#ffffff"></rect>
<polygon points="393.5 187.2 393.4 129.4 408.5 129.5 408.4 187.3" fill="rgb(63,123,168)" stroke="rgb(63,123,168)" stroke-width="0.35" stroke-linejoin="round" class="zr113-cls-1714"></polygon>
<polygon points="378.6 187.5 378.4 129.7 393.4 129.4 393.5 187.2" fill="rgb(63,123,168)" stroke="rgb(63,123,168)" stroke-width="0.35" stroke-linejoin="round" class="zr113-cls-1714"></polygon>
<polygon points="408.4 187.3 408.5 129.5 423.6 129.9 423.3 187.7" fill="rgb(63,123,168)" stroke="rgb(63,123,168)" stroke-width="0.35" stroke-linejoin="round" class="zr113-cls-1714"></polygon>
<polygon points="363.7 188.1 363.3 130.3 378.4 129.7 378.6 187.5" fill="rgb(63,123,168)" stroke="rgb(63,123,168)" stroke-width="0.35" stroke-linejoin="round" class="zr113-cls-1714"></polygon>
<polygon points="423.3 187.7 423.6 129.9 438.6 130.7 438.1 188.5" fill="rgb(63,123,168)" stroke="rgb(63,123,168)" stroke-width="0.35" stroke-linejoin="round" class="zr113-cls-1714"></polygon>
<polygon points="348.9 189.1 348.4 131.3 363.3 130.3 363.7 188.1" fill="rgb(63,122,167)" stroke="rgb(63,122,167)" stroke-width="0.35" stroke-linejoin="round" class="zr113-cls-1715"></polygon>
<polygon points="438.1 188.5 438.6 130.7 453.5 131.8 452.9 189.7" fill="rgb(63,123,168)" stroke="rgb(63,123,168)" stroke-width="0.35" stroke-linejoin="round" class="zr113-cls-1714"></polygon>
<polygon points="334.3 190.5 333.6 132.6 348.4 131.3 348.9 189.1" fill="rgb(63,122,167)" stroke="rgb(63,122,167)" stroke-width="0.35" stroke-linejoin="round" class="zr113-cls-1715"></polygon>
<polygon points="452.9 189.7 453.5 131.8 468.2 133.2 467.4 191.2" fill="rgb(126,77,154)" stroke="rgb(126,77,154)" stroke-width="0.35" stroke-linejoin="round" class="zr113-cls-1716"></polygon>
<polygon points="319.9 192.2 319 134.2 333.6 132.6 334.3 190.5" fill="rgb(63,121,166)" stroke="rgb(63,121,166)" stroke-width="0.35" stroke-linejoin="round" class="zr113-cls-1717"></polygon>
<polygon points="467.4 191.2 468.2 133.2 482.7 135 481.8 193" fill="rgb(126,76,153)" stroke="rgb(126,76,153)" stroke-width="0.35" stroke-linejoin="round" class="zr113-cls-1718"></polygon>
<polygon points="305.7 194.2 304.6 136.2 319 134.2 319.9 192.2" fill="rgb(62,121,165)" stroke="rgb(62,121,165)" stroke-width="0.35" stroke-linejoin="round" class="zr113-cls-1719"></polygon>
<polygon points="481.8 193 482.7 135 497 137.1 495.9 195.3" fill="rgb(125,76,152)" stroke="rgb(125,76,152)" stroke-width="0.35" stroke-linejoin="round" class="zr113-cls-1720"></polygon>
<polygon points="291.7 196.6 290.5 138.5 304.6 136.2 305.7 194.2" fill="rgb(62,120,164)" stroke="rgb(62,120,164)" stroke-width="0.35" stroke-linejoin="round" class="zr113-cls-1721"></polygon>
<polygon points="495.9 195.3 497 137.1 510.9 139.6 509.7 197.8" fill="rgb(124,76,151)" stroke="rgb(124,76,151)" stroke-width="0.35" stroke-linejoin="round" class="zr113-cls-1722"></polygon>
<polygon points="278.1 199.4 276.7 141.1 290.5 138.5 291.7 196.6" fill="rgb(62,119,163)" stroke="rgb(62,119,163)" stroke-width="0.35" stroke-linejoin="round" class="zr113-cls-1723"></polygon>
<polygon points="509.7 197.8 510.9 139.6 524.5 142.3 523.1 200.7" fill="rgb(123,75,150)" stroke="rgb(123,75,150)" stroke-width="0.35" stroke-linejoin="round" class="zr113-cls-1724"></polygon>
<polygon points="264.8 202.5 263.3 144 276.7 141.1 278.1 199.4" fill="rgb(61,118,161)" stroke="rgb(61,118,161)" stroke-width="0.35" stroke-linejoin="round" class="zr113-cls-1725"></polygon>
<polygon points="523.1 200.7 524.5 142.3 537.8 145.4 536.2 204" fill="rgb(122,75,149)" stroke="rgb(122,75,149)" stroke-width="0.35" stroke-linejoin="round" class="zr113-cls-1726"></polygon>
<polygon points="251.9 205.9 250.3 147.3 263.3 144 264.8 202.5" fill="rgb(60,117,160)" stroke="rgb(60,117,160)" stroke-width="0.35" stroke-linejoin="round" class="zr113-cls-1727"></polygon>
<polygon points="536.2 204 537.8 145.4 550.6 148.8 548.9 207.5" fill="rgb(120,74,148)" stroke="rgb(120,74,148)" stroke-width="0.35" stroke-linejoin="round" class="zr113-cls-1728"></polygon>
<polygon points="397.6 225.3 203.1 163.3 214.1 158.9 225.6 154.7 237.7 150.9 250.3 147.3 263.3 144 276.7 141.1 290.5 138.5 304.6 136.2 319 134.2 333.6 132.6 348.4 131.3 363.3 130.3 378.4 129.7 393.4 129.4 408.5 129.5 423.6 129.9 438.6 130.7 453.5 131.8" fill="#4A93C7" stroke="#4A93C7" stroke-width="0.35" stroke-linejoin="round" class="zr113-cls-1729"></polygon>
<polygon points="239.5 209.6 237.7 150.9 250.3 147.3 251.9 205.9" fill="rgb(60,115,158)" stroke="rgb(60,115,158)" stroke-width="0.35" stroke-linejoin="round" class="zr113-cls-1730"></polygon>
<polygon points="548.9 207.5 550.6 148.8 563 152.5 561.1 211.4" fill="rgb(119,73,146)" stroke="rgb(119,73,146)" stroke-width="0.35" stroke-linejoin="round" class="zr113-cls-1731"></polygon>
<polygon points="227.6 213.7 225.6 154.7 237.7 150.9 239.5 209.6" fill="rgb(59,114,156)" stroke="rgb(59,114,156)" stroke-width="0.35" stroke-linejoin="round" class="zr113-cls-1732"></polygon>
<polygon points="561.1 211.4 563 152.5 574.8 156.5 572.8 215.6" fill="rgb(117,73,145)" stroke="rgb(117,73,145)" stroke-width="0.35" stroke-linejoin="round" class="zr113-cls-1733"></polygon>
<polygon points="216.2 218.1 214.1 158.9 225.6 154.7 227.6 213.7" fill="rgb(59,112,154)" stroke="rgb(59,112,154)" stroke-width="0.35" stroke-linejoin="round" class="zr113-cls-1734"></polygon>
<polygon points="572.8 215.6 574.8 156.5 586.1 160.8 584 220.1" fill="rgb(116,72,143)" stroke="rgb(116,72,143)" stroke-width="0.35" stroke-linejoin="round" class="zr113-cls-1735"></polygon>
<polygon points="205.3 222.7 203.1 163.3 214.1 158.9 216.2 218.1" fill="rgb(58,111,152)" stroke="rgb(58,111,152)" stroke-width="0.35" stroke-linejoin="round" class="zr113-cls-1736"></polygon>
<polygon points="397.6 225.3 453.5 131.8 468.2 133.2 482.7 135 497 137.1 510.9 139.6 524.5 142.3 537.8 145.4 550.6 148.8 563 152.5 574.8 156.5 586.1 160.8 596.8 165.4 606.9 170.2 616.3 175.3 624.9 180.7" fill="#9B59B6" stroke="#9B59B6" stroke-width="0.35" stroke-linejoin="round" class="zr113-cls-1737"></polygon>
<polygon points="584 220.1 586.1 160.8 596.8 165.4 594.6 224.9" fill="rgb(114,71,141)" stroke="rgb(114,71,141)" stroke-width="0.35" stroke-linejoin="round" class="zr113-cls-1738"></polygon>
<polygon points="195.1 227.7 192.8 168.1 203.1 163.3 205.3 222.7" fill="rgb(168,103,57)" stroke="rgb(168,103,57)" stroke-width="0.35" stroke-linejoin="round" class="zr113-cls-1739"></polygon>
<polygon points="594.6 224.9 596.8 165.4 606.9 170.2 604.5 230" fill="rgb(112,70,139)" stroke="rgb(112,70,139)" stroke-width="0.35" stroke-linejoin="round" class="zr113-cls-1740"></polygon>
<polygon points="185.6 232.9 183.1 173 192.8 168.1 195.1 227.7" fill="rgb(165,101,57)" stroke="rgb(165,101,57)" stroke-width="0.35" stroke-linejoin="round" class="zr113-cls-1741"></polygon>
<polygon points="604.5 230 606.9 170.2 616.3 175.3 613.7 235.3" fill="rgb(110,70,137)" stroke="rgb(110,70,137)" stroke-width="0.35" stroke-linejoin="round" class="zr113-cls-1742"></polygon>
<polygon points="176.7 238.4 174.1 178.3 183.1 173 185.6 232.9" fill="rgb(162,100,57)" stroke="rgb(162,100,57)" stroke-width="0.35" stroke-linejoin="round" class="zr113-cls-1743"></polygon>
<polygon points="397.6 287.6 452.9 189.7 453.5 131.8 397.6 225.3" fill="rgb(52,97,134)" stroke="rgb(52,97,134)" stroke-width="0.35" stroke-linejoin="round" class="zr113-cls-1744"></polygon>
<polygon points="397.6 287.6 397.6 225.3 453.5 131.8 452.9 189.7" fill="rgb(97,64,125)" stroke="rgb(97,64,125)" stroke-width="0.35" stroke-linejoin="round" class="zr113-cls-1745"></polygon>
<polygon points="613.7 235.3 616.3 175.3 624.9 180.7 622.3 240.9" fill="rgb(108,69,135)" stroke="rgb(108,69,135)" stroke-width="0.35" stroke-linejoin="round" class="zr113-cls-1746"></polygon>
<polygon points="168.6 244.1 165.9 183.7 174.1 178.3 176.7 238.4" fill="rgb(158,98,57)" stroke="rgb(158,98,57)" stroke-width="0.35" stroke-linejoin="round" class="zr113-cls-1747"></polygon>
<polygon points="622.3 240.9 624.9 180.7 632.8 186.2 630 246.7" fill="rgb(145,64,69)" stroke="rgb(145,64,69)" stroke-width="0.35" stroke-linejoin="round" class="zr113-cls-1748"></polygon>
<polygon points="161.3 250.1 158.5 189.4 165.9 183.7 168.6 244.1" fill="rgb(154,96,56)" stroke="rgb(154,96,56)" stroke-width="0.35" stroke-linejoin="round" class="zr113-cls-1749"></polygon>
<polygon points="630 246.7 632.8 186.2 639.8 192 637 252.8" fill="rgb(141,63,68)" stroke="rgb(141,63,68)" stroke-width="0.35" stroke-linejoin="round" class="zr113-cls-1750"></polygon>
<polygon points="154.8 256.2 151.9 195.3 158.5 189.4 161.3 250.1" fill="rgb(151,94,56)" stroke="rgb(151,94,56)" stroke-width="0.35" stroke-linejoin="round" class="zr113-cls-1751"></polygon>
<polygon points="397.6 287.6 205.3 222.7 203.1 163.3 397.6 225.3" fill="rgb(182,110,58)" stroke="rgb(182,110,58)" stroke-width="0.35" stroke-linejoin="round" class="zr113-cls-1752"></polygon>
<polygon points="397.6 287.6 397.6 225.3 203.1 163.3 205.3 222.7" fill="rgb(60,116,159)" stroke="rgb(60,116,159)" stroke-width="0.35" stroke-linejoin="round" class="zr113-cls-1753"></polygon>
<polygon points="637 252.8 639.8 192 646 198 643.1 259" fill="rgb(138,62,68)" stroke="rgb(138,62,68)" stroke-width="0.35" stroke-linejoin="round" class="zr113-cls-1754"></polygon>
<polygon points="149.1 262.6 146.2 201.4 151.9 195.3 154.8 256.2" fill="rgb(147,92,56)" stroke="rgb(147,92,56)" stroke-width="0.35" stroke-linejoin="round" class="zr113-cls-1755"></polygon>
<polygon points="643.1 259 646 198 651.4 204.1 648.4 265.5" fill="rgb(135,61,67)" stroke="rgb(135,61,67)" stroke-width="0.35" stroke-linejoin="round" class="zr113-cls-1756"></polygon>
<polygon points="397.6 287.6 622.3 240.9 624.9 180.7 397.6 225.3" fill="rgb(123,75,150)" stroke="rgb(123,75,150)" stroke-width="0.35" stroke-linejoin="round" class="zr113-cls-1724"></polygon>
<polygon points="397.6 287.6 397.6 225.3 624.9 180.7 622.3 240.9" fill="rgb(170,71,72)" stroke="rgb(170,71,72)" stroke-width="0.35" stroke-linejoin="round" class="zr113-cls-1757"></polygon>
<polygon points="144.4 269.1 141.3 207.6 146.2 201.4 149.1 262.6" fill="rgb(143,91,56)" stroke="rgb(143,91,56)" stroke-width="0.35" stroke-linejoin="round" class="zr113-cls-1758"></polygon>
<polygon points="648.4 265.5 651.4 204.1 655.8 210.4 652.7 272.1" fill="rgb(131,60,67)" stroke="rgb(131,60,67)" stroke-width="0.35" stroke-linejoin="round" class="zr113-cls-1759"></polygon>
<polygon points="140.6 275.8 137.5 214 141.3 207.6 144.4 269.1" fill="rgb(139,89,56)" stroke="rgb(139,89,56)" stroke-width="0.35" stroke-linejoin="round" class="zr113-cls-1760"></polygon>
<polygon points="652.7 272.1 655.8 210.4 659.2 216.9 656.1 278.8" fill="rgb(128,60,66)" stroke="rgb(128,60,66)" stroke-width="0.35" stroke-linejoin="round" class="zr113-cls-1761"></polygon>
<polygon points="137.7 282.6 134.6 220.5 137.5 214 140.6 275.8" fill="rgb(135,87,56)" stroke="rgb(135,87,56)" stroke-width="0.35" stroke-linejoin="round" class="zr113-cls-1762"></polygon>
<polygon points="656.1 278.8 659.2 216.9 661.7 223.4 658.5 285.7" fill="rgb(124,59,66)" stroke="rgb(124,59,66)" stroke-width="0.35" stroke-linejoin="round" class="zr113-cls-1763"></polygon>
<polygon points="397.6 225.3 624.9 180.7 632.8 186.2 639.8 192 646 198 651.4 204.1 655.8 210.4 659.2 216.9 661.7 223.4 663.1 230.1 663.5 236.8 662.9 243.6 661.1 250.3" fill="#D9534F" stroke="#D9534F" stroke-width="0.35" stroke-linejoin="round" class="zr113-cls-1764"></polygon>
<polygon points="135.9 289.5 132.7 227.1 134.6 220.5 137.7 282.6" fill="rgb(132,85,56)" stroke="rgb(132,85,56)" stroke-width="0.35" stroke-linejoin="round" class="zr113-cls-1765"></polygon>
<polygon points="658.5 285.7 661.7 223.4 663.1 230.1 659.9 292.6" fill="rgb(121,58,65)" stroke="rgb(121,58,65)" stroke-width="0.35" stroke-linejoin="round" class="zr113-cls-1766"></polygon>
<polygon points="135 296.5 131.8 233.8 132.7 227.1 135.9 289.5" fill="rgb(136,87,56)" stroke="rgb(136,87,56)" stroke-width="0.35" stroke-linejoin="round" class="zr113-cls-1767"></polygon>
<polygon points="397.6 225.3 182.7 298.8 172.7 292.9 163.8 286.8 156 280.5 149.2 274 143.6 267.5 139 260.8 135.6 254.1 133.2 247.3 132 240.5 131.8 233.8 132.7 227.1 134.6 220.5 137.5 214 141.3 207.6 146.2 201.4 151.9 195.3 158.5 189.4 165.9 183.7 174.1 178.3 183.1 173 192.8 168.1 203.1 163.3" fill="#F08A3C" stroke="#F08A3C" stroke-width="0.35" stroke-linejoin="round" class="zr113-cls-1768"></polygon>
<polygon points="659.9 292.6 663.1 230.1 663.5 236.8 660.3 299.7" fill="rgb(123,58,65)" stroke="rgb(123,58,65)" stroke-width="0.35" stroke-linejoin="round" class="zr113-cls-1769"></polygon>
<polygon points="135.2 303.6 132 240.5 131.8 233.8 135 296.5" fill="rgb(140,89,56)" stroke="rgb(140,89,56)" stroke-width="0.35" stroke-linejoin="round" class="zr113-cls-1770"></polygon>
<polygon points="397.6 287.6 657.9 313.8 661.1 250.3 397.6 225.3" fill="rgb(175,72,73)" stroke="rgb(175,72,73)" stroke-width="0.35" stroke-linejoin="round" class="zr113-cls-1771"></polygon>
<polygon points="397.6 287.6 397.6 225.3 661.1 250.3 657.9 313.8" fill="rgb(187,140,29)" stroke="rgb(187,140,29)" stroke-width="0.35" stroke-linejoin="round" class="zr113-cls-1772"></polygon>
<polygon points="660.3 299.7 663.5 236.8 662.9 243.6 659.6 306.7" fill="rgb(127,59,66)" stroke="rgb(127,59,66)" stroke-width="0.35" stroke-linejoin="round" class="zr113-cls-1773"></polygon>
<polygon points="136.5 310.7 133.2 247.3 132 240.5 135.2 303.6" fill="rgb(144,91,56)" stroke="rgb(144,91,56)" stroke-width="0.35" stroke-linejoin="round" class="zr113-cls-1774"></polygon>
<polygon points="659.6 306.7 662.9 243.6 661.1 250.3 657.9 313.8" fill="rgb(130,60,66)" stroke="rgb(130,60,66)" stroke-width="0.35" stroke-linejoin="round" class="zr113-cls-1775"></polygon>
<polygon points="138.8 317.7 135.6 254.1 133.2 247.3 136.5 310.7" fill="rgb(148,93,56)" stroke="rgb(148,93,56)" stroke-width="0.35" stroke-linejoin="round" class="zr113-cls-1776"></polygon>
<polygon points="657.9 313.8 661.1 250.3 658.3 257.1 655.1 320.9" fill="rgb(142,110,35)" stroke="rgb(142,110,35)" stroke-width="0.35" stroke-linejoin="round" class="zr113-cls-1777"></polygon>
<polygon points="397.6 287.6 624.7 354.8 627.6 289.5 397.6 225.3" fill="rgb(178,134,30)" stroke="rgb(178,134,30)" stroke-width="0.35" stroke-linejoin="round" class="zr113-cls-1778"></polygon>
<polygon points="397.6 287.6 397.6 225.3 627.6 289.5 624.7 354.8" fill="rgb(53,131,80)" stroke="rgb(53,131,80)" stroke-width="0.35" stroke-linejoin="round" class="zr113-cls-1779"></polygon>
<polygon points="142.2 324.8 139 260.8 135.6 254.1 138.8 317.7" fill="rgb(152,95,56)" stroke="rgb(152,95,56)" stroke-width="0.35" stroke-linejoin="round" class="zr113-cls-1780"></polygon>
<polygon points="655.1 320.9 658.3 257.1 654.4 263.8 651.2 327.9" fill="rgb(146,113,35)" stroke="rgb(146,113,35)" stroke-width="0.35" stroke-linejoin="round" class="zr113-cls-1781"></polygon>
<polygon points="397.6 287.6 185.4 364.5 182.7 298.8 397.6 225.3" fill="rgb(52,127,79)" stroke="rgb(52,127,79)" stroke-width="0.35" stroke-linejoin="round" class="zr113-cls-1782"></polygon>
<polygon points="397.6 287.6 397.6 225.3 182.7 298.8 185.4 364.5" fill="rgb(179,108,57)" stroke="rgb(179,108,57)" stroke-width="0.35" stroke-linejoin="round" class="zr113-cls-1783"></polygon>
<polygon points="146.8 331.8 143.6 267.5 139 260.8 142.2 324.8" fill="rgb(155,97,56)" stroke="rgb(155,97,56)" stroke-width="0.35" stroke-linejoin="round" class="zr113-cls-1784"></polygon>
<polygon points="651.2 327.9 654.4 263.8 649.3 270.4 646.2 334.8" fill="rgb(149,115,34)" stroke="rgb(149,115,34)" stroke-width="0.35" stroke-linejoin="round" class="zr113-cls-1785"></polygon>
<polygon points="152.4 338.6 149.2 274 143.6 267.5 146.8 331.8" fill="rgb(159,98,57)" stroke="rgb(159,98,57)" stroke-width="0.35" stroke-linejoin="round" class="zr113-cls-1786"></polygon>
<polygon points="397.6 225.3 661.1 250.3 658.3 257.1 654.4 263.8 649.3 270.4 643.2 276.9 636 283.3 627.6 289.5" fill="#E8A917" stroke="#E8A917" stroke-width="0.35" stroke-linejoin="round" class="zr113-cls-1787"></polygon>
<polygon points="646.2 334.8 649.3 270.4 643.2 276.9 640.1 341.6" fill="rgb(153,117,34)" stroke="rgb(153,117,34)" stroke-width="0.35" stroke-linejoin="round" class="zr113-cls-1788"></polygon>
<polygon points="159 345.4 156 280.5 149.2 274 152.4 338.6" fill="rgb(163,100,57)" stroke="rgb(163,100,57)" stroke-width="0.35" stroke-linejoin="round" class="zr113-cls-1789"></polygon>
<polygon points="640.1 341.6 643.2 276.9 636 283.3 632.9 348.3" fill="rgb(156,119,33)" stroke="rgb(156,119,33)" stroke-width="0.35" stroke-linejoin="round" class="zr113-cls-1790"></polygon>
<polygon points="166.8 351.9 163.8 286.8 156 280.5 159 345.4" fill="rgb(166,102,57)" stroke="rgb(166,102,57)" stroke-width="0.35" stroke-linejoin="round" class="zr113-cls-1791"></polygon>
<polygon points="632.9 348.3 636 283.3 627.6 289.5 624.7 354.8" fill="rgb(160,122,33)" stroke="rgb(160,122,33)" stroke-width="0.35" stroke-linejoin="round" class="zr113-cls-1792"></polygon>
<polygon points="175.6 358.3 172.7 292.9 163.8 286.8 166.8 351.9" fill="rgb(169,103,57)" stroke="rgb(169,103,57)" stroke-width="0.35" stroke-linejoin="round" class="zr113-cls-1793"></polygon>
<polygon points="624.7 354.8 627.6 289.5 617.9 295.7 615.1 361.3" fill="rgb(50,121,77)" stroke="rgb(50,121,77)" stroke-width="0.35" stroke-linejoin="round" class="zr113-cls-1794"></polygon>
<polygon points="185.4 364.5 182.7 298.8 172.7 292.9 175.6 358.3" fill="rgb(172,105,57)" stroke="rgb(172,105,57)" stroke-width="0.35" stroke-linejoin="round" class="zr113-cls-1795"></polygon>
<polygon points="615.1 361.3 617.9 295.7 607.1 301.7 604.4 367.5" fill="rgb(50,123,78)" stroke="rgb(50,123,78)" stroke-width="0.35" stroke-linejoin="round" class="zr113-cls-1796"></polygon>
<polygon points="196.7 370.6 194.1 304.6 182.7 298.8 185.4 364.5" fill="rgb(51,125,78)" stroke="rgb(51,125,78)" stroke-width="0.35" stroke-linejoin="round" class="zr113-cls-1797"></polygon>
<polygon points="604.4 367.5 607.1 301.7 595.2 307.4 592.6 373.5" fill="rgb(51,125,78)" stroke="rgb(51,125,78)" stroke-width="0.35" stroke-linejoin="round" class="zr113-cls-1797"></polygon>
<polygon points="209 376.3 206.5 310.1 194.1 304.6 196.7 370.6" fill="rgb(52,127,79)" stroke="rgb(52,127,79)" stroke-width="0.35" stroke-linejoin="round" class="zr113-cls-1782"></polygon>
<polygon points="592.6 373.5 595.2 307.4 582.2 312.8 579.8 379.1" fill="rgb(52,127,79)" stroke="rgb(52,127,79)" stroke-width="0.35" stroke-linejoin="round" class="zr113-cls-1782"></polygon>
<polygon points="222.2 381.8 219.9 315.3 206.5 310.1 209 376.3" fill="rgb(52,129,79)" stroke="rgb(52,129,79)" stroke-width="0.35" stroke-linejoin="round" class="zr113-cls-1798"></polygon>
<polygon points="579.8 379.1 582.2 312.8 568.3 317.8 566.1 384.3" fill="rgb(52,128,79)" stroke="rgb(52,128,79)" stroke-width="0.35" stroke-linejoin="round" class="zr113-cls-1799"></polygon>
<polygon points="236.4 386.8 234.3 320.1 219.9 315.3 222.2 381.8" fill="rgb(53,130,80)" stroke="rgb(53,130,80)" stroke-width="0.35" stroke-linejoin="round" class="zr113-cls-1800"></polygon>
<polygon points="566.1 384.3 568.3 317.8 553.5 322.4 551.5 389.2" fill="rgb(52,130,80)" stroke="rgb(52,130,80)" stroke-width="0.35" stroke-linejoin="round" class="zr113-cls-1801"></polygon>
<polygon points="251.5 391.4 249.5 324.6 234.3 320.1 236.4 386.8" fill="rgb(53,132,80)" stroke="rgb(53,132,80)" stroke-width="0.35" stroke-linejoin="round" class="zr113-cls-1802"></polygon>
<polygon points="551.5 389.2 553.5 322.4 537.9 326.6 536 393.5" fill="rgb(53,131,80)" stroke="rgb(53,131,80)" stroke-width="0.35" stroke-linejoin="round" class="zr113-cls-1779"></polygon>
<polygon points="267.3 395.6 265.6 328.5 249.5 324.6 251.5 391.4" fill="rgb(53,133,81)" stroke="rgb(53,133,81)" stroke-width="0.35" stroke-linejoin="round" class="zr113-cls-1803"></polygon>
<polygon points="397.6 225.3 627.6 289.5 617.9 295.7 607.1 301.7 595.2 307.4 582.2 312.8 568.3 317.8 553.5 322.4 537.9 326.6 521.5 330.4 504.4 333.7 486.7 336.5 468.5 338.8 449.9 340.5 431.1 341.8 412 342.5 392.9 342.6 373.8 342.2 354.8 341.2 336 339.7 317.7 337.7 299.7 335.1 282.3 332.1 265.6 328.5 249.5 324.6 234.3 320.1 219.9 315.3 206.5 310.1 194.1 304.6 182.7 298.8" fill="#3FA55A" stroke="#3FA55A" stroke-width="0.35" stroke-linejoin="round" class="zr113-cls-1804"></polygon>
<polygon points="536 393.5 537.9 326.6 521.5 330.4 519.8 397.5" fill="rgb(53,133,81)" stroke="rgb(53,133,81)" stroke-width="0.35" stroke-linejoin="round" class="zr113-cls-1803"></polygon>
<polygon points="283.9 399.3 282.3 332.1 265.6 328.5 267.3 395.6" fill="rgb(54,134,81)" stroke="rgb(54,134,81)" stroke-width="0.35" stroke-linejoin="round" class="zr113-cls-1805"></polygon>
<polygon points="519.8 397.5 521.5 330.4 504.4 333.7 502.9 400.9" fill="rgb(54,134,81)" stroke="rgb(54,134,81)" stroke-width="0.35" stroke-linejoin="round" class="zr113-cls-1805"></polygon>
<polygon points="301 402.5 299.7 335.1 282.3 332.1 283.9 399.3" fill="rgb(54,135,81)" stroke="rgb(54,135,81)" stroke-width="0.35" stroke-linejoin="round" class="zr113-cls-1806"></polygon>
<polygon points="502.9 400.9 504.4 333.7 486.7 336.5 485.5 403.9" fill="rgb(54,135,81)" stroke="rgb(54,135,81)" stroke-width="0.35" stroke-linejoin="round" class="zr113-cls-1806"></polygon>
<polygon points="318.7 405.1 317.7 337.7 299.7 335.1 301 402.5" fill="rgb(54,136,81)" stroke="rgb(54,136,81)" stroke-width="0.35" stroke-linejoin="round" class="zr113-cls-1807"></polygon>
<polygon points="485.5 403.9 486.7 336.5 468.5 338.8 467.6 406.3" fill="rgb(54,136,81)" stroke="rgb(54,136,81)" stroke-width="0.35" stroke-linejoin="round" class="zr113-cls-1807"></polygon>
<polygon points="336.9 407.3 336 339.7 317.7 337.7 318.7 405.1" fill="rgb(54,136,82)" stroke="rgb(54,136,82)" stroke-width="0.35" stroke-linejoin="round" class="zr113-cls-1808"></polygon>
<polygon points="467.6 406.3 468.5 338.8 449.9 340.5 449.2 408.1" fill="rgb(54,136,82)" stroke="rgb(54,136,82)" stroke-width="0.35" stroke-linejoin="round" class="zr113-cls-1808"></polygon>
<polygon points="355.4 408.8 354.8 341.2 336 339.7 336.9 407.3" fill="rgb(55,137,82)" stroke="rgb(55,137,82)" stroke-width="0.35" stroke-linejoin="round" class="zr113-cls-1809"></polygon>
<polygon points="449.2 408.1 449.9 340.5 431.1 341.8 430.6 409.4" fill="rgb(55,137,82)" stroke="rgb(55,137,82)" stroke-width="0.35" stroke-linejoin="round" class="zr113-cls-1809"></polygon>
<polygon points="374.1 409.8 373.8 342.2 354.8 341.2 355.4 408.8" fill="rgb(55,137,82)" stroke="rgb(55,137,82)" stroke-width="0.35" stroke-linejoin="round" class="zr113-cls-1809"></polygon>
<polygon points="430.6 409.4 431.1 341.8 412 342.5 411.8 410.1" fill="rgb(55,137,82)" stroke="rgb(55,137,82)" stroke-width="0.35" stroke-linejoin="round" class="zr113-cls-1809"></polygon>
<polygon points="392.9 410.3 392.9 342.6 373.8 342.2 374.1 409.8" fill="rgb(55,137,82)" stroke="rgb(55,137,82)" stroke-width="0.35" stroke-linejoin="round" class="zr113-cls-1809"></polygon>
<polygon points="411.8 410.1 412 342.5 392.9 342.6 392.9 410.3" fill="rgb(55,137,82)" stroke="rgb(55,137,82)" stroke-width="0.35" stroke-linejoin="round" class="zr113-cls-1809"></polygon>
<path d="M0 0l260.4 0l0 32.7l-260.4 0Z" transform="translate(249.8215 12)" fill="none" pointer-events="visible" class="zr113-cls-1810"></path>
<text dominant-baseline="central" text-anchor="start" style="font: 27.233986928104574px Arial" xml:space="preserve" y="16.340392156862745" transform="translate(249.8215 12)" fill="#172033">三维饼图 · 示例数据</text>
<path d="M20 55.7l14 0l0 7l-14 0Z" fill="#3FA55A" class="zr113-cls-1810"></path>
<path d="M0 0l188.1 0l0 24.8l-188.1 0Z" transform="translate(41 52.6808)" fill="none" pointer-events="visible" class="zr113-cls-1810"></path>
<text dominant-baseline="central" text-anchor="start" style="font: 20.69186928104575px Arial" xml:space="preserve" y="12.41512156862745" transform="translate(41 52.6808)" fill="#334155">Component A (29%)</text>
<path d="M252.1 55.7l14 0l0 7l-14 0Z" fill="#F08A3C" class="zr113-cls-1810"></path>
<path d="M0 0l188.1 0l0 24.8l-188.1 0Z" transform="translate(273.0891 52.6808)" fill="none" pointer-events="visible" class="zr113-cls-1810"></path>
<text dominant-baseline="central" text-anchor="start" style="font: 20.69186928104575px Arial" xml:space="preserve" y="12.41512156862745" transform="translate(273.0891 52.6808)" fill="#334155">Component B (22%)</text>
<path d="M484.2 55.7l14 0l0 7l-14 0Z" fill="#4A93C7" class="zr113-cls-1810"></path>
<path d="M0 0l189.1 0l0 24.8l-189.1 0Z" transform="translate(505.1782 52.6808)" fill="none" pointer-events="visible" class="zr113-cls-1810"></path>
<text dominant-baseline="central" text-anchor="start" style="font: 20.69186928104575px Arial" xml:space="preserve" y="12.41512156862745" transform="translate(505.1782 52.6808)" fill="#334155">Component C (18%)</text>
<path d="M20 87.5l14 0l0 7l-14 0Z" fill="#9B59B6" class="zr113-cls-1810"></path>
<path d="M0 0l189.1 0l0 24.8l-189.1 0Z" transform="translate(41 84.511)" fill="none" pointer-events="visible" class="zr113-cls-1810"></path>
<text dominant-baseline="central" text-anchor="start" style="font: 20.69186928104575px Arial" xml:space="preserve" y="12.41512156862745" transform="translate(41 84.511)" fill="#334155">Component D (14%)</text>
<path d="M253.1 87.5l14 0l0 7l-14 0Z" fill="#D9534F" class="zr113-cls-1810"></path>
<path d="M0 0l188.1 0l0 24.8l-188.1 0Z" transform="translate(274.1237 84.511)" fill="none" pointer-events="visible" class="zr113-cls-1810"></path>
<text dominant-baseline="central" text-anchor="start" style="font: 20.69186928104575px Arial" xml:space="preserve" y="12.41512156862745" transform="translate(274.1237 84.511)" fill="#334155">Component E (11%)</text>
<path d="M485.2 87.5l14 0l0 7l-14 0Z" fill="#E8A917" class="zr113-cls-1810"></path>
<path d="M0 0l175.3 0l0 24.8l-175.3 0Z" transform="translate(506.2128 84.511)" fill="none" pointer-events="visible" class="zr113-cls-1810"></path>
<text dominant-baseline="central" text-anchor="start" style="font: 20.69186928104575px Arial" xml:space="preserve" y="12.41512156862745" transform="translate(506.2128 84.511)" fill="#334155">Component F (6%)</text>
<path d="M0 0l572.4 0l0 17l-572.4 0Z" transform="translate(93.7759 474.0428)" fill="none" pointer-events="visible" class="zr113-cls-1810"></path>
<text dominant-baseline="central" text-anchor="start" style="font: 14.131032679738563px Arial" xml:space="preserve" y="8.478619607843138" transform="translate(93.7759 474.0428)" fill="#64748b">透视投影 · 方位 35° / 仰角 25° · 合计 100 · 厚度为显示几何，扇区角度严格按 Y 比例</text>
<path d="M0 0l48.7 0l0 29.1l-48.7 0Z" transform="translate(411.4835 266.5805)" fill="none" pointer-events="visible" class="zr113-cls-1810"></path>
<text dominant-baseline="central" text-anchor="start" style="font: 24.233986928104574px Arial" y="14.540392156862744" transform="translate(411.4835 266.5805)" fill="#172033">29%</text>
<path d="M0 0l48.7 0l0 29.1l-48.7 0Z" transform="translate(233.0834 195.7922)" fill="none" pointer-events="visible" class="zr113-cls-1810"></path>
<text dominant-baseline="central" text-anchor="start" style="font: 24.233986928104574px Arial" y="14.540392156862744" transform="translate(233.0834 195.7922)" fill="#172033">22%</text>
<path d="M0 0l48.7 0l0 29.1l-48.7 0Z" transform="translate(350.6629 134.5463)" fill="none" pointer-events="visible" class="zr113-cls-1810"></path>
<text dominant-baseline="central" text-anchor="start" style="font: 24.233986928104574px Arial" y="14.540392156862744" transform="translate(350.6629 134.5463)" fill="#172033">18%</text>
<path d="M0 0l48.7 0l0 29.1l-48.7 0Z" transform="translate(503.2424 144.4647)" fill="none" pointer-events="visible" class="zr113-cls-1810"></path>
<text dominant-baseline="central" text-anchor="start" style="font: 24.233986928104574px Arial" y="14.540392156862744" transform="translate(503.2424 144.4647)" fill="#172033">14%</text>
<path d="M0 0l48.7 0l0 29.1l-48.7 0Z" transform="translate(569.7703 187.1544)" fill="none" pointer-events="visible" class="zr113-cls-1810"></path>
<text dominant-baseline="central" text-anchor="start" style="font: 24.233986928104574px Arial" y="14.540392156862744" transform="translate(569.7703 187.1544)" fill="#172033">11%</text>
<path d="M0 0l35.1 0l0 29.1l-35.1 0Z" transform="translate(561.3419 222.997)" fill="none" pointer-events="visible" class="zr113-cls-1810"></path>
<text dominant-baseline="central" text-anchor="start" style="font: 24.233986928104574px Arial" y="14.540392156862744" transform="translate(561.3419 222.997)" fill="#172033">6%</text>
<style ><![CDATA[
.zr113-cls-1714:hover {
cursor:pointer;
fill:rgba(69,135,184,1);
}
.zr113-cls-1715:hover {
cursor:pointer;
fill:rgba(69,134,183,1);
}
.zr113-cls-1716:hover {
cursor:pointer;
fill:rgba(138,84,169,1);
}
.zr113-cls-1717:hover {
cursor:pointer;
fill:rgba(69,133,182,1);
}
.zr113-cls-1718:hover {
cursor:pointer;
fill:rgba(138,83,168,1);
}
.zr113-cls-1719:hover {
cursor:pointer;
fill:rgba(68,133,181,1);
}
.zr113-cls-1720:hover {
cursor:pointer;
fill:rgba(137,83,167,1);
}
.zr113-cls-1721:hover {
cursor:pointer;
fill:rgba(68,132,180,1);
}
.zr113-cls-1722:hover {
cursor:pointer;
fill:rgba(136,83,166,1);
}
.zr113-cls-1723:hover {
cursor:pointer;
fill:rgba(68,130,179,1);
}
.zr113-cls-1724:hover {
cursor:pointer;
fill:rgba(135,82,165,1);
}
.zr113-cls-1725:hover {
cursor:pointer;
fill:rgba(67,129,177,1);
}
.zr113-cls-1726:hover {
cursor:pointer;
fill:rgba(134,82,163,1);
}
.zr113-cls-1727:hover {
cursor:pointer;
fill:rgba(66,128,176,1);
}
.zr113-cls-1728:hover {
cursor:pointer;
fill:rgba(132,81,162,1);
}
.zr113-cls-1729:hover {
cursor:pointer;
fill:rgba(81,161,218,1);
}
.zr113-cls-1730:hover {
cursor:pointer;
fill:rgba(66,126,173,1);
}
.zr113-cls-1731:hover {
cursor:pointer;
fill:rgba(130,80,160,1);
}
.zr113-cls-1732:hover {
cursor:pointer;
fill:rgba(64,125,171,1);
}
.zr113-cls-1733:hover {
cursor:pointer;
fill:rgba(128,80,159,1);
}
.zr113-cls-1734:hover {
cursor:pointer;
fill:rgba(64,123,169,1);
}
.zr113-cls-1735:hover {
cursor:pointer;
fill:rgba(127,79,157,1);
}
.zr113-cls-1736:hover {
cursor:pointer;
fill:rgba(63,122,167,1);
}
.zr113-cls-1737:hover {
cursor:pointer;
fill:rgba(170,97,200,1);
}
.zr113-cls-1738:hover {
cursor:pointer;
fill:rgba(125,78,155,1);
}
.zr113-cls-1739:hover {
cursor:pointer;
fill:rgba(184,113,62,1);
}
.zr113-cls-1740:hover {
cursor:pointer;
fill:rgba(123,77,152,1);
}
.zr113-cls-1741:hover {
cursor:pointer;
fill:rgba(181,111,62,1);
}
.zr113-cls-1742:hover {
cursor:pointer;
fill:rgba(121,77,150,1);
}
.zr113-cls-1743:hover {
cursor:pointer;
fill:rgba(178,110,62,1);
}
.zr113-cls-1744:hover {
cursor:pointer;
fill:rgba(57,106,147,1);
}
.zr113-cls-1745:hover {
cursor:pointer;
fill:rgba(106,70,137,1);
}
.zr113-cls-1746:hover {
cursor:pointer;
fill:rgba(118,75,148,1);
}
.zr113-cls-1747:hover {
cursor:pointer;
fill:rgba(173,107,62,1);
}
.zr113-cls-1748:hover {
cursor:pointer;
fill:rgba(159,70,75,1);
}
.zr113-cls-1749:hover {
cursor:pointer;
fill:rgba(169,105,61,1);
}
.zr113-cls-1750:hover {
cursor:pointer;
fill:rgba(155,69,74,1);
}
.zr113-cls-1751:hover {
cursor:pointer;
fill:rgba(166,103,61,1);
}
.zr113-cls-1752:hover {
cursor:pointer;
fill:rgba(200,121,63,1);
}
.zr113-cls-1753:hover {
cursor:pointer;
fill:rgba(66,127,174,1);
}
.zr113-cls-1754:hover {
cursor:pointer;
fill:rgba(151,68,74,1);
}
.zr113-cls-1755:hover {
cursor:pointer;
fill:rgba(161,101,61,1);
}
.zr113-cls-1756:hover {
cursor:pointer;
fill:rgba(148,67,73,1);
}
.zr113-cls-1757:hover {
cursor:pointer;
fill:rgba(187,78,79,1);
}
.zr113-cls-1758:hover {
cursor:pointer;
fill:rgba(157,100,61,1);
}
.zr113-cls-1759:hover {
cursor:pointer;
fill:rgba(144,66,73,1);
}
.zr113-cls-1760:hover {
cursor:pointer;
fill:rgba(152,97,61,1);
}
.zr113-cls-1761:hover {
cursor:pointer;
fill:rgba(140,66,72,1);
}
.zr113-cls-1762:hover {
cursor:pointer;
fill:rgba(148,95,61,1);
}
.zr113-cls-1763:hover {
cursor:pointer;
fill:rgba(136,64,72,1);
}
.zr113-cls-1764:hover {
cursor:pointer;
fill:rgba(238,91,86,1);
}
.zr113-cls-1765:hover {
cursor:pointer;
fill:rgba(145,93,61,1);
}
.zr113-cls-1766:hover {
cursor:pointer;
fill:rgba(133,63,71,1);
}
.zr113-cls-1767:hover {
cursor:pointer;
fill:rgba(149,95,61,1);
}
.zr113-cls-1768:hover {
cursor:pointer;
fill:rgba(255,151,66,1);
}
.zr113-cls-1769:hover {
cursor:pointer;
fill:rgba(135,63,71,1);
}
.zr113-cls-1770:hover {
cursor:pointer;
fill:rgba(154,97,61,1);
}
.zr113-cls-1771:hover {
cursor:pointer;
fill:rgba(192,79,80,1);
}
.zr113-cls-1772:hover {
cursor:pointer;
fill:rgba(205,154,31,1);
}
.zr113-cls-1773:hover {
cursor:pointer;
fill:rgba(139,64,72,1);
}
.zr113-cls-1774:hover {
cursor:pointer;
fill:rgba(158,100,61,1);
}
.zr113-cls-1775:hover {
cursor:pointer;
fill:rgba(143,66,72,1);
}
.zr113-cls-1776:hover {
cursor:pointer;
fill:rgba(162,102,61,1);
}
.zr113-cls-1777:hover {
cursor:pointer;
fill:rgba(156,121,38,1);
}
.zr113-cls-1778:hover {
cursor:pointer;
fill:rgba(195,147,33,1);
}
.zr113-cls-1779:hover {
cursor:pointer;
fill:rgba(58,144,88,1);
}
.zr113-cls-1780:hover {
cursor:pointer;
fill:rgba(167,104,61,1);
}
.zr113-cls-1781:hover {
cursor:pointer;
fill:rgba(160,124,38,1);
}
.zr113-cls-1782:hover {
cursor:pointer;
fill:rgba(57,139,86,1);
}
.zr113-cls-1783:hover {
cursor:pointer;
fill:rgba(196,118,62,1);
}
.zr113-cls-1784:hover {
cursor:pointer;
fill:rgba(170,106,61,1);
}
.zr113-cls-1785:hover {
cursor:pointer;
fill:rgba(163,126,37,1);
}
.zr113-cls-1786:hover {
cursor:pointer;
fill:rgba(174,107,62,1);
}
.zr113-cls-1787:hover {
cursor:pointer;
fill:rgba(255,185,25,1);
}
.zr113-cls-1788:hover {
cursor:pointer;
fill:rgba(168,128,37,1);
}
.zr113-cls-1789:hover {
cursor:pointer;
fill:rgba(179,110,62,1);
}
.zr113-cls-1790:hover {
cursor:pointer;
fill:rgba(171,130,36,1);
}
.zr113-cls-1791:hover {
cursor:pointer;
fill:rgba(182,112,62,1);
}
.zr113-cls-1792:hover {
cursor:pointer;
fill:rgba(176,134,36,1);
}
.zr113-cls-1793:hover {
cursor:pointer;
fill:rgba(185,113,62,1);
}
.zr113-cls-1794:hover {
cursor:pointer;
fill:rgba(55,133,84,1);
}
.zr113-cls-1795:hover {
cursor:pointer;
fill:rgba(189,115,62,1);
}
.zr113-cls-1796:hover {
cursor:pointer;
fill:rgba(55,135,85,1);
}
.zr113-cls-1797:hover {
cursor:pointer;
fill:rgba(56,137,85,1);
}
.zr113-cls-1798:hover {
cursor:pointer;
fill:rgba(57,141,86,1);
}
.zr113-cls-1799:hover {
cursor:pointer;
fill:rgba(57,140,86,1);
}
.zr113-cls-1800:hover {
cursor:pointer;
fill:rgba(58,143,88,1);
}
.zr113-cls-1801:hover {
cursor:pointer;
fill:rgba(57,143,88,1);
}
.zr113-cls-1802:hover {
cursor:pointer;
fill:rgba(58,145,88,1);
}
.zr113-cls-1803:hover {
cursor:pointer;
fill:rgba(58,146,89,1);
}
.zr113-cls-1804:hover {
cursor:pointer;
fill:rgba(69,181,99,1);
}
.zr113-cls-1805:hover {
cursor:pointer;
fill:rgba(59,147,89,1);
}
.zr113-cls-1806:hover {
cursor:pointer;
fill:rgba(59,148,89,1);
}
.zr113-cls-1807:hover {
cursor:pointer;
fill:rgba(59,149,89,1);
}
.zr113-cls-1808:hover {
cursor:pointer;
fill:rgba(59,149,90,1);
}
.zr113-cls-1809:hover {
cursor:pointer;
fill:rgba(60,150,90,1);
}
.zr113-cls-1810:hover {
pointer-events:none;
}

]]>

</style>
</svg>