<svg width="760" height="500" xmlns="http://www.w3.org/2000/svg" xmlns:xlink="http://www.w3.org/1999/xlink" version="1.1" baseProfile="full" viewBox="0 0 760 500"><desc>人口金字塔图; independently rendered demonstration data; L1502 issue 101; independent web implementation</desc>
<rect width="760" height="500" x="0" y="0" fill="#fff"></rect>
<path d="M0 0l555.8 0l0 27.1l-555.8 0Z" transform="translate(102.0752 466.8745)" fill="none" pointer-events="visible" class="zr143-cls-2411"></path>
<text dominant-baseline="central" text-anchor="start" style="font: 22.233986928104574px Arial" y="13.56273202614379" transform="translate(102.0752 466.8745)" fill="#505763">左侧系列按镜像方向显示；轴标签和数值保留原始非负量</text>
<text dominant-baseline="central" text-anchor="middle" style="font-size:25.233986928104574px;font-family:Arial;" y="-12.616993464052287" transform="matrix(0,-1,1,0,121.3064,236.9373)" fill="#74808b">X</text>
<path d="M440.5 375.6L440.5 98.2" fill="none" pointer-events="visible" stroke="#74808b" stroke-linecap="round" class="zr143-cls-2412"></path>
<text dominant-baseline="central" text-anchor="middle" style="font-size:25.233986928104574px;font-family:Arial;" y="12.616993464052287" transform="translate(440.6532 421.6405)" fill="#74808b">Y</text>
<path d="M161.3 375.5L720 375.5" fill="none" pointer-events="visible" stroke="#74808b" stroke-linecap="round" class="zr143-cls-2412"></path>
<path d="M440.7 375.5L435.7 375.5" fill="none" pointer-events="visible" stroke="#74808b" class="zr143-cls-2412"></path>
<path d="M440.7 314.5L435.7 314.5" fill="none" pointer-events="visible" stroke="#74808b" class="zr143-cls-2412"></path>
<path d="M440.7 252.5L435.7 252.5" fill="none" pointer-events="visible" stroke="#74808b" class="zr143-cls-2412"></path>
<path d="M440.7 190.5L435.7 190.5" fill="none" pointer-events="visible" stroke="#74808b" class="zr143-cls-2412"></path>
<path d="M440.7 129.5L435.7 129.5" fill="none" pointer-events="visible" stroke="#74808b" class="zr143-cls-2412"></path>
<path d="M440.7 98.5L435.7 98.5" fill="none" pointer-events="visible" stroke="#74808b" class="zr143-cls-2412"></path>
<path d="M161.5 375.6L161.5 380.6" fill="none" pointer-events="visible" stroke="#74808b" class="zr143-cls-2412"></path>
<path d="M231.5 375.6L231.5 380.6" fill="none" pointer-events="visible" stroke="#74808b" class="zr143-cls-2412"></path>
<path d="M301.5 375.6L301.5 380.6" fill="none" pointer-events="visible" stroke="#74808b" class="zr143-cls-2412"></path>
<path d="M371.5 375.6L371.5 380.6" fill="none" pointer-events="visible" stroke="#74808b" class="zr143-cls-2412"></path>
<path d="M440.5 375.6L440.5 380.6" fill="none" pointer-events="visible" stroke="#74808b" class="zr143-cls-2412"></path>
<path d="M510.5 375.6L510.5 380.6" fill="none" pointer-events="visible" stroke="#74808b" class="zr143-cls-2412"></path>
<path d="M580.5 375.6L580.5 380.6" fill="none" pointer-events="visible" stroke="#74808b" class="zr143-cls-2412"></path>
<path d="M650.5 375.6L650.5 380.6" fill="none" pointer-events="visible" stroke="#74808b" class="zr143-cls-2412"></path>
<path d="M720.5 375.6L720.5 380.6" fill="none" pointer-events="visible" stroke="#74808b" class="zr143-cls-2412"></path>
<text dominant-baseline="central" text-anchor="end" style="font-size:24.233986928104574px;font-family:Arial;" xml:space="preserve" transform="translate(153.3064 360.2291)" fill="#54555a">Band 1</text>
<text dominant-baseline="central" text-anchor="end" style="font-size:24.233986928104574px;font-family:Arial;" xml:space="preserve" transform="translate(153.3064 298.5832)" fill="#54555a">Band 3</text>
<text dominant-baseline="central" text-anchor="end" style="font-size:24.233986928104574px;font-family:Arial;" xml:space="preserve" transform="translate(153.3064 236.9373)" fill="#54555a">Band 5</text>
<text dominant-baseline="central" text-anchor="end" style="font-size:24.233986928104574px;font-family:Arial;" xml:space="preserve" transform="translate(153.3064 175.2914)" fill="#54555a">Band 7</text>
<text dominant-baseline="central" text-anchor="end" style="font-size:24.233986928104574px;font-family:Arial;" xml:space="preserve" transform="translate(153.3064 113.6455)" fill="#54555a">Band 9</text>
<text dominant-baseline="central" text-anchor="middle" style="font-size:24.233986928104574px;font-family:Arial;" y="12.116993464052287" transform="translate(161.3064 383.6405)" fill="#54555a">40</text>
<text dominant-baseline="central" text-anchor="middle" style="font-size:24.233986928104574px;font-family:Arial;" y="12.116993464052287" transform="translate(231.1431 383.6405)" fill="#54555a">30</text>
<text dominant-baseline="central" text-anchor="middle" style="font-size:24.233986928104574px;font-family:Arial;" y="12.116993464052287" transform="translate(300.9798 383.6405)" fill="#54555a">20</text>
<text dominant-baseline="central" text-anchor="middle" style="font-size:24.233986928104574px;font-family:Arial;" y="12.116993464052287" transform="translate(370.8165 383.6405)" fill="#54555a">10</text>
<text dominant-baseline="central" text-anchor="middle" style="font-size:24.233986928104574px;font-family:Arial;" y="12.116993464052287" transform="translate(440.6532 383.6405)" fill="#54555a">0</text>
<text dominant-baseline="central" text-anchor="middle" style="font-size:24.233986928104574px;font-family:Arial;" y="12.116993464052287" transform="translate(510.4899 383.6405)" fill="#54555a">10</text>
<text dominant-baseline="central" text-anchor="middle" style="font-size:24.233986928104574px;font-family:Arial;" y="12.116993464052287" transform="translate(580.3266 383.6405)" fill="#54555a">20</text>
<text dominant-baseline="central" text-anchor="middle" style="font-size:24.233986928104574px;font-family:Arial;" y="12.116993464052287" transform="translate(650.1633 383.6405)" fill="#54555a">30</text>
<text dominant-baseline="central" text-anchor="middle" style="font-size:24.233986928104574px;font-family:Arial;" y="12.116993464052287" transform="translate(720 383.6405)" fill="#54555a">40</text>
<path d="M440.7 349l-223.5 0l0 10.7l223.5 0Z" fill="#3B6E9E" ecmeta_series_index="0" ecmeta_data_index="0" ecmeta_ssr_type="chart" class="zr143-cls-2413"></path>
<path d="M440.7 318.2l-217.8 0l0 10.7l217.8 0Z" fill="#3B6E9E" ecmeta_series_index="0" ecmeta_data_index="1" ecmeta_ssr_type="chart" class="zr143-cls-2413"></path>
<path d="M440.7 287.3l-201.3 0l0 10.7l201.3 0Z" fill="#3B6E9E" ecmeta_series_index="0" ecmeta_data_index="2" ecmeta_ssr_type="chart" class="zr143-cls-2413"></path>
<path d="M440.7 256.5l-173.1 0l0 10.7l173.1 0Z" fill="#3B6E9E" ecmeta_series_index="0" ecmeta_data_index="3" ecmeta_ssr_type="chart" class="zr143-cls-2413"></path>
<path d="M440.7 225.7l-143.1 0l0 10.7l143.1 0Z" fill="#3B6E9E" ecmeta_series_index="0" ecmeta_data_index="4" ecmeta_ssr_type="chart" class="zr143-cls-2413"></path>
<path d="M440.7 194.9l-122.8 0l0 10.7l122.8 0Z" fill="#3B6E9E" ecmeta_series_index="0" ecmeta_data_index="5" ecmeta_ssr_type="chart" class="zr143-cls-2413"></path>
<path d="M440.7 164l-114.8 0l0 10.7l114.8 0Z" fill="#3B6E9E" ecmeta_series_index="0" ecmeta_data_index="6" ecmeta_ssr_type="chart" class="zr143-cls-2413"></path>
<path d="M440.7 133.2l-110.4 0l0 10.7l110.4 0Z" fill="#3B6E9E" ecmeta_series_index="0" ecmeta_data_index="7" ecmeta_ssr_type="chart" class="zr143-cls-2413"></path>
<path d="M440.7 102.4l-97.6 0l0 10.7l97.6 0Z" fill="#3B6E9E" ecmeta_series_index="0" ecmeta_data_index="8" ecmeta_ssr_type="chart" class="zr143-cls-2413"></path>
<path d="M440.7 360.8l219.8 0l0 10.7l-219.8 0Z" fill="#CF7868" ecmeta_series_index="1" ecmeta_data_index="0" ecmeta_ssr_type="chart" class="zr143-cls-2414"></path>
<path d="M440.7 329.9l185 0l0 10.7l-185 0Z" fill="#CF7868" ecmeta_series_index="1" ecmeta_data_index="1" ecmeta_ssr_type="chart" class="zr143-cls-2414"></path>
<path d="M440.7 299.1l156.1 0l0 10.7l-156.1 0Z" fill="#CF7868" ecmeta_series_index="1" ecmeta_data_index="2" ecmeta_ssr_type="chart" class="zr143-cls-2414"></path>
<path d="M440.7 268.3l142.9 0l0 10.7l-142.9 0Z" fill="#CF7868" ecmeta_series_index="1" ecmeta_data_index="3" ecmeta_ssr_type="chart" class="zr143-cls-2414"></path>
<path d="M440.7 237.5l140.8 0l0 10.7l-140.8 0Z" fill="#CF7868" ecmeta_series_index="1" ecmeta_data_index="4" ecmeta_ssr_type="chart" class="zr143-cls-2414"></path>
<path d="M440.7 206.7l135.2 0l0 10.7l-135.2 0Z" fill="#CF7868" ecmeta_series_index="1" ecmeta_data_index="5" ecmeta_ssr_type="chart" class="zr143-cls-2414"></path>
<path d="M440.7 175.8l114.4 0l0 10.7l-114.4 0Z" fill="#CF7868" ecmeta_series_index="1" ecmeta_data_index="6" ecmeta_ssr_type="chart" class="zr143-cls-2414"></path>
<path d="M440.7 145l80.9 0l0 10.7l-80.9 0Z" fill="#CF7868" ecmeta_series_index="1" ecmeta_data_index="7" ecmeta_ssr_type="chart" class="zr143-cls-2414"></path>
<path d="M440.7 114.2l48.8 0l0 10.7l-48.8 0Z" fill="#CF7868" ecmeta_series_index="1" ecmeta_data_index="8" ecmeta_ssr_type="chart" class="zr143-cls-2414"></path>
<path d="M-5 -5l252.1 0l0 34.2l-252.1 0Z" transform="translate(40 47)" fill="rgb(0,0,0)" fill-opacity="0" stroke="#b7b9be" stroke-width="0" class="zr143-cls-2412"></path>
<path d="M3.5 0L21.5 0A3.5 3.5 0 0 1 25 3.5L25 10.5A3.5 3.5 0 0 1 21.5 14L3.5 14A3.5 3.5 0 0 1 0 10.5L0 3.5A3.5 3.5 0 0 1 3.5 0" transform="translate(40 52.117)" fill="#3B6E9E" ecmeta_series_index="0" ecmeta_data_index="0" ecmeta_ssr_type="legend" ecmeta_silent="true" class="zr143-cls-2412"></path>
<text dominant-baseline="central" text-anchor="start" style="font-size:24.233986928104574px;font-family:Arial;" x="30" y="7" transform="translate(40 52.117)" fill="#54555a">SeriesA</text>
<path d="M0 -5.1l115.1 0l0 24.2l-115.1 0Z" transform="translate(40 52.117)" fill="none" pointer-events="visible" ecmeta_series_index="0" ecmeta_data_index="0" ecmeta_ssr_type="legend" ecmeta_silent="true" class="zr143-cls-2412"></path>
<path d="M3.5 0L21.5 0A3.5 3.5 0 0 1 25 3.5L25 10.5A3.5 3.5 0 0 1 21.5 14L3.5 14A3.5 3.5 0 0 1 0 10.5L0 3.5A3.5 3.5 0 0 1 3.5 0" transform="translate(167.0613 52.117)" fill="#CF7868" ecmeta_series_index="1" ecmeta_data_index="1" ecmeta_ssr_type="legend" ecmeta_silent="true" class="zr143-cls-2412"></path>
<text dominant-baseline="central" text-anchor="start" style="font-size:24.233986928104574px;font-family:Arial;" x="30" y="7" transform="translate(167.0613 52.117)" fill="#54555a">SeriesB</text>
<path d="M0 -5.1l115.1 0l0 24.2l-115.1 0Z" transform="translate(167.0613 52.117)" fill="none" pointer-events="visible" ecmeta_series_index="1" ecmeta_data_index="1" ecmeta_ssr_type="legend" ecmeta_silent="true" class="zr143-cls-2412"></path>
<path d="M-168.2 -5l336.4 0l0 38.2l-336.4 0Z" transform="translate(380 14)" fill="rgb(0,0,0)" fill-opacity="0" stroke="#3c3c41" stroke-width="0" class="zr143-cls-2412"></path>
<text dominant-baseline="central" text-anchor="middle" style="font-size:28.233986928104574px;font-family:Arial;font-weight:bold;" xml:space="preserve" y="14.116993464052287" transform="translate(380 14)" fill="#202b35">人口金字塔图 · 示例数据</text>
<style ><![CDATA[
.zr143-cls-2411:hover {
cursor:pointer;
}
.zr143-cls-2412:hover {
pointer-events:none;
}
.zr143-cls-2413:hover {
cursor:pointer;
fill:rgba(64,121,173,1);
}
.zr143-cls-2414:hover {
cursor:pointer;
fill:rgba(227,132,114,1);
}

]]>

</style>
</svg>