<svg width="760" height="500" xmlns="http://www.w3.org/2000/svg" xmlns:xlink="http://www.w3.org/1999/xlink" version="1.1" baseProfile="full" viewBox="0 0 760 500"><desc>散点折线图; independently rendered demonstration data; L1502 issue 19; independent web implementation</desc>
<rect width="760" height="500" x="0" y="0" fill="#fff"></rect>
<text dominant-baseline="central" text-anchor="middle" style="font-size:25.233986928104574px;font-family:Arial;" y="-12.616993464052287" transform="matrix(0,-1,1,0,71.9276,231.383)" fill="#74808b">Y</text>
<path d="M118.5 398.8L118.5 64" fill="none" pointer-events="visible" stroke="#74808b" stroke-linecap="round" class="zr61-cls-685"></path>
<text dominant-baseline="central" text-anchor="middle" style="font-size:25.233986928104574px;font-family:Arial;" y="12.616993464052287" transform="translate(418.9638 444.766)" fill="#74808b">X</text>
<path d="M117.9 399.5L720 399.5" fill="none" pointer-events="visible" stroke="#74808b" stroke-linecap="round" class="zr61-cls-685"></path>
<path d="M117.9 399.5L112.9 399.5" fill="none" pointer-events="visible" stroke="#74808b" class="zr61-cls-685"></path>
<path d="M117.9 351.5L112.9 351.5" fill="none" pointer-events="visible" stroke="#74808b" class="zr61-cls-685"></path>
<path d="M117.9 303.5L112.9 303.5" fill="none" pointer-events="visible" stroke="#74808b" class="zr61-cls-685"></path>
<path d="M117.9 255.5L112.9 255.5" fill="none" pointer-events="visible" stroke="#74808b" class="zr61-cls-685"></path>
<path d="M117.9 207.5L112.9 207.5" fill="none" pointer-events="visible" stroke="#74808b" class="zr61-cls-685"></path>
<path d="M117.9 159.5L112.9 159.5" fill="none" pointer-events="visible" stroke="#74808b" class="zr61-cls-685"></path>
<path d="M117.9 112.5L112.9 112.5" fill="none" pointer-events="visible" stroke="#74808b" class="zr61-cls-685"></path>
<path d="M117.9 64.5L112.9 64.5" fill="none" pointer-events="visible" stroke="#74808b" class="zr61-cls-685"></path>
<path d="M118.5 398.8L118.5 403.8" fill="none" pointer-events="visible" stroke="#74808b" class="zr61-cls-685"></path>
<path d="M218.5 398.8L218.5 403.8" fill="none" pointer-events="visible" stroke="#74808b" class="zr61-cls-685"></path>
<path d="M318.5 398.8L318.5 403.8" fill="none" pointer-events="visible" stroke="#74808b" class="zr61-cls-685"></path>
<path d="M419.5 398.8L419.5 403.8" fill="none" pointer-events="visible" stroke="#74808b" class="zr61-cls-685"></path>
<path d="M519.5 398.8L519.5 403.8" fill="none" pointer-events="visible" stroke="#74808b" class="zr61-cls-685"></path>
<path d="M619.5 398.8L619.5 403.8" fill="none" pointer-events="visible" stroke="#74808b" class="zr61-cls-685"></path>
<path d="M720.5 398.8L720.5 403.8" fill="none" pointer-events="visible" stroke="#74808b" class="zr61-cls-685"></path>
<text dominant-baseline="central" text-anchor="end" style="font-size:24.233986928104574px;font-family:Arial;" transform="translate(109.9276 398.766)" fill="#54555a">1.5</text>
<text dominant-baseline="central" text-anchor="end" style="font-size:24.233986928104574px;font-family:Arial;" transform="translate(109.9276 350.9423)" fill="#54555a">1.8</text>
<text dominant-baseline="central" text-anchor="end" style="font-size:24.233986928104574px;font-family:Arial;" transform="translate(109.9276 303.1186)" fill="#54555a">2.1</text>
<text dominant-baseline="central" text-anchor="end" style="font-size:24.233986928104574px;font-family:Arial;" transform="translate(109.9276 255.2949)" fill="#54555a">2.4</text>
<text dominant-baseline="central" text-anchor="end" style="font-size:24.233986928104574px;font-family:Arial;" transform="translate(109.9276 207.4711)" fill="#54555a">2.7</text>
<text dominant-baseline="central" text-anchor="end" style="font-size:24.233986928104574px;font-family:Arial;" transform="translate(109.9276 159.6474)" fill="#54555a">3</text>
<text dominant-baseline="central" text-anchor="end" style="font-size:24.233986928104574px;font-family:Arial;" transform="translate(109.9276 111.8237)" fill="#54555a">3.3</text>
<text dominant-baseline="central" text-anchor="end" style="font-size:24.233986928104574px;font-family:Arial;" transform="translate(109.9276 64)" fill="#54555a">3.6</text>
<text dominant-baseline="central" text-anchor="middle" style="font-size:24.233986928104574px;font-family:Arial;" y="12.116993464052287" transform="translate(117.9276 406.766)" fill="#54555a">0</text>
<text dominant-baseline="central" text-anchor="middle" style="font-size:24.233986928104574px;font-family:Arial;" y="12.116993464052287" transform="translate(218.273 406.766)" fill="#54555a">1</text>
<text dominant-baseline="central" text-anchor="middle" style="font-size:24.233986928104574px;font-family:Arial;" y="12.116993464052287" transform="translate(318.6184 406.766)" fill="#54555a">2</text>
<text dominant-baseline="central" text-anchor="middle" style="font-size:24.233986928104574px;font-family:Arial;" y="12.116993464052287" transform="translate(418.9638 406.766)" fill="#54555a">3</text>
<text dominant-baseline="central" text-anchor="middle" style="font-size:24.233986928104574px;font-family:Arial;" y="12.116993464052287" transform="translate(519.3092 406.766)" fill="#54555a">4</text>
<text dominant-baseline="central" text-anchor="middle" style="font-size:24.233986928104574px;font-family:Arial;" y="12.116993464052287" transform="translate(619.6546 406.766)" fill="#54555a">5</text>
<text dominant-baseline="central" text-anchor="middle" style="font-size:24.233986928104574px;font-family:Arial;" y="12.116993464052287" transform="translate(720 406.766)" fill="#54555a">6</text>
<g clip-path="url(#zr61-c0)">
<path d="M117.9 268.5L143 225.1L168.1 185.3L193.2 151.2L218.3 124.7L243.4 107.1L268.4 99.2L293.5 101.3L318.6 112.8L343.7 132.7L368.8 159.6L393.9 191.4L419 226L444.1 260.7L469.1 293.3L494.2 321.3L519.3 342.7L544.4 355.9L569.5 359.8L594.6 353.8L619.7 338L644.7 313.1L669.8 280.4L694.9 241.5L720 198.7" fill="none" pointer-events="visible" stroke="#3B6E9E" stroke-width="2" stroke-linejoin="bevel" class="zr61-cls-687"></path>
</g>
<path d="M1 0A1 1 0 1 1 1 -0.1A1 1 0 0 1 1 0" transform="matrix(2.5,0,0,2.5,117.9276,268.4655)" fill="#3B6E9E" stroke="#fff" stroke-width="0" ecmeta_series_index="0" ecmeta_data_index="0" ecmeta_ssr_type="chart" class="zr61-cls-688"></path>
<path d="M1 0A1 1 0 1 1 1 -0.1A1 1 0 0 1 1 0" transform="matrix(2.5,0,0,2.5,143.0139,225.099)" fill="#3B6E9E" stroke="#fff" stroke-width="0" ecmeta_series_index="0" ecmeta_data_index="1" ecmeta_ssr_type="chart" class="zr61-cls-688"></path>
<path d="M1 0A1 1 0 1 1 1 -0.1A1 1 0 0 1 1 0" transform="matrix(2.5,0,0,2.5,168.1003,185.2937)" fill="#3B6E9E" stroke="#fff" stroke-width="0" ecmeta_series_index="0" ecmeta_data_index="2" ecmeta_ssr_type="chart" class="zr61-cls-688"></path>
<path d="M1 0A1 1 0 1 1 1 -0.1A1 1 0 0 1 1 0" transform="matrix(2.5,0,0,2.5,193.1866,151.2289)" fill="#3B6E9E" stroke="#fff" stroke-width="0" ecmeta_series_index="0" ecmeta_data_index="3" ecmeta_ssr_type="chart" class="zr61-cls-688"></path>
<path d="M1 0A1 1 0 1 1 1 -0.1A1 1 0 0 1 1 0" transform="matrix(2.5,0,0,2.5,218.273,124.725)" fill="#3B6E9E" stroke="#fff" stroke-width="0" ecmeta_series_index="0" ecmeta_data_index="4" ecmeta_ssr_type="chart" class="zr61-cls-688"></path>
<path d="M1 0A1 1 0 1 1 1 -0.1A1 1 0 0 1 1 0" transform="matrix(2.5,0,0,2.5,243.3593,107.1306)" fill="#3B6E9E" stroke="#fff" stroke-width="0" ecmeta_series_index="0" ecmeta_data_index="5" ecmeta_ssr_type="chart" class="zr61-cls-688"></path>
<path d="M1 0A1 1 0 1 1 1 -0.1A1 1 0 0 1 1 0" transform="matrix(2.5,0,0,2.5,268.4457,99.2461)" fill="#3B6E9E" stroke="#fff" stroke-width="0" ecmeta_series_index="0" ecmeta_data_index="6" ecmeta_ssr_type="chart" class="zr61-cls-688"></path>
<path d="M1 0A1 1 0 1 1 1 -0.1A1 1 0 0 1 1 0" transform="matrix(2.5,0,0,2.5,293.532,101.2611)" fill="#3B6E9E" stroke="#fff" stroke-width="0" ecmeta_series_index="0" ecmeta_data_index="7" ecmeta_ssr_type="chart" class="zr61-cls-688"></path>
<path d="M1 0A1 1 0 1 1 1 -0.1A1 1 0 0 1 1 0" transform="matrix(2.5,0,0,2.5,318.6184,112.7531)" fill="#3B6E9E" stroke="#fff" stroke-width="0" ecmeta_series_index="0" ecmeta_data_index="8" ecmeta_ssr_type="chart" class="zr61-cls-688"></path>
<path d="M1 0A1 1 0 1 1 1 -0.1A1 1 0 0 1 1 0" transform="matrix(2.5,0,0,2.5,343.7047,132.7131)" fill="#3B6E9E" stroke="#fff" stroke-width="0" ecmeta_series_index="0" ecmeta_data_index="9" ecmeta_ssr_type="chart" class="zr61-cls-688"></path>
<path d="M1 0A1 1 0 1 1 1 -0.1A1 1 0 0 1 1 0" transform="matrix(2.5,0,0,2.5,368.7911,159.5996)" fill="#3B6E9E" stroke="#fff" stroke-width="0" ecmeta_series_index="0" ecmeta_data_index="10" ecmeta_ssr_type="chart" class="zr61-cls-688"></path>
<path d="M1 0A1 1 0 1 1 1 -0.1A1 1 0 0 1 1 0" transform="matrix(2.5,0,0,2.5,393.8774,191.4454)" fill="#3B6E9E" stroke="#fff" stroke-width="0" ecmeta_series_index="0" ecmeta_data_index="11" ecmeta_ssr_type="chart" class="zr61-cls-688"></path>
<path d="M1 0A1 1 0 1 1 1 -0.1A1 1 0 0 1 1 0" transform="matrix(2.5,0,0,2.5,418.9638,225.9725)" fill="#3B6E9E" stroke="#fff" stroke-width="0" ecmeta_series_index="0" ecmeta_data_index="12" ecmeta_ssr_type="chart" class="zr61-cls-688"></path>
<path d="M1 0A1 1 0 1 1 1 -0.1A1 1 0 0 1 1 0" transform="matrix(2.5,0,0,2.5,444.0501,260.7356)" fill="#3B6E9E" stroke="#fff" stroke-width="0" ecmeta_series_index="0" ecmeta_data_index="13" ecmeta_ssr_type="chart" class="zr61-cls-688"></path>
<path d="M1 0A1 1 0 1 1 1 -0.1A1 1 0 0 1 1 0" transform="matrix(2.5,0,0,2.5,469.1365,293.2797)" fill="#3B6E9E" stroke="#fff" stroke-width="0" ecmeta_series_index="0" ecmeta_data_index="14" ecmeta_ssr_type="chart" class="zr61-cls-688"></path>
<path d="M1 0A1 1 0 1 1 1 -0.1A1 1 0 0 1 1 0" transform="matrix(2.5,0,0,2.5,494.2228,321.2788)" fill="#3B6E9E" stroke="#fff" stroke-width="0" ecmeta_series_index="0" ecmeta_data_index="15" ecmeta_ssr_type="chart" class="zr61-cls-688"></path>
<path d="M1 0A1 1 0 1 1 1 -0.1A1 1 0 0 1 1 0" transform="matrix(2.5,0,0,2.5,519.3092,342.6991)" fill="#3B6E9E" stroke="#fff" stroke-width="0" ecmeta_series_index="0" ecmeta_data_index="16" ecmeta_ssr_type="chart" class="zr61-cls-688"></path>
<path d="M1 0A1 1 0 1 1 1 -0.1A1 1 0 0 1 1 0" transform="matrix(2.5,0,0,2.5,544.3956,355.9096)" fill="#3B6E9E" stroke="#fff" stroke-width="0" ecmeta_series_index="0" ecmeta_data_index="17" ecmeta_ssr_type="chart" class="zr61-cls-688"></path>
<path d="M1 0A1 1 0 1 1 1 -0.1A1 1 0 0 1 1 0" transform="matrix(2.5,0,0,2.5,569.4819,359.7929)" fill="#3B6E9E" stroke="#fff" stroke-width="0" ecmeta_series_index="0" ecmeta_data_index="18" ecmeta_ssr_type="chart" class="zr61-cls-688"></path>
<path d="M1 0A1 1 0 1 1 1 -0.1A1 1 0 0 1 1 0" transform="matrix(2.5,0,0,2.5,594.5682,353.8069)" fill="#3B6E9E" stroke="#fff" stroke-width="0" ecmeta_series_index="0" ecmeta_data_index="19" ecmeta_ssr_type="chart" class="zr61-cls-688"></path>
<path d="M1 0A1 1 0 1 1 1 -0.1A1 1 0 0 1 1 0" transform="matrix(2.5,0,0,2.5,619.6546,338.0299)" fill="#3B6E9E" stroke="#fff" stroke-width="0" ecmeta_series_index="0" ecmeta_data_index="20" ecmeta_ssr_type="chart" class="zr61-cls-688"></path>
<path d="M1 0A1 1 0 1 1 1 -0.1A1 1 0 0 1 1 0" transform="matrix(2.5,0,0,2.5,644.741,313.144)" fill="#3B6E9E" stroke="#fff" stroke-width="0" ecmeta_series_index="0" ecmeta_data_index="21" ecmeta_ssr_type="chart" class="zr61-cls-688"></path>
<path d="M1 0A1 1 0 1 1 1 -0.1A1 1 0 0 1 1 0" transform="matrix(2.5,0,0,2.5,669.8273,280.3991)" fill="#3B6E9E" stroke="#fff" stroke-width="0" ecmeta_series_index="0" ecmeta_data_index="22" ecmeta_ssr_type="chart" class="zr61-cls-688"></path>
<path d="M1 0A1 1 0 1 1 1 -0.1A1 1 0 0 1 1 0" transform="matrix(2.5,0,0,2.5,694.9136,241.5344)" fill="#3B6E9E" stroke="#fff" stroke-width="0" ecmeta_series_index="0" ecmeta_data_index="23" ecmeta_ssr_type="chart" class="zr61-cls-688"></path>
<path d="M1 0A1 1 0 1 1 1 -0.1A1 1 0 0 1 1 0" transform="matrix(2.5,0,0,2.5,720,198.6684)" fill="#3B6E9E" stroke="#fff" stroke-width="0" ecmeta_series_index="0" ecmeta_data_index="24" ecmeta_ssr_type="chart" class="zr61-cls-688"></path>
<path d="M-154.1 -5l308.2 0l0 38.2l-308.2 0Z" transform="translate(380 14)" fill="rgb(0,0,0)" fill-opacity="0" stroke="#3c3c41" stroke-width="0" class="zr61-cls-685"></path>
<text dominant-baseline="central" text-anchor="middle" style="font-size:28.233986928104574px;font-family:Arial;font-weight:bold;" xml:space="preserve" y="14.116993464052287" transform="translate(380 14)" fill="#202b35">散点折线图 · 示例数据</text>
<defs >
<clipPath id="zr61-c0">
<path d="M116 63l606 0l0 336.8l-606 0Z" fill="#000" class="zr61-cls-686"></path>
</clipPath>
</defs>
<style ><![CDATA[
.zr61-cls-685:hover {
pointer-events:none;
}
.zr61-cls-686:hover {
cursor:pointer;
fill:rgba(0,0,0,1);
}
.zr61-cls-687:hover {
cursor:pointer;
}
.zr61-cls-688:hover {
cursor:pointer;
fill:rgba(64,121,173,1);
}

]]>

</style>
</svg>