<svg width="760" height="500" xmlns="http://www.w3.org/2000/svg" xmlns:xlink="http://www.w3.org/1999/xlink" version="1.1" baseProfile="full" viewBox="0 0 760 500"><desc>三维散点图; independently rendered demonstration data; L1502 issue 20; independent web implementation</desc>
<rect width="760" height="500" x="0" y="0" fill="#ffffff"></rect>
<circle cx="336.6" cy="175.7" r="7.6" fill="rgb(35,140,140)" stroke="#0A6AA8" stroke-width="1.8" class="zr62-cls-701"></circle>
<circle cx="312.6" cy="210.1" r="7.6" fill="rgb(40,125,142)" stroke="#0A6AA8" stroke-width="1.8" class="zr62-cls-702"></circle>
<circle cx="293.9" cy="239.7" r="7.6" fill="rgb(46,111,142)" stroke="#0A6AA8" stroke-width="1.8" class="zr62-cls-703"></circle>
<circle cx="356.9" cy="142.2" r="7.6" fill="rgb(32,155,137)" stroke="#0A6AA8" stroke-width="1.8" class="zr62-cls-704"></circle>
<circle cx="322" cy="292.3" r="7.6" fill="rgb(68,1,84)" stroke="#0A6AA8" stroke-width="1.8" class="zr62-cls-705"></circle>
<circle cx="275.1" cy="266.9" r="7.6" fill="rgb(53,96,141)" stroke="#0A6AA8" stroke-width="1.8" class="zr62-cls-706"></circle>
<circle cx="303.8" cy="293.3" r="7.6" fill="rgb(70,22,104)" stroke="#0A6AA8" stroke-width="1.8" class="zr62-cls-707"></circle>
<circle cx="360.8" cy="116.4" r="7.6" fill="rgb(41,169,130)" stroke="#0A6AA8" stroke-width="1.8" class="zr62-cls-708"></circle>
<circle cx="259.6" cy="289.8" r="7.6" fill="rgb(60,79,138)" stroke="#0A6AA8" stroke-width="1.8" class="zr62-cls-709"></circle>
<circle cx="283.5" cy="296.3" r="7.6" fill="rgb(71,43,122)" stroke="#0A6AA8" stroke-width="1.8" class="zr62-cls-710"></circle>
<circle cx="379.1" cy="199.4" r="7.6" fill="rgb(50,180,123)" stroke="#EA0A6E" stroke-width="1.8" class="zr62-cls-711"></circle>
<circle cx="353.4" cy="236.5" r="7.6" fill="rgb(38,166,132)" stroke="#EA0A6E" stroke-width="1.8" class="zr62-cls-712"></circle>
<circle cx="263.2" cy="299" r="7.6" fill="rgb(66,61,131)" stroke="#0A6AA8" stroke-width="1.8" class="zr62-cls-713"></circle>
<circle cx="333.6" cy="268.7" r="7.6" fill="rgb(33,152,138)" stroke="#EA0A6E" stroke-width="1.8" class="zr62-cls-714"></circle>
<circle cx="401.6" cy="163.6" r="7.6" fill="rgb(76,192,108)" stroke="#EA0A6E" stroke-width="1.8" class="zr62-cls-715"></circle>
<circle cx="364.4" cy="325.7" r="7.6" fill="rgb(67,57,129)" stroke="#EA0A6E" stroke-width="1.8" class="zr62-cls-716"></circle>
<circle cx="351.8" cy="97.6" r="7.6" fill="rgb(53,183,121)" stroke="#0A6AA8" stroke-width="1.8" class="zr62-cls-717"></circle>
<circle cx="314.3" cy="298.7" r="7.6" fill="rgb(36,136,141)" stroke="#EA0A6E" stroke-width="1.8" class="zr62-cls-718"></circle>
<circle cx="346.1" cy="328" r="7.6" fill="rgb(61,74,137)" stroke="#EA0A6E" stroke-width="1.8" class="zr62-cls-719"></circle>
<circle cx="408" cy="136.7" r="7.6" fill="rgb(106,204,90)" stroke="#EA0A6E" stroke-width="1.8" class="zr62-cls-720"></circle>
<circle cx="298.9" cy="324.7" r="7.6" fill="rgb(41,122,142)" stroke="#EA0A6E" stroke-width="1.8" class="zr62-cls-721"></circle>
<circle cx="325" cy="331.9" r="7.6" fill="rgb(54,91,140)" stroke="#EA0A6E" stroke-width="1.8" class="zr62-cls-722"></circle>
<circle cx="428.9" cy="227.1" r="7.6" fill="rgb(135,211,73)" stroke="#12A5C8" stroke-width="1.8" class="zr62-cls-723"></circle>
<circle cx="401.1" cy="267.4" r="7.6" fill="rgb(99,201,95)" stroke="#12A5C8" stroke-width="1.8" class="zr62-cls-724"></circle>
<circle cx="303.4" cy="335.2" r="7.6" fill="rgb(47,108,142)" stroke="#EA0A6E" stroke-width="1.8" class="zr62-cls-725"></circle>
<circle cx="380" cy="302.5" r="7.6" fill="rgb(68,189,112)" stroke="#12A5C8" stroke-width="1.8" class="zr62-cls-726"></circle>
<circle cx="454" cy="188.7" r="7.6" fill="rgb(174,220,48)" stroke="#12A5C8" stroke-width="1.8" class="zr62-cls-727"></circle>
<circle cx="414.1" cy="364.9" r="7.6" fill="rgb(49,104,142)" stroke="#12A5C8" stroke-width="1.8" class="zr62-cls-728"></circle>
<circle cx="401" cy="117.5" r="7.6" fill="rgb(145,214,67)" stroke="#EA0A6E" stroke-width="1.8" class="zr62-cls-729"></circle>
<circle cx="360.4" cy="336.1" r="7.6" fill="rgb(47,176,125)" stroke="#12A5C8" stroke-width="1.8" class="zr62-cls-730"></circle>
<circle cx="396" cy="368.8" r="7.6" fill="rgb(43,118,142)" stroke="#12A5C8" stroke-width="1.8" class="zr62-cls-731"></circle>
<circle cx="463.5" cy="160.6" r="7.6" fill="rgb(213,226,41)" stroke="#12A5C8" stroke-width="1.8" class="zr62-cls-732"></circle>
<circle cx="345.4" cy="365.9" r="7.6" fill="rgb(35,163,134)" stroke="#12A5C8" stroke-width="1.8" class="zr62-cls-733"></circle>
<circle cx="374.1" cy="374" r="7.6" fill="rgb(37,133,142)" stroke="#12A5C8" stroke-width="1.8" class="zr62-cls-734"></circle>
<circle cx="351" cy="378.1" r="7.6" fill="rgb(34,148,139)" stroke="#12A5C8" stroke-width="1.8" class="zr62-cls-735"></circle>
<circle cx="459.7" cy="141.2" r="7.6" fill="rgb(253,231,37)" stroke="#12A5C8" stroke-width="1.8" class="zr62-cls-736"></circle>
<path d="M208.5 332.1L386.7 410.3" fill="none" pointer-events="visible" stroke="#64748b" stroke-width="1.1" class="zr62-cls-737"></path>
<path d="M208.5 332.1L206.5 336.7" fill="none" pointer-events="visible" stroke="#64748b" class="zr62-cls-737"></path>
<path d="M290.7 368.1L288.7 372.7" fill="none" pointer-events="visible" stroke="#64748b" class="zr62-cls-737"></path>
<path d="M386.7 410.3L384.7 414.8" fill="none" pointer-events="visible" stroke="#64748b" class="zr62-cls-737"></path>
<path d="M495.4 305.1L386.7 410.3" fill="none" pointer-events="visible" stroke="#64748b" stroke-width="1.1" class="zr62-cls-737"></path>
<path d="M495.4 305.1L498.9 308.7" fill="none" pointer-events="visible" stroke="#64748b" class="zr62-cls-737"></path>
<path d="M446.9 352L450.4 355.6" fill="none" pointer-events="visible" stroke="#64748b" class="zr62-cls-737"></path>
<path d="M386.7 410.3L390.2 413.9" fill="none" pointer-events="visible" stroke="#64748b" class="zr62-cls-737"></path>
<path d="M208.5 332.1L188.9 128.5" fill="none" pointer-events="visible" stroke="#64748b" stroke-width="1.1" class="zr62-cls-737"></path>
<path d="M208.5 332.1L203.6 332.6" fill="none" pointer-events="visible" stroke="#64748b" class="zr62-cls-737"></path>
<path d="M199.3 236.6L194.3 237.1" fill="none" pointer-events="visible" stroke="#64748b" class="zr62-cls-737"></path>
<path d="M188.9 128.5L183.9 129" fill="none" pointer-events="visible" stroke="#64748b" class="zr62-cls-737"></path>
<path d="M0 0l287.6 0l0 32.7l-287.6 0Z" transform="translate(236.2045 12)" fill="none" pointer-events="visible" class="zr62-cls-737"></path>
<text dominant-baseline="central" text-anchor="start" style="font: 27.233986928104574px Arial" xml:space="preserve" y="16.340392156862745" transform="translate(236.2045 12)" fill="#172033">三维散点图 · 示例数据</text>
<path d="M20 55.7l14 0l0 7l-14 0Z" fill="none" pointer-events="visible" stroke="#0A6AA8" stroke-width="1.8" class="zr62-cls-737"></path>
<path d="M0 0l77.4 0l0 24.8l-77.4 0Z" transform="translate(41 52.6808)" fill="none" pointer-events="visible" class="zr62-cls-737"></path>
<text dominant-baseline="central" text-anchor="start" style="font: 20.69186928104575px Arial" xml:space="preserve" y="12.41512156862745" transform="translate(41 52.6808)" fill="#334155">Group A</text>
<path d="M141.4 55.7l14 0l0 7l-14 0Z" fill="none" pointer-events="visible" stroke="#EA0A6E" stroke-width="1.8" class="zr62-cls-737"></path>
<path d="M0 0l77.4 0l0 24.8l-77.4 0Z" transform="translate(162.3876 52.6808)" fill="none" pointer-events="visible" class="zr62-cls-737"></path>
<text dominant-baseline="central" text-anchor="start" style="font: 20.69186928104575px Arial" xml:space="preserve" y="12.41512156862745" transform="translate(162.3876 52.6808)" fill="#334155">Group B</text>
<path d="M262.8 55.7l14 0l0 7l-14 0Z" fill="none" pointer-events="visible" stroke="#12A5C8" stroke-width="1.8" class="zr62-cls-737"></path>
<path d="M0 0l78.4 0l0 24.8l-78.4 0Z" transform="translate(283.7752 52.6808)" fill="none" pointer-events="visible" class="zr62-cls-737"></path>
<text dominant-baseline="central" text-anchor="start" style="font: 20.69186928104575px Arial" xml:space="preserve" y="12.41512156862745" transform="translate(283.7752 52.6808)" fill="#334155">Group C</text>
<path d="M0 0l214.8 0l0 17l-214.8 0Z" transform="translate(272.6042 474.0428)" fill="none" pointer-events="visible" class="zr62-cls-737"></path>
<text dominant-baseline="central" text-anchor="start" style="font: 14.131032679738563px Arial" xml:space="preserve" y="8.478619607843138" transform="translate(272.6042 474.0428)" fill="#64748b">透视投影 · 方位 35° / 仰角 25°</text>
<path d="M0 0l41.6 0l0 21.8l-41.6 0Z" transform="translate(179.6643 341.3838)" fill="none" pointer-events="visible" class="zr62-cls-737"></path>
<text dominant-baseline="central" text-anchor="start" style="font: 18.168470588235294px Arial" y="10.901082352941176" transform="translate(179.6643 341.3838)" fill="#475569">-2.21</text>
<path d="M0 0l45.8 0l0 21.8l-45.8 0Z" transform="translate(259.734 377.4364)" fill="none" pointer-events="visible" class="zr62-cls-737"></path>
<text dominant-baseline="central" text-anchor="start" style="font: 18.168470588235294px Arial" y="10.901082352941176" transform="translate(259.734 377.4364)" fill="#475569">0.296</text>
<path d="M0 0l25.4 0l0 21.8l-25.4 0Z" transform="translate(365.9332 419.5735)" fill="none" pointer-events="visible" class="zr62-cls-737"></path>
<text dominant-baseline="central" text-anchor="start" style="font: 18.168470588235294px Arial" y="10.901082352941176" transform="translate(365.9332 419.5735)" fill="#475569">2.8</text>
<path d="M0 0l13.9 0l0 24.8l-13.9 0Z" transform="translate(260.755 429.0611)" fill="none" pointer-events="visible" class="zr62-cls-737"></path>
<text dominant-baseline="central" text-anchor="start" style="font: 20.69186928104575px Arial" y="12.41512156862745" transform="translate(260.755 429.0611)" fill="#172033">X</text>
<path d="M0 0l51.8 0l0 21.8l-51.8 0Z" transform="translate(509.3763 310.451)" fill="none" pointer-events="visible" class="zr62-cls-737"></path>
<text dominant-baseline="central" text-anchor="start" style="font: 18.168470588235294px Arial" y="10.901082352941176" transform="translate(509.3763 310.451)" fill="#475569">-0.808</text>
<path d="M0 0l45.8 0l0 21.8l-45.8 0Z" transform="translate(460.8766 357.3781)" fill="none" pointer-events="visible" class="zr62-cls-737"></path>
<text dominant-baseline="central" text-anchor="start" style="font: 18.168470588235294px Arial" y="10.901082352941176" transform="translate(460.8766 357.3781)" fill="#475569">0.287</text>
<path d="M0 0l35.6 0l0 21.8l-35.6 0Z" transform="translate(400.6873 415.6158)" fill="none" pointer-events="visible" class="zr62-cls-737"></path>
<text dominant-baseline="central" text-anchor="start" style="font: 18.168470588235294px Arial" y="10.901082352941176" transform="translate(400.6873 415.6158)" fill="#475569">1.38</text>
<path d="M0 0l13.9 0l0 24.8l-13.9 0Z" transform="translate(494.9202 410.1609)" fill="none" pointer-events="visible" class="zr62-cls-737"></path>
<text dominant-baseline="central" text-anchor="start" style="font: 20.69186928104575px Arial" y="12.41512156862745" transform="translate(494.9202 410.1609)" fill="#172033">Y</text>
<path d="M0 0l45.8 0l0 21.8l-45.8 0Z" transform="translate(117.4436 327.3653)" fill="none" pointer-events="visible" class="zr62-cls-737"></path>
<text dominant-baseline="central" text-anchor="start" style="font: 18.168470588235294px Arial" y="10.901082352941176" transform="translate(117.4436 327.3653)" fill="#475569">0.443</text>
<path d="M0 0l35.6 0l0 21.8l-35.6 0Z" transform="translate(143.7237 229.4693)" fill="none" pointer-events="visible" class="zr62-cls-737"></path>
<text dominant-baseline="central" text-anchor="start" style="font: 18.168470588235294px Arial" y="10.901082352941176" transform="translate(143.7237 229.4693)" fill="#475569">1.81</text>
<path d="M0 0l35.6 0l0 21.8l-35.6 0Z" transform="translate(133.286 121.3209)" fill="none" pointer-events="visible" class="zr62-cls-737"></path>
<text dominant-baseline="central" text-anchor="start" style="font: 18.168470588235294px Arial" y="10.901082352941176" transform="translate(133.286 121.3209)" fill="#475569">3.17</text>
<path d="M0 0l12.6 0l0 24.8l-12.6 0Z" transform="translate(90.2984 229.7845)" fill="none" pointer-events="visible" class="zr62-cls-737"></path>
<text dominant-baseline="central" text-anchor="start" style="font: 20.69186928104575px Arial" y="12.41512156862745" transform="translate(90.2984 229.7845)" fill="#172033">Z</text>
<path d="M661 115.6l12 0l0 200l-12 0Z" fill="url(#zr62-g0)" stroke="#94a3b8" stroke-width="0.6" class="zr62-cls-737"></path>
<path d="M0 0l39.8 0l0 20l-39.8 0Z" transform="translate(656.9705 91.9502)" fill="none" pointer-events="visible" class="zr62-cls-737"></path>
<text dominant-baseline="central" text-anchor="start" style="font: 16.65443137254902px Arial" y="9.992658823529412" transform="translate(656.9705 91.9502)" fill="#475569">Color</text>
<path d="M0 0l23.3 0l0 20l-23.3 0Z" transform="translate(678.9705 107.2774)" fill="none" pointer-events="visible" class="zr62-cls-737"></path>
<text dominant-baseline="central" text-anchor="start" style="font: 16.65443137254902px Arial" y="9.992658823529412" transform="translate(678.9705 107.2774)" fill="#475569">1.5</text>
<path d="M0 0l42 0l0 20l-42 0Z" transform="translate(678.9705 157.2774)" fill="none" pointer-events="visible" class="zr62-cls-737"></path>
<text dominant-baseline="central" text-anchor="start" style="font: 16.65443137254902px Arial" y="9.992658823529412" transform="translate(678.9705 157.2774)" fill="#475569">1.125</text>
<path d="M0 0l32.6 0l0 20l-32.6 0Z" transform="translate(678.9705 207.2774)" fill="none" pointer-events="visible" class="zr62-cls-737"></path>
<text dominant-baseline="central" text-anchor="start" style="font: 16.65443137254902px Arial" y="9.992658823529412" transform="translate(678.9705 207.2774)" fill="#475569">0.75</text>
<path d="M0 0l42 0l0 20l-42 0Z" transform="translate(678.9705 257.2774)" fill="none" pointer-events="visible" class="zr62-cls-737"></path>
<text dominant-baseline="central" text-anchor="start" style="font: 16.65443137254902px Arial" y="9.992658823529412" transform="translate(678.9705 257.2774)" fill="#475569">0.375</text>
<path d="M0 0l9.3 0l0 20l-9.3 0Z" transform="translate(678.9705 307.2774)" fill="none" pointer-events="visible" class="zr62-cls-737"></path>
<text dominant-baseline="central" text-anchor="start" style="font: 16.65443137254902px Arial" y="9.992658823529412" transform="translate(678.9705 307.2774)" fill="#475569">0</text>
<defs >
<linearGradient gradientUnits="objectBoundingBox" x1="0" y1="0" x2="0" y2="1" id="zr62-g0">
<stop offset="0%" stop-color="rgb(253,231,37)"></stop>
<stop offset="6.25%" stop-color="rgb(212,226,41)"></stop>
<stop offset="12.5%" stop-color="rgb(171,220,50)"></stop>
<stop offset="18.75%" stop-color="rgb(131,210,75)"></stop>
<stop offset="25%" stop-color="rgb(95,200,97)"></stop>
<stop offset="31.25%" stop-color="rgb(64,187,115)"></stop>
<stop offset="37.5%" stop-color="rgb(45,174,127)"></stop>
<stop offset="43.75%" stop-color="rgb(32,160,136)"></stop>
<stop offset="50%" stop-color="rgb(35,144,140)"></stop>
<stop offset="56.25%" stop-color="rgb(39,128,142)"></stop>
<stop offset="62.5%" stop-color="rgb(45,114,142)"></stop>
<stop offset="68.75%" stop-color="rgb(51,98,141)"></stop>
<stop offset="75%" stop-color="rgb(59,81,138)"></stop>
<stop offset="81.25%" stop-color="rgb(65,63,132)"></stop>
<stop offset="87.5%" stop-color="rgb(71,44,122)"></stop>
<stop offset="93.75%" stop-color="rgb(70,23,104)"></stop>
<stop offset="100%" stop-color="rgb(68,1,84)"></stop>
</linearGradient>
</defs>
<style ><![CDATA[
.zr62-cls-701:hover {
cursor:pointer;
fill:rgba(38,154,154,1);
}
.zr62-cls-702:hover {
cursor:pointer;
fill:rgba(44,137,156,1);
}
.zr62-cls-703:hover {
cursor:pointer;
fill:rgba(50,122,156,1);
}
.zr62-cls-704:hover {
cursor:pointer;
fill:rgba(35,170,150,1);
}
.zr62-cls-705:hover {
cursor:pointer;
fill:rgba(74,1,92,1);
}
.zr62-cls-706:hover {
cursor:pointer;
fill:rgba(58,105,155,1);
}
.zr62-cls-707:hover {
cursor:pointer;
fill:rgba(77,24,114,1);
}
.zr62-cls-708:hover {
cursor:pointer;
fill:rgba(45,185,143,1);
}
.zr62-cls-709:hover {
cursor:pointer;
fill:rgba(66,86,151,1);
}
.zr62-cls-710:hover {
cursor:pointer;
fill:rgba(78,47,134,1);
}
.zr62-cls-711:hover {
cursor:pointer;
fill:rgba(55,198,135,1);
}
.zr62-cls-712:hover {
cursor:pointer;
fill:rgba(41,182,145,1);
}
.zr62-cls-713:hover {
cursor:pointer;
fill:rgba(72,67,144,1);
}
.zr62-cls-714:hover {
cursor:pointer;
fill:rgba(36,167,151,1);
}
.zr62-cls-715:hover {
cursor:pointer;
fill:rgba(83,211,118,1);
}
.zr62-cls-716:hover {
cursor:pointer;
fill:rgba(73,62,141,1);
}
.zr62-cls-717:hover {
cursor:pointer;
fill:rgba(58,201,133,1);
}
.zr62-cls-718:hover {
cursor:pointer;
fill:rgba(39,149,155,1);
}
.zr62-cls-719:hover {
cursor:pointer;
fill:rgba(67,81,150,1);
}
.zr62-cls-720:hover {
cursor:pointer;
fill:rgba(116,224,99,1);
}
.zr62-cls-721:hover {
cursor:pointer;
fill:rgba(45,134,156,1);
}
.zr62-cls-722:hover {
cursor:pointer;
fill:rgba(59,100,154,1);
}
.zr62-cls-723:hover {
cursor:pointer;
fill:rgba(148,232,80,1);
}
.zr62-cls-724:hover {
cursor:pointer;
fill:rgba(108,221,104,1);
}
.zr62-cls-725:hover {
cursor:pointer;
fill:rgba(51,118,156,1);
}
.zr62-cls-726:hover {
cursor:pointer;
fill:rgba(74,207,123,1);
}
.zr62-cls-727:hover {
cursor:pointer;
fill:rgba(191,242,52,1);
}
.zr62-cls-728:hover {
cursor:pointer;
fill:rgba(53,114,156,1);
}
.zr62-cls-729:hover {
cursor:pointer;
fill:rgba(159,235,73,1);
}
.zr62-cls-730:hover {
cursor:pointer;
fill:rgba(51,193,137,1);
}
.zr62-cls-731:hover {
cursor:pointer;
fill:rgba(47,129,156,1);
}
.zr62-cls-732:hover {
cursor:pointer;
fill:rgba(234,248,45,1);
}
.zr62-cls-733:hover {
cursor:pointer;
fill:rgba(38,179,147,1);
}
.zr62-cls-734:hover {
cursor:pointer;
fill:rgba(40,146,156,1);
}
.zr62-cls-735:hover {
cursor:pointer;
fill:rgba(37,162,152,1);
}
.zr62-cls-736:hover {
cursor:pointer;
fill:rgba(255,254,40,1);
}
.zr62-cls-737:hover {
pointer-events:none;
}

]]>

</style>
</svg>