<svg width="760" height="500" xmlns="http://www.w3.org/2000/svg" xmlns:xlink="http://www.w3.org/1999/xlink" version="1.1" baseProfile="full" viewBox="0 0 760 500"><desc>极坐标分组气泡图; independently rendered demonstration data; L1502 issue 137; independent web implementation</desc>
<rect width="760" height="500" x="0" y="0" fill="#fff"></rect>
<text dominant-baseline="central" text-anchor="start" style="font: 22.233986928104574px Arial" xml:space="preserve" y="11.116993464052287" transform="translate(629.4907 61)" fill="#4a535f">Size → 面积</text>
<circle cx="25" cy="35" r="10.5" transform="translate(629.4907 61)" fill="#ffffff00" stroke="#718493" class="zr179-cls-3090"></circle>
<text dominant-baseline="central" text-anchor="start" style="font: 22.233986928104574px Arial" x="57" y="41.116993464052285" transform="translate(629.4907 61)" fill="#4a535f">8.996</text>
<circle cx="25" cy="75" r="14.8" transform="translate(629.4907 61)" fill="#ffffff00" stroke="#718493" class="zr179-cls-3090"></circle>
<text dominant-baseline="central" text-anchor="start" style="font: 22.233986928104574px Arial" x="57" y="81.11699346405229" transform="translate(629.4907 61)" fill="#4a535f">17.99</text>
<circle cx="25" cy="115" r="21" transform="translate(629.4907 61)" fill="#ffffff00" stroke="#718493" class="zr179-cls-3090"></circle>
<text dominant-baseline="central" text-anchor="start" style="font: 22.233986928104574px Arial" x="57" y="121.11699346405229" transform="translate(629.4907 61)" fill="#4a535f">35.99</text>
<path d="M0 0l693.5 0l0 27.1l-693.5 0Z" transform="translate(33.261 466.8745)" fill="none" pointer-events="visible" class="zr179-cls-3091"></path>
<text dominant-baseline="central" text-anchor="start" style="font: 22.233986928104574px Arial" xml:space="preserve" y="13.56273202614379" transform="translate(33.261 466.8745)" fill="#505763">X 为角度（rad，2π 周期）；Y 为非负半径；按输入顺序连接真实观测</text>
<path d="M326.8 250A0 0 0 1 1 326.8 250A0 0 0 0 1 326.8 250M347.5 250A20.7 20.7 0 1 1 347.4 247.9A20.7 20.7 0 0 1 347.5 250M368.2 250A41.4 41.4 0 1 1 368 245.9A41.4 41.4 0 0 1 368.2 250M388.9 250A62.1 62.1 0 1 1 388.6 243.8A62.1 62.1 0 0 1 388.9 250M409.7 250A82.9 82.9 0 1 1 409.2 241.7A82.9 82.9 0 0 1 409.7 250M430.4 250A103.6 103.6 0 1 1 429.9 239.7A103.6 103.6 0 0 1 430.4 250M451.1 250A124.3 124.3 0 1 1 450.5 237.6A124.3 124.3 0 0 1 451.1 250M471.8 250A145 145 0 1 1 471.1 235.5A145 145 0 0 1 471.8 250" fill="none" pointer-events="visible" stroke="#e4e9ed" class="zr179-cls-3092"></path>
<text dominant-baseline="central" text-anchor="middle" style="font-size:24.233986928104574px;font-family:Arial;" x="326.8" y="84.88300653594771" fill="#54555a">0</text>
<text dominant-baseline="central" text-anchor="start" style="font-size:24.233986928104574px;font-family:Arial;" x="434.9873375215418" y="129.69566901440595" fill="#54555a">0.7854</text>
<text dominant-baseline="central" text-anchor="start" style="font-size:24.233986928104574px;font-family:Arial;" x="479.8" y="250" fill="#54555a">1.571</text>
<text dominant-baseline="central" text-anchor="start" style="font-size:24.233986928104574px;font-family:Arial;" x="434.9873375215418" y="370.30433098559405" fill="#54555a">2.356</text>
<text dominant-baseline="central" text-anchor="middle" style="font-size:24.233986928104574px;font-family:Arial;" x="326.8" y="415.1169934640523" fill="#54555a">3.142</text>
<text dominant-baseline="central" text-anchor="end" style="font-size:24.233986928104574px;font-family:Arial;" x="218.61266247845825" y="370.3043309855941" fill="#54555a">3.927</text>
<text dominant-baseline="central" text-anchor="end" style="font-size:24.233986928104574px;font-family:Arial;" x="173.8" y="250.00000000000003" fill="#54555a">4.712</text>
<text dominant-baseline="central" text-anchor="end" style="font-size:24.233986928104574px;font-family:Arial;" x="218.61266247845822" y="129.69566901440595" fill="#54555a">5.498</text>
<path d="M326.8 100L326.8 105M432.9 143.9L429.3 147.5M476.8 250L471.8 250M432.9 356.1L429.3 352.5M326.8 400L326.8 395M220.7 356.1L224.3 352.5M176.8 250L181.8 250M220.7 143.9L224.3 147.5" fill="#000" stroke="#54555a" class="zr179-cls-3093"></path>
<path d="M326.8 105L326.8 250M429.3 147.5L326.8 250M471.8 250L326.8 250M429.3 352.5L326.8 250M326.8 395L326.8 250M224.3 352.5L326.8 250M181.8 250L326.8 250M224.3 147.5L326.8 250" fill="#000" stroke="#e4e9ed" class="zr179-cls-3092"></path>
<path d="M327.5 250L327.5 105" fill="none" pointer-events="visible" stroke="#54555a" stroke-linecap="round" class="zr179-cls-3092"></path>
<text dominant-baseline="central" text-anchor="middle" style="font-size:25.233986928104574px;font-family:Arial;" y="-12.616993464052287" transform="translate(326.8 90)" fill="#54555a">半径</text>
<circle cx="326.8" cy="250" r="145" fill="none" pointer-events="visible" stroke="#54555a" class="zr179-cls-3092"></circle>
<path d="M326.8 229.5L321.8 229.5" fill="none" pointer-events="visible" stroke="#54555a" class="zr179-cls-3092"></path>
<path d="M326.8 208.5L321.8 208.5" fill="none" pointer-events="visible" stroke="#54555a" class="zr179-cls-3092"></path>
<path d="M326.8 188.5L321.8 188.5" fill="none" pointer-events="visible" stroke="#54555a" class="zr179-cls-3092"></path>
<path d="M326.8 167.5L321.8 167.5" fill="none" pointer-events="visible" stroke="#54555a" class="zr179-cls-3092"></path>
<path d="M326.8 146.5L321.8 146.5" fill="none" pointer-events="visible" stroke="#54555a" class="zr179-cls-3092"></path>
<path d="M326.8 125.5L321.8 125.5" fill="none" pointer-events="visible" stroke="#54555a" class="zr179-cls-3092"></path>
<text dominant-baseline="central" text-anchor="end" style="font-size:23.233986928104574px;font-family:Arial;" transform="translate(318.8 229.2857)" fill="#54555a">0.5</text>
<text dominant-baseline="central" text-anchor="end" style="font-size:23.233986928104574px;font-family:Arial;" transform="translate(318.8 208.5714)" fill="#54555a">1</text>
<text dominant-baseline="central" text-anchor="end" style="font-size:23.233986928104574px;font-family:Arial;" transform="translate(318.8 187.8571)" fill="#54555a">1.5</text>
<text dominant-baseline="central" text-anchor="end" style="font-size:23.233986928104574px;font-family:Arial;" transform="translate(318.8 167.1429)" fill="#54555a">2</text>
<text dominant-baseline="central" text-anchor="end" style="font-size:23.233986928104574px;font-family:Arial;" transform="translate(318.8 146.4286)" fill="#54555a">2.5</text>
<text dominant-baseline="central" text-anchor="end" style="font-size:23.233986928104574px;font-family:Arial;" transform="translate(318.8 125.7143)" fill="#54555a">3</text>
<path d="M1 0A1 1 0 1 1 1 -0.01" transform="matrix(16.42,0,0,16.42,326.8,134.0431)" fill="rgb(238,244,247)" fill-opacity="0.76" ecmeta_series_index="0" ecmeta_data_index="0" ecmeta_ssr_type="chart" class="zr179-cls-3094"></path>
<path d="M1 0A1 1 0 1 1 1 -0.01" transform="matrix(17.327,0,0,17.327,346.744,140.0998)" fill="rgb(234,242,245)" fill-opacity="0.76" ecmeta_series_index="0" ecmeta_data_index="1" ecmeta_ssr_type="chart" class="zr179-cls-3094"></path>
<path d="M1 0A1 1 0 1 1 1 -0.01" transform="matrix(18.163,0,0,18.163,362.5049,154.8648)" fill="rgb(230,239,243)" fill-opacity="0.76" ecmeta_series_index="0" ecmeta_data_index="2" ecmeta_ssr_type="chart" class="zr179-cls-3095"></path>
<path d="M1 0A1 1 0 1 1 1 -0.01" transform="matrix(18.91,0,0,18.91,372.2274,173.9675)" fill="rgb(226,237,241)" fill-opacity="0.76" ecmeta_series_index="0" ecmeta_data_index="3" ecmeta_ssr_type="chart" class="zr179-cls-3096"></path>
<path d="M1 0A1 1 0 1 1 1 -0.01" transform="matrix(19.557,0,0,19.557,376.9699,192.5761)" fill="rgb(221,235,240)" fill-opacity="0.76" ecmeta_series_index="0" ecmeta_data_index="4" ecmeta_ssr_type="chart" class="zr179-cls-3097"></path>
<path d="M1 0A1 1 0 1 1 1 -0.01" transform="matrix(20.093,0,0,20.093,380.0835,207.508)" fill="rgb(217,233,238)" fill-opacity="0.76" ecmeta_series_index="0" ecmeta_data_index="5" ecmeta_ssr_type="chart" class="zr179-cls-3098"></path>
<path d="M1 0A1 1 0 1 1 1 -0.01" transform="matrix(20.511,0,0,20.511,385.4121,218.4597)" fill="rgb(213,230,236)" fill-opacity="0.76" ecmeta_series_index="0" ecmeta_data_index="6" ecmeta_ssr_type="chart" class="zr179-cls-3099"></path>
<path d="M1 0A1 1 0 1 1 1 -0.01" transform="matrix(20.803,0,0,20.803,395.2064,227.7737)" fill="rgb(209,228,234)" fill-opacity="0.76" ecmeta_series_index="0" ecmeta_data_index="7" ecmeta_ssr_type="chart" class="zr179-cls-3100"></path>
<path d="M1 0A1 1 0 1 1 1 -0.01" transform="matrix(20.967,0,0,20.967,408.7854,238.8946)" fill="rgb(205,226,232)" fill-opacity="0.76" ecmeta_series_index="0" ecmeta_data_index="8" ecmeta_ssr_type="chart" class="zr179-cls-3101"></path>
<path d="M1 0A1 1 0 1 1 1 -0.01" transform="matrix(21,0,0,21,422.6255,254.3039)" fill="rgb(201,224,230)" fill-opacity="0.76" ecmeta_series_index="0" ecmeta_data_index="9" ecmeta_ssr_type="chart" class="zr179-cls-3102"></path>
<path d="M1 0A1 1 0 1 1 1 -0.01" transform="matrix(20.901,0,0,20.901,431.8548,273.9785)" fill="rgb(197,221,228)" fill-opacity="0.76" ecmeta_series_index="0" ecmeta_data_index="10" ecmeta_ssr_type="chart" class="zr179-cls-3103"></path>
<path d="M1 0A1 1 0 1 1 1 -0.01" transform="matrix(20.673,0,0,20.673,432.4426,295.1544)" fill="rgb(191,218,226)" fill-opacity="0.76" ecmeta_series_index="0" ecmeta_data_index="11" ecmeta_ssr_type="chart" class="zr179-cls-3104"></path>
<path d="M1 0A1 1 0 1 1 1 -0.01" transform="matrix(20.317,0,0,20.317,423.0244,313.5165)" fill="rgb(186,215,223)" fill-opacity="0.76" ecmeta_series_index="0" ecmeta_data_index="12" ecmeta_ssr_type="chart" class="zr179-cls-3105"></path>
<path d="M1 0A1 1 0 1 1 1 -0.01" transform="matrix(19.84,0,0,19.84,405.4896,325.2343)" fill="rgb(181,212,220)" fill-opacity="0.76" ecmeta_series_index="0" ecmeta_data_index="13" ecmeta_ssr_type="chart" class="zr179-cls-3106"></path>
<path d="M1 0A1 1 0 1 1 1 -0.01" transform="matrix(19.247,0,0,19.247,384.0629,328.815)" fill="rgb(175,209,218)" fill-opacity="0.76" ecmeta_series_index="0" ecmeta_data_index="14" ecmeta_ssr_type="chart" class="zr179-cls-3107"></path>
<path d="M1 0A1 1 0 1 1 1 -0.01" transform="matrix(18.548,0,0,18.548,363.3318,325.8583)" fill="rgb(170,206,215)" fill-opacity="0.76" ecmeta_series_index="0" ecmeta_data_index="15" ecmeta_ssr_type="chart" class="zr179-cls-3108"></path>
<path d="M1 0A1 1 0 1 1 1 -0.01" transform="matrix(17.755,0,0,17.755,346.2045,320.3098)" fill="rgb(164,203,212)" fill-opacity="0.76" ecmeta_series_index="0" ecmeta_data_index="16" ecmeta_ssr_type="chart" class="zr179-cls-3109"></path>
<path d="M1 0A1 1 0 1 1 1 -0.01" transform="matrix(16.881,0,0,16.881,332.7912,316.5652)" fill="rgb(159,199,210)" fill-opacity="0.76" ecmeta_series_index="0" ecmeta_data_index="17" ecmeta_ssr_type="chart" class="zr179-cls-3110"></path>
<path d="M1 0A1 1 0 1 1 1 -0.01" transform="matrix(15.944,0,0,15.944,320.7395,317.3397)" fill="rgb(153,196,207)" fill-opacity="0.76" ecmeta_series_index="0" ecmeta_data_index="18" ecmeta_ssr_type="chart" class="zr179-cls-3111"></path>
<path d="M1 0A1 1 0 1 1 1 -0.01" transform="matrix(14.965,0,0,14.965,306.8338,322.3466)" fill="rgb(148,193,204)" fill-opacity="0.76" ecmeta_series_index="0" ecmeta_data_index="19" ecmeta_ssr_type="chart" class="zr179-cls-3112"></path>
<path d="M1 0A1 1 0 1 1 1 -0.01" transform="matrix(13.97,0,0,13.97,289.0323,328.4258)" fill="rgb(143,190,202)" fill-opacity="0.76" ecmeta_series_index="0" ecmeta_data_index="20" ecmeta_ssr_type="chart" class="zr179-cls-3113"></path>
<path d="M1 0A1 1 0 1 1 1 -0.01" transform="matrix(12.991,0,0,12.991,267.9035,331.0642)" fill="rgb(137,186,199)" fill-opacity="0.76" ecmeta_series_index="0" ecmeta_data_index="21" ecmeta_ssr_type="chart" class="zr179-cls-3114"></path>
<path d="M1 0A1 1 0 1 1 1 -0.01" transform="matrix(12.066,0,0,12.066,246.7208,326.5637)" fill="rgb(132,181,195)" fill-opacity="0.76" ecmeta_series_index="0" ecmeta_data_index="22" ecmeta_ssr_type="chart" class="zr179-cls-3115"></path>
<path d="M1 0A1 1 0 1 1 1 -0.01" transform="matrix(11.244,0,0,11.244,230.1403,313.8046)" fill="rgb(126,177,192)" fill-opacity="0.76" ecmeta_series_index="0" ecmeta_data_index="23" ecmeta_ssr_type="chart" class="zr179-cls-3116"></path>
<path d="M1 0A1 1 0 1 1 1 -0.01" transform="matrix(10.576,0,0,10.576,222.1012,294.7504)" fill="rgb(121,172,189)" fill-opacity="0.76" ecmeta_series_index="0" ecmeta_data_index="24" ecmeta_ssr_type="chart" class="zr179-cls-3117"></path>
<path d="M1 0A1 1 0 1 1 1 -0.01" transform="matrix(10.116,0,0,10.116,223.9726,273.4696)" fill="rgb(115,168,185)" fill-opacity="0.76" ecmeta_series_index="0" ecmeta_data_index="25" ecmeta_ssr_type="chart" class="zr179-cls-3118"></path>
<path d="M1 0A1 1 0 1 1 1 -0.1A1 1 0 0 1 1 0" transform="matrix(9.91,0,0,9.91,233.8679,254.1735)" fill="rgb(110,163,182)" fill-opacity="0.76" ecmeta_series_index="0" ecmeta_data_index="26" ecmeta_ssr_type="chart" class="zr179-cls-3119"></path>
<path d="M1 0A1 1 0 1 1 1 -0.1A1 1 0 0 1 1 0" transform="matrix(9.98,0,0,9.98,247.4778,239.255)" fill="rgb(105,159,178)" fill-opacity="0.76" ecmeta_series_index="0" ecmeta_data_index="27" ecmeta_ssr_type="chart" class="zr179-cls-3120"></path>
<path d="M1 0A1 1 0 1 1 1 -0.01" transform="matrix(10.317,0,0,10.317,260.0273,228.3041)" fill="rgb(99,154,175)" fill-opacity="0.76" ecmeta_series_index="0" ecmeta_data_index="28" ecmeta_ssr_type="chart" class="zr179-cls-3121"></path>
<path d="M1 0A1 1 0 1 1 1 -0.01" transform="matrix(10.887,0,0,10.887,268.4186,218.5835)" fill="rgb(94,149,172)" fill-opacity="0.76" ecmeta_series_index="0" ecmeta_data_index="29" ecmeta_ssr_type="chart" class="zr179-cls-3122"></path>
<path d="M1 0A1 1 0 1 1 1 -0.01" transform="matrix(11.639,0,0,11.639,272.5252,206.7171)" fill="rgb(88,145,168)" fill-opacity="0.76" ecmeta_series_index="0" ecmeta_data_index="30" ecmeta_ssr_type="chart" class="zr179-cls-3123"></path>
<path d="M1 0A1 1 0 1 1 1 -0.01" transform="matrix(12.519,0,0,12.519,275.0254,190.7389)" fill="rgb(84,140,165)" fill-opacity="0.76" ecmeta_series_index="0" ecmeta_data_index="31" ecmeta_ssr_type="chart" class="zr179-cls-3124"></path>
<path d="M1 0A1 1 0 1 1 1 -0.01" transform="matrix(13.476,0,0,13.476,279.8753,171.4607)" fill="rgb(80,135,161)" fill-opacity="0.76" ecmeta_series_index="0" ecmeta_data_index="32" ecmeta_ssr_type="chart" class="zr179-cls-3125"></path>
<path d="M1 0A1 1 0 1 1 1 -0.01" transform="matrix(14.468,0,0,14.468,290.1912,152.4551)" fill="rgb(77,130,158)" fill-opacity="0.76" ecmeta_series_index="0" ecmeta_data_index="33" ecmeta_ssr_type="chart" class="zr179-cls-3126"></path>
<path d="M1 0A1 1 0 1 1 1 -0.01" transform="matrix(15.459,0,0,15.459,306.5889,138.6249)" fill="rgb(73,125,154)" fill-opacity="0.76" ecmeta_series_index="0" ecmeta_data_index="34" ecmeta_ssr_type="chart" class="zr179-cls-3127"></path>
<path d="M1 0A1 1 0 1 1 1 -0.01" transform="matrix(16.42,0,0,16.42,326.8005,134.0431)" fill="rgb(69,120,150)" fill-opacity="0.76" ecmeta_series_index="0" ecmeta_data_index="35" ecmeta_ssr_type="chart" class="zr179-cls-3128"></path>
<path d="M1 0A1 1 0 1 1 1 -0.01" transform="matrix(16.42,0,0,16.42,326.8,119.5431)" fill="rgb(215,231,237)" fill-opacity="0.76" ecmeta_series_index="1" ecmeta_data_index="0" ecmeta_ssr_type="chart" class="zr179-cls-3129"></path>
<path d="M1 0A1 1 0 1 1 1 -0.01" transform="matrix(17.327,0,0,17.327,349.3331,125.8329)" fill="rgb(211,229,235)" fill-opacity="0.76" ecmeta_series_index="1" ecmeta_data_index="1" ecmeta_ssr_type="chart" class="zr179-cls-3130"></path>
<path d="M1 0A1 1 0 1 1 1 -0.01" transform="matrix(18.163,0,0,18.163,367.5999,141.2893)" fill="rgb(207,227,233)" fill-opacity="0.76" ecmeta_series_index="1" ecmeta_data_index="2" ecmeta_ssr_type="chart" class="zr179-cls-3131"></path>
<path d="M1 0A1 1 0 1 1 1 -0.01" transform="matrix(18.91,0,0,18.91,379.6645,161.52)" fill="rgb(203,225,231)" fill-opacity="0.76" ecmeta_series_index="1" ecmeta_data_index="3" ecmeta_ssr_type="chart" class="zr179-cls-3132"></path>
<path d="M1 0A1 1 0 1 1 1 -0.01" transform="matrix(19.557,0,0,19.557,386.51,181.6566)" fill="rgb(198,222,229)" fill-opacity="0.76" ecmeta_series_index="1" ecmeta_data_index="4" ecmeta_ssr_type="chart" class="zr179-cls-3133"></path>
<path d="M1 0A1 1 0 1 1 1 -0.01" transform="matrix(20.093,0,0,20.093,391.4201,198.4674)" fill="rgb(194,220,227)" fill-opacity="0.76" ecmeta_series_index="1" ecmeta_data_index="5" ecmeta_ssr_type="chart" class="zr179-cls-3134"></path>
<path d="M1 0A1 1 0 1 1 1 -0.01" transform="matrix(20.511,0,0,20.511,398.1808,211.5886)" fill="rgb(188,216,224)" fill-opacity="0.76" ecmeta_series_index="1" ecmeta_data_index="6" ecmeta_ssr_type="chart" class="zr179-cls-3135"></path>
<path d="M1 0A1 1 0 1 1 1 -0.01" transform="matrix(20.803,0,0,20.803,408.9967,223.2929)" fill="rgb(183,213,222)" fill-opacity="0.76" ecmeta_series_index="1" ecmeta_data_index="7" ecmeta_ssr_type="chart" class="zr179-cls-3136"></path>
<path d="M1 0A1 1 0 1 1 1 -0.01" transform="matrix(20.967,0,0,20.967,423.1542,236.9483)" fill="rgb(177,210,219)" fill-opacity="0.76" ecmeta_series_index="1" ecmeta_data_index="8" ecmeta_ssr_type="chart" class="zr179-cls-3137"></path>
<path d="M1 0A1 1 0 1 1 1 -0.01" transform="matrix(21,0,0,21,437.1109,254.9545)" fill="rgb(172,207,216)" fill-opacity="0.76" ecmeta_series_index="1" ecmeta_data_index="9" ecmeta_ssr_type="chart" class="zr179-cls-3138"></path>
<path d="M1 0A1 1 0 1 1 1 -0.01" transform="matrix(20.901,0,0,20.901,445.9912,277.2051)" fill="rgb(167,204,214)" fill-opacity="0.76" ecmeta_series_index="1" ecmeta_data_index="10" ecmeta_ssr_type="chart" class="zr179-cls-3139"></path>
<path d="M1 0A1 1 0 1 1 1 -0.01" transform="matrix(20.673,0,0,20.673,445.7757,300.8533)" fill="rgb(161,201,211)" fill-opacity="0.76" ecmeta_series_index="1" ecmeta_data_index="11" ecmeta_ssr_type="chart" class="zr179-cls-3140"></path>
<path d="M1 0A1 1 0 1 1 1 -0.01" transform="matrix(20.317,0,0,20.317,435.1258,321.5044)" fill="rgb(156,198,208)" fill-opacity="0.76" ecmeta_series_index="1" ecmeta_data_index="12" ecmeta_ssr_type="chart" class="zr179-cls-3141"></path>
<path d="M1 0A1 1 0 1 1 1 -0.01" transform="matrix(19.84,0,0,19.84,415.9702,335.2547)" fill="rgb(150,194,206)" fill-opacity="0.76" ecmeta_series_index="1" ecmeta_data_index="13" ecmeta_ssr_type="chart" class="zr179-cls-3142"></path>
<path d="M1 0A1 1 0 1 1 1 -0.01" transform="matrix(19.247,0,0,19.247,392.5859,340.5457)" fill="rgb(145,191,203)" fill-opacity="0.76" ecmeta_series_index="1" ecmeta_data_index="14" ecmeta_ssr_type="chart" class="zr179-cls-3143"></path>
<path d="M1 0A1 1 0 1 1 1 -0.01" transform="matrix(18.548,0,0,18.548,369.6231,338.9223)" fill="rgb(139,188,200)" fill-opacity="0.76" ecmeta_series_index="1" ecmeta_data_index="15" ecmeta_ssr_type="chart" class="zr179-cls-3144"></path>
<path d="M1 0A1 1 0 1 1 1 -0.01" transform="matrix(17.755,0,0,17.755,350.0621,334.2872)" fill="rgb(134,183,197)" fill-opacity="0.76" ecmeta_series_index="1" ecmeta_data_index="16" ecmeta_ssr_type="chart" class="zr179-cls-3145"></path>
<path d="M1 0A1 1 0 1 1 1 -0.01" transform="matrix(16.881,0,0,16.881,334.091,331.0068)" fill="rgb(129,179,193)" fill-opacity="0.76" ecmeta_series_index="1" ecmeta_data_index="17" ecmeta_ssr_type="chart" class="zr179-cls-3146"></path>
<path d="M1 0A1 1 0 1 1 1 -0.01" transform="matrix(15.944,0,0,15.944,319.4398,331.7813)" fill="rgb(123,174,190)" fill-opacity="0.76" ecmeta_series_index="1" ecmeta_data_index="18" ecmeta_ssr_type="chart" class="zr179-cls-3147"></path>
<path d="M1 0A1 1 0 1 1 1 -0.01" transform="matrix(14.965,0,0,14.965,302.9763,336.3241)" fill="rgb(118,170,187)" fill-opacity="0.76" ecmeta_series_index="1" ecmeta_data_index="19" ecmeta_ssr_type="chart" class="zr179-cls-3148"></path>
<path d="M1 0A1 1 0 1 1 1 -0.01" transform="matrix(13.97,0,0,13.97,282.741,341.4898)" fill="rgb(112,165,183)" fill-opacity="0.76" ecmeta_series_index="1" ecmeta_data_index="20" ecmeta_ssr_type="chart" class="zr179-cls-3149"></path>
<path d="M1 0A1 1 0 1 1 1 -0.01" transform="matrix(12.991,0,0,12.991,259.3807,342.795)" fill="rgb(107,160,180)" fill-opacity="0.76" ecmeta_series_index="1" ecmeta_data_index="21" ecmeta_ssr_type="chart" class="zr179-cls-3150"></path>
<path d="M1 0A1 1 0 1 1 1 -0.01" transform="matrix(12.066,0,0,12.066,236.2402,336.5841)" fill="rgb(101,156,177)" fill-opacity="0.76" ecmeta_series_index="1" ecmeta_data_index="22" ecmeta_ssr_type="chart" class="zr179-cls-3151"></path>
<path d="M1 0A1 1 0 1 1 1 -0.01" transform="matrix(11.244,0,0,11.244,218.039,321.7926)" fill="rgb(96,151,173)" fill-opacity="0.76" ecmeta_series_index="1" ecmeta_data_index="23" ecmeta_ssr_type="chart" class="zr179-cls-3152"></path>
<path d="M1 0A1 1 0 1 1 1 -0.01" transform="matrix(10.576,0,0,10.576,208.7681,300.4493)" fill="rgb(91,147,170)" fill-opacity="0.76" ecmeta_series_index="1" ecmeta_data_index="24" ecmeta_ssr_type="chart" class="zr179-cls-3153"></path>
<path d="M1 0A1 1 0 1 1 1 -0.01" transform="matrix(10.116,0,0,10.116,209.8362,276.6962)" fill="rgb(85,142,166)" fill-opacity="0.76" ecmeta_series_index="1" ecmeta_data_index="25" ecmeta_ssr_type="chart" class="zr179-cls-3154"></path>
<path d="M1 0A1 1 0 1 1 1 -0.1A1 1 0 0 1 1 0" transform="matrix(9.91,0,0,9.91,219.3825,254.824)" fill="rgb(82,137,163)" fill-opacity="0.76" ecmeta_series_index="1" ecmeta_data_index="26" ecmeta_ssr_type="chart" class="zr179-cls-3155"></path>
<path d="M1 0A1 1 0 1 1 1 -0.1A1 1 0 0 1 1 0" transform="matrix(9.98,0,0,9.98,233.1091,237.3086)" fill="rgb(78,132,159)" fill-opacity="0.76" ecmeta_series_index="1" ecmeta_data_index="27" ecmeta_ssr_type="chart" class="zr179-cls-3156"></path>
<path d="M1 0A1 1 0 1 1 1 -0.01" transform="matrix(10.317,0,0,10.317,246.237,223.8233)" fill="rgb(75,128,156)" fill-opacity="0.76" ecmeta_series_index="1" ecmeta_data_index="28" ecmeta_ssr_type="chart" class="zr179-cls-3157"></path>
<path d="M1 0A1 1 0 1 1 1 -0.01" transform="matrix(10.887,0,0,10.887,255.65,211.7123)" fill="rgb(71,123,152)" fill-opacity="0.76" ecmeta_series_index="1" ecmeta_data_index="29" ecmeta_ssr_type="chart" class="zr179-cls-3158"></path>
<path d="M1 0A1 1 0 1 1 1 -0.01" transform="matrix(11.639,0,0,11.639,261.1887,197.6764)" fill="rgb(67,118,148)" fill-opacity="0.76" ecmeta_series_index="1" ecmeta_data_index="30" ecmeta_ssr_type="chart" class="zr179-cls-3159"></path>
<path d="M1 0A1 1 0 1 1 1 -0.01" transform="matrix(12.519,0,0,12.519,265.4854,179.8193)" fill="rgb(64,113,145)" fill-opacity="0.76" ecmeta_series_index="1" ecmeta_data_index="31" ecmeta_ssr_type="chart" class="zr179-cls-3160"></path>
<path d="M1 0A1 1 0 1 1 1 -0.01" transform="matrix(13.476,0,0,13.476,272.4383,159.0132)" fill="rgb(60,108,141)" fill-opacity="0.76" ecmeta_series_index="1" ecmeta_data_index="32" ecmeta_ssr_type="chart" class="zr179-cls-3161"></path>
<path d="M1 0A1 1 0 1 1 1 -0.01" transform="matrix(14.468,0,0,14.468,285.0963,138.8797)" fill="rgb(56,103,137)" fill-opacity="0.76" ecmeta_series_index="1" ecmeta_data_index="33" ecmeta_ssr_type="chart" class="zr179-cls-3162"></path>
<path d="M1 0A1 1 0 1 1 1 -0.01" transform="matrix(15.459,0,0,15.459,303.9999,124.358)" fill="rgb(53,98,134)" fill-opacity="0.76" ecmeta_series_index="1" ecmeta_data_index="34" ecmeta_ssr_type="chart" class="zr179-cls-3163"></path>
<path d="M1 0A1 1 0 1 1 1 -0.01" transform="matrix(16.42,0,0,16.42,326.8006,119.5431)" fill="rgb(49,93,130)" fill-opacity="0.76" ecmeta_series_index="1" ecmeta_data_index="35" ecmeta_ssr_type="chart" class="zr179-cls-3164"></path>
<path d="M-49.3 -198.2l85.5 0l0 213.2l-85.5 0Z" transform="translate(718.7354 468.234)" fill="rgb(0,0,0)" fill-opacity="0" stroke="#cfd2d7" stroke-width="0" class="zr179-cls-3092"></path>
<path d="M-5 -5l252.3 0l0 34.2l-252.3 0Z" transform="translate(40 47)" fill="rgb(0,0,0)" fill-opacity="0" stroke="#b7b9be" stroke-width="0" class="zr179-cls-3092"></path>
<g clip-path="url(#zr179-c0)">
<polygon points="0 0 13 0 13 150 0 150" transform="matrix(-1,0,0,-1,718.7354,468.234)" fill="url(#zr179-g0)" class="zr179-cls-3165"></polygon>
<polygon points="0 0 13 0 13 150 0 150" transform="matrix(-1,0,0,-1,718.7354,468.234)" fill="url(#zr179-g1)" class="zr179-cls-3166"></polygon>
</g>
<text dominant-baseline="central" text-anchor="middle" style="font-size:23.233986928104574px;font-family:Arial;" x="-6.5" y="-171.61699346405229" transform="translate(718.7354 468.234)" fill="#54555a">Color</text>
<path d="M19.5 7A7 7 0 1 1 19.5 6.3A7 7 0 0 1 19.5 7" transform="translate(34.5 52.117)" fill="#3B6E9E" fill-opacity="0.76" ecmeta_series_index="0" ecmeta_data_index="0" ecmeta_ssr_type="legend" ecmeta_silent="true" class="zr179-cls-3092"></path>
<text dominant-baseline="central" text-anchor="start" style="font-size:24.233986928104574px;font-family:Arial;" xml:space="preserve" x="30" y="7" transform="translate(34.5 52.117)" fill="#54555a">Group A</text>
<path d="M5.5 -5.1l115.1 0l0 24.2l-115.1 0Z" transform="translate(34.5 52.117)" fill="none" pointer-events="visible" ecmeta_series_index="0" ecmeta_data_index="0" ecmeta_ssr_type="legend" ecmeta_silent="true" class="zr179-cls-3092"></path>
<path d="M19.5 7A7 7 0 1 1 19.5 6.3A7 7 0 0 1 19.5 7" transform="translate(161.6351 52.117)" fill="#CF7868" fill-opacity="0.76" ecmeta_series_index="1" ecmeta_data_index="1" ecmeta_ssr_type="legend" ecmeta_silent="true" class="zr179-cls-3092"></path>
<text dominant-baseline="central" text-anchor="start" style="font-size:24.233986928104574px;font-family:Arial;" xml:space="preserve" x="30" y="7" transform="translate(161.6351 52.117)" fill="#54555a">Group B</text>
<path d="M5.5 -5.1l115.1 0l0 24.2l-115.1 0Z" transform="translate(161.6351 52.117)" fill="none" pointer-events="visible" ecmeta_series_index="1" ecmeta_data_index="1" ecmeta_ssr_type="legend" ecmeta_silent="true" class="zr179-cls-3092"></path>
<path d="M-196.4 -5l392.9 0l0 38.2l-392.9 0Z" transform="translate(380 14)" fill="rgb(0,0,0)" fill-opacity="0" stroke="#3c3c41" stroke-width="0" class="zr179-cls-3092"></path>
<text dominant-baseline="central" text-anchor="middle" style="font-size:28.233986928104574px;font-family:Arial;font-weight:bold;" xml:space="preserve" y="14.116993464052287" transform="translate(380 14)" fill="#202b35">极坐标分组气泡图 · 示例数据</text>
<defs >
<clipPath id="zr179-c0">
<path d="M3 0L10 0A3 3 0 0 1 13 3L13 147A3 3 0 0 1 10 150L3 150A3 3 0 0 1 0 147L0 3A3 3 0 0 1 3 0" transform="matrix(-1,0,0,-1,718.7354,468.234)" fill="#000" class="zr179-cls-3093"></path>
</clipPath>
<linearGradient gradientUnits="objectBoundingBox" x1="0" y1="0" x2="0" y2="1" id="zr179-g0">
<stop offset="0%" stop-color="rgb(207,210,215)"></stop>
<stop offset="1%" stop-color="rgb(207,210,215)"></stop>
<stop offset="2%" stop-color="rgb(207,210,215)"></stop>
<stop offset="3%" stop-color="rgb(207,210,215)"></stop>
<stop offset="4%" stop-color="rgb(207,210,215)"></stop>
<stop offset="5%" stop-color="rgb(207,210,215)"></stop>
<stop offset="6%" stop-color="rgb(207,210,215)"></stop>
<stop offset="7.000000000000001%" stop-color="rgb(207,210,215)"></stop>
<stop offset="8%" stop-color="rgb(207,210,215)"></stop>
<stop offset="9%" stop-color="rgb(207,210,215)"></stop>
<stop offset="10%" stop-color="rgb(207,210,215)"></stop>
<stop offset="11%" stop-color="rgb(207,210,215)"></stop>
<stop offset="12%" stop-color="rgb(207,210,215)"></stop>
<stop offset="13%" stop-color="rgb(207,210,215)"></stop>
<stop offset="14.000000000000002%" stop-color="rgb(207,210,215)"></stop>
<stop offset="15%" stop-color="rgb(207,210,215)"></stop>
<stop offset="16%" stop-color="rgb(207,210,215)"></stop>
<stop offset="17%" stop-color="rgb(207,210,215)"></stop>
<stop offset="18%" stop-color="rgb(207,210,215)"></stop>
<stop offset="19%" stop-color="rgb(207,210,215)"></stop>
<stop offset="20%" stop-color="rgb(207,210,215)"></stop>
<stop offset="21%" stop-color="rgb(207,210,215)"></stop>
<stop offset="22%" stop-color="rgb(207,210,215)"></stop>
<stop offset="23%" stop-color="rgb(207,210,215)"></stop>
<stop offset="24%" stop-color="rgb(207,210,215)"></stop>
<stop offset="25%" stop-color="rgb(207,210,215)"></stop>
<stop offset="26%" stop-color="rgb(207,210,215)"></stop>
<stop offset="27%" stop-color="rgb(207,210,215)"></stop>
<stop offset="28.000000000000004%" stop-color="rgb(207,210,215)"></stop>
<stop offset="28.999999999999996%" stop-color="rgb(207,210,215)"></stop>
<stop offset="30%" stop-color="rgb(207,210,215)"></stop>
<stop offset="31%" stop-color="rgb(207,210,215)"></stop>
<stop offset="32%" stop-color="rgb(207,210,215)"></stop>
<stop offset="33%" stop-color="rgb(207,210,215)"></stop>
<stop offset="34%" stop-color="rgb(207,210,215)"></stop>
<stop offset="35%" stop-color="rgb(207,210,215)"></stop>
<stop offset="36%" stop-color="rgb(207,210,215)"></stop>
<stop offset="37%" stop-color="rgb(207,210,215)"></stop>
<stop offset="38%" stop-color="rgb(207,210,215)"></stop>
<stop offset="39%" stop-color="rgb(207,210,215)"></stop>
<stop offset="40%" stop-color="rgb(207,210,215)"></stop>
<stop offset="41%" stop-color="rgb(207,210,215)"></stop>
<stop offset="42%" stop-color="rgb(207,210,215)"></stop>
<stop offset="43%" stop-color="rgb(207,210,215)"></stop>
<stop offset="44%" stop-color="rgb(207,210,215)"></stop>
<stop offset="45%" stop-color="rgb(207,210,215)"></stop>
<stop offset="46%" stop-color="rgb(207,210,215)"></stop>
<stop offset="47%" stop-color="rgb(207,210,215)"></stop>
<stop offset="48%" stop-color="rgb(207,210,215)"></stop>
<stop offset="49%" stop-color="rgb(207,210,215)"></stop>
<stop offset="50%" stop-color="rgb(207,210,215)"></stop>
<stop offset="51%" stop-color="rgb(207,210,215)"></stop>
<stop offset="52%" stop-color="rgb(207,210,215)"></stop>
<stop offset="53%" stop-color="rgb(207,210,215)"></stop>
<stop offset="54%" stop-color="rgb(207,210,215)"></stop>
<stop offset="55.00000000000001%" stop-color="rgb(207,210,215)"></stop>
<stop offset="56.00000000000001%" stop-color="rgb(207,210,215)"></stop>
<stop offset="56.99999999999999%" stop-color="rgb(207,210,215)"></stop>
<stop offset="57.99999999999999%" stop-color="rgb(207,210,215)"></stop>
<stop offset="59%" stop-color="rgb(207,210,215)"></stop>
<stop offset="60%" stop-color="rgb(207,210,215)"></stop>
<stop offset="61%" stop-color="rgb(207,210,215)"></stop>
<stop offset="62%" stop-color="rgb(207,210,215)"></stop>
<stop offset="63%" stop-color="rgb(207,210,215)"></stop>
<stop offset="64%" stop-color="rgb(207,210,215)"></stop>
<stop offset="65%" stop-color="rgb(207,210,215)"></stop>
<stop offset="66%" stop-color="rgb(207,210,215)"></stop>
<stop offset="67%" stop-color="rgb(207,210,215)"></stop>
<stop offset="68%" stop-color="rgb(207,210,215)"></stop>
<stop offset="69%" stop-color="rgb(207,210,215)"></stop>
<stop offset="70%" stop-color="rgb(207,210,215)"></stop>
<stop offset="71%" stop-color="rgb(207,210,215)"></stop>
<stop offset="72%" stop-color="rgb(207,210,215)"></stop>
<stop offset="73%" stop-color="rgb(207,210,215)"></stop>
<stop offset="74%" stop-color="rgb(207,210,215)"></stop>
<stop offset="75%" stop-color="rgb(207,210,215)"></stop>
<stop offset="76%" stop-color="rgb(207,210,215)"></stop>
<stop offset="77%" stop-color="rgb(207,210,215)"></stop>
<stop offset="78%" stop-color="rgb(207,210,215)"></stop>
<stop offset="79%" stop-color="rgb(207,210,215)"></stop>
<stop offset="80%" stop-color="rgb(207,210,215)"></stop>
<stop offset="81%" stop-color="rgb(207,210,215)"></stop>
<stop offset="82%" stop-color="rgb(207,210,215)"></stop>
<stop offset="83%" stop-color="rgb(207,210,215)"></stop>
<stop offset="84%" stop-color="rgb(207,210,215)"></stop>
<stop offset="85%" stop-color="rgb(207,210,215)"></stop>
<stop offset="86%" stop-color="rgb(207,210,215)"></stop>
<stop offset="87%" stop-color="rgb(207,210,215)"></stop>
<stop offset="88%" stop-color="rgb(207,210,215)"></stop>
<stop offset="89%" stop-color="rgb(207,210,215)"></stop>
<stop offset="90%" stop-color="rgb(207,210,215)"></stop>
<stop offset="91%" stop-color="rgb(207,210,215)"></stop>
<stop offset="92%" stop-color="rgb(207,210,215)"></stop>
<stop offset="93%" stop-color="rgb(207,210,215)"></stop>
<stop offset="94%" stop-color="rgb(207,210,215)"></stop>
<stop offset="95%" stop-color="rgb(207,210,215)"></stop>
<stop offset="96%" stop-color="rgb(207,210,215)"></stop>
<stop offset="97%" stop-color="rgb(207,210,215)"></stop>
<stop offset="98%" stop-color="rgb(207,210,215)"></stop>
<stop offset="99%" stop-color="rgb(207,210,215)"></stop>
<stop offset="100%" stop-color="rgb(207,210,215)"></stop>
</linearGradient>
<linearGradient gradientUnits="objectBoundingBox" x1="0" y1="0" x2="0" y2="1" id="zr179-g1">
<stop offset="0%" stop-color="rgb(238,244,247)"></stop>
<stop offset="1%" stop-color="rgb(236,243,246)"></stop>
<stop offset="2%" stop-color="rgb(235,242,245)"></stop>
<stop offset="3%" stop-color="rgb(233,241,245)"></stop>
<stop offset="4%" stop-color="rgb(231,240,244)"></stop>
<stop offset="5%" stop-color="rgb(230,239,243)"></stop>
<stop offset="6%" stop-color="rgb(228,238,242)"></stop>
<stop offset="7.000000000000001%" stop-color="rgb(226,238,242)"></stop>
<stop offset="8%" stop-color="rgb(225,237,241)"></stop>
<stop offset="9%" stop-color="rgb(223,236,240)"></stop>
<stop offset="10%" stop-color="rgb(221,235,239)"></stop>
<stop offset="11%" stop-color="rgb(220,234,239)"></stop>
<stop offset="12%" stop-color="rgb(218,233,238)"></stop>
<stop offset="13%" stop-color="rgb(216,232,237)"></stop>
<stop offset="14.000000000000002%" stop-color="rgb(214,231,236)"></stop>
<stop offset="15%" stop-color="rgb(213,230,236)"></stop>
<stop offset="16%" stop-color="rgb(211,229,235)"></stop>
<stop offset="17%" stop-color="rgb(209,228,234)"></stop>
<stop offset="18%" stop-color="rgb(208,227,233)"></stop>
<stop offset="19%" stop-color="rgb(206,227,233)"></stop>
<stop offset="20%" stop-color="rgb(204,226,232)"></stop>
<stop offset="21%" stop-color="rgb(203,225,231)"></stop>
<stop offset="22%" stop-color="rgb(201,224,230)"></stop>
<stop offset="23%" stop-color="rgb(199,223,230)"></stop>
<stop offset="24%" stop-color="rgb(198,222,229)"></stop>
<stop offset="25%" stop-color="rgb(196,221,228)"></stop>
<stop offset="26%" stop-color="rgb(194,220,227)"></stop>
<stop offset="27%" stop-color="rgb(192,218,226)"></stop>
<stop offset="28.000000000000004%" stop-color="rgb(189,217,225)"></stop>
<stop offset="28.999999999999996%" stop-color="rgb(187,216,224)"></stop>
<stop offset="30%" stop-color="rgb(185,215,223)"></stop>
<stop offset="31%" stop-color="rgb(183,213,222)"></stop>
<stop offset="32%" stop-color="rgb(181,212,220)"></stop>
<stop offset="33%" stop-color="rgb(178,211,219)"></stop>
<stop offset="34%" stop-color="rgb(176,209,218)"></stop>
<stop offset="35%" stop-color="rgb(174,208,217)"></stop>
<stop offset="36%" stop-color="rgb(172,207,216)"></stop>
<stop offset="37%" stop-color="rgb(170,206,215)"></stop>
<stop offset="38%" stop-color="rgb(167,204,214)"></stop>
<stop offset="39%" stop-color="rgb(165,203,213)"></stop>
<stop offset="40%" stop-color="rgb(163,202,212)"></stop>
<stop offset="41%" stop-color="rgb(161,201,211)"></stop>
<stop offset="42%" stop-color="rgb(159,199,210)"></stop>
<stop offset="43%" stop-color="rgb(156,198,209)"></stop>
<stop offset="44%" stop-color="rgb(154,197,207)"></stop>
<stop offset="45%" stop-color="rgb(152,195,206)"></stop>
<stop offset="46%" stop-color="rgb(150,194,205)"></stop>
<stop offset="47%" stop-color="rgb(148,193,204)"></stop>
<stop offset="48%" stop-color="rgb(145,192,203)"></stop>
<stop offset="49%" stop-color="rgb(143,190,202)"></stop>
<stop offset="50%" stop-color="rgb(141,189,201)"></stop>
<stop offset="51%" stop-color="rgb(139,187,200)"></stop>
<stop offset="52%" stop-color="rgb(137,185,198)"></stop>
<stop offset="53%" stop-color="rgb(134,183,197)"></stop>
<stop offset="54%" stop-color="rgb(132,182,196)"></stop>
<stop offset="55.00000000000001%" stop-color="rgb(130,180,194)"></stop>
<stop offset="56.00000000000001%" stop-color="rgb(128,178,193)"></stop>
<stop offset="56.99999999999999%" stop-color="rgb(126,176,191)"></stop>
<stop offset="57.99999999999999%" stop-color="rgb(123,174,190)"></stop>
<stop offset="59%" stop-color="rgb(121,172,189)"></stop>
<stop offset="60%" stop-color="rgb(119,171,187)"></stop>
<stop offset="61%" stop-color="rgb(117,169,186)"></stop>
<stop offset="62%" stop-color="rgb(115,167,185)"></stop>
<stop offset="63%" stop-color="rgb(112,165,183)"></stop>
<stop offset="64%" stop-color="rgb(110,163,182)"></stop>
<stop offset="65%" stop-color="rgb(108,161,181)"></stop>
<stop offset="66%" stop-color="rgb(106,160,179)"></stop>
<stop offset="67%" stop-color="rgb(104,158,178)"></stop>
<stop offset="68%" stop-color="rgb(101,156,177)"></stop>
<stop offset="69%" stop-color="rgb(99,154,175)"></stop>
<stop offset="70%" stop-color="rgb(97,152,174)"></stop>
<stop offset="71%" stop-color="rgb(95,150,172)"></stop>
<stop offset="72%" stop-color="rgb(93,149,171)"></stop>
<stop offset="73%" stop-color="rgb(90,147,170)"></stop>
<stop offset="74%" stop-color="rgb(88,145,168)"></stop>
<stop offset="75%" stop-color="rgb(86,143,167)"></stop>
<stop offset="76%" stop-color="rgb(85,141,166)"></stop>
<stop offset="77%" stop-color="rgb(83,139,164)"></stop>
<stop offset="78%" stop-color="rgb(82,137,163)"></stop>
<stop offset="79%" stop-color="rgb(80,135,161)"></stop>
<stop offset="80%" stop-color="rgb(79,133,160)"></stop>
<stop offset="81%" stop-color="rgb(77,131,158)"></stop>
<stop offset="82%" stop-color="rgb(76,129,157)"></stop>
<stop offset="83%" stop-color="rgb(74,127,155)"></stop>
<stop offset="84%" stop-color="rgb(73,125,154)"></stop>
<stop offset="85%" stop-color="rgb(71,123,152)"></stop>
<stop offset="86%" stop-color="rgb(70,121,151)"></stop>
<stop offset="87%" stop-color="rgb(68,119,149)"></stop>
<stop offset="88%" stop-color="rgb(67,117,148)"></stop>
<stop offset="89%" stop-color="rgb(65,115,146)"></stop>
<stop offset="90%" stop-color="rgb(64,113,145)"></stop>
<stop offset="91%" stop-color="rgb(62,111,143)"></stop>
<stop offset="92%" stop-color="rgb(61,109,142)"></stop>
<stop offset="93%" stop-color="rgb(59,107,140)"></stop>
<stop offset="94%" stop-color="rgb(58,105,139)"></stop>
<stop offset="95%" stop-color="rgb(56,103,137)"></stop>
<stop offset="96%" stop-color="rgb(55,101,136)"></stop>
<stop offset="97%" stop-color="rgb(53,99,134)"></stop>
<stop offset="98%" stop-color="rgb(52,97,133)"></stop>
<stop offset="99%" stop-color="rgb(50,95,131)"></stop>
<stop offset="100%" stop-color="rgb(49,93,130)"></stop>
</linearGradient>
</defs>
<style ><![CDATA[
.zr179-cls-3090:hover {
cursor:pointer;
fill:rgba(255,255,255,0);
}
.zr179-cls-3091:hover {
cursor:pointer;
}
.zr179-cls-3092:hover {
pointer-events:none;
}
.zr179-cls-3093:hover {
cursor:pointer;
fill:rgba(0,0,0,1);
}
.zr179-cls-3094:hover {
cursor:pointer;
fill:rgba(255,255,255,1);
}
.zr179-cls-3095:hover {
cursor:pointer;
fill:rgba(253,255,255,1);
}
.zr179-cls-3096:hover {
cursor:pointer;
fill:rgba(248,255,255,1);
}
.zr179-cls-3097:hover {
cursor:pointer;
fill:rgba(243,255,255,1);
}
.zr179-cls-3098:hover {
cursor:pointer;
fill:rgba(238,255,255,1);
}
.zr179-cls-3099:hover {
cursor:pointer;
fill:rgba(234,253,255,1);
}
.zr179-cls-3100:hover {
cursor:pointer;
fill:rgba(229,250,255,1);
}
.zr179-cls-3101:hover {
cursor:pointer;
fill:rgba(225,248,255,1);
}
.zr179-cls-3102:hover {
cursor:pointer;
fill:rgba(221,246,253,1);
}
.zr179-cls-3103:hover {
cursor:pointer;
fill:rgba(216,243,250,1);
}
.zr179-cls-3104:hover {
cursor:pointer;
fill:rgba(210,239,248,1);
}
.zr179-cls-3105:hover {
cursor:pointer;
fill:rgba(204,236,245,1);
}
.zr179-cls-3106:hover {
cursor:pointer;
fill:rgba(199,233,242,1);
}
.zr179-cls-3107:hover {
cursor:pointer;
fill:rgba(192,229,239,1);
}
.zr179-cls-3108:hover {
cursor:pointer;
fill:rgba(187,226,236,1);
}
.zr179-cls-3109:hover {
cursor:pointer;
fill:rgba(180,223,233,1);
}
.zr179-cls-3110:hover {
cursor:pointer;
fill:rgba(174,218,231,1);
}
.zr179-cls-3111:hover {
cursor:pointer;
fill:rgba(168,215,227,1);
}
.zr179-cls-3112:hover {
cursor:pointer;
fill:rgba(162,212,224,1);
}
.zr179-cls-3113:hover {
cursor:pointer;
fill:rgba(157,209,222,1);
}
.zr179-cls-3114:hover {
cursor:pointer;
fill:rgba(150,204,218,1);
}
.zr179-cls-3115:hover {
cursor:pointer;
fill:rgba(145,199,214,1);
}
.zr179-cls-3116:hover {
cursor:pointer;
fill:rgba(138,194,211,1);
}
.zr179-cls-3117:hover {
cursor:pointer;
fill:rgba(133,189,207,1);
}
.zr179-cls-3118:hover {
cursor:pointer;
fill:rgba(126,184,203,1);
}
.zr179-cls-3119:hover {
cursor:pointer;
fill:rgba(121,179,200,1);
}
.zr179-cls-3120:hover {
cursor:pointer;
fill:rgba(115,174,195,1);
}
.zr179-cls-3121:hover {
cursor:pointer;
fill:rgba(108,169,192,1);
}
.zr179-cls-3122:hover {
cursor:pointer;
fill:rgba(103,163,189,1);
}
.zr179-cls-3123:hover {
cursor:pointer;
fill:rgba(96,159,184,1);
}
.zr179-cls-3124:hover {
cursor:pointer;
fill:rgba(92,154,181,1);
}
.zr179-cls-3125:hover {
cursor:pointer;
fill:rgba(88,148,177,1);
}
.zr179-cls-3126:hover {
cursor:pointer;
fill:rgba(84,143,173,1);
}
.zr179-cls-3127:hover {
cursor:pointer;
fill:rgba(80,137,169,1);
}
.zr179-cls-3128:hover {
cursor:pointer;
fill:rgba(75,132,165,1);
}
.zr179-cls-3129:hover {
cursor:pointer;
fill:rgba(236,254,255,1);
}
.zr179-cls-3130:hover {
cursor:pointer;
fill:rgba(232,251,255,1);
}
.zr179-cls-3131:hover {
cursor:pointer;
fill:rgba(227,249,255,1);
}
.zr179-cls-3132:hover {
cursor:pointer;
fill:rgba(223,247,254,1);
}
.zr179-cls-3133:hover {
cursor:pointer;
fill:rgba(217,244,251,1);
}
.zr179-cls-3134:hover {
cursor:pointer;
fill:rgba(213,242,249,1);
}
.zr179-cls-3135:hover {
cursor:pointer;
fill:rgba(206,237,246,1);
}
.zr179-cls-3136:hover {
cursor:pointer;
fill:rgba(201,234,244,1);
}
.zr179-cls-3137:hover {
cursor:pointer;
fill:rgba(194,231,240,1);
}
.zr179-cls-3138:hover {
cursor:pointer;
fill:rgba(189,227,237,1);
}
.zr179-cls-3139:hover {
cursor:pointer;
fill:rgba(183,224,235,1);
}
.zr179-cls-3140:hover {
cursor:pointer;
fill:rgba(177,221,232,1);
}
.zr179-cls-3141:hover {
cursor:pointer;
fill:rgba(171,217,228,1);
}
.zr179-cls-3142:hover {
cursor:pointer;
fill:rgba(165,213,226,1);
}
.zr179-cls-3143:hover {
cursor:pointer;
fill:rgba(159,210,223,1);
}
.zr179-cls-3144:hover {
cursor:pointer;
fill:rgba(152,206,220,1);
}
.zr179-cls-3145:hover {
cursor:pointer;
fill:rgba(147,201,216,1);
}
.zr179-cls-3146:hover {
cursor:pointer;
fill:rgba(141,196,212,1);
}
.zr179-cls-3147:hover {
cursor:pointer;
fill:rgba(135,191,209,1);
}
.zr179-cls-3148:hover {
cursor:pointer;
fill:rgba(129,187,205,1);
}
.zr179-cls-3149:hover {
cursor:pointer;
fill:rgba(123,181,201,1);
}
.zr179-cls-3150:hover {
cursor:pointer;
fill:rgba(117,176,198,1);
}
.zr179-cls-3151:hover {
cursor:pointer;
fill:rgba(111,171,194,1);
}
.zr179-cls-3152:hover {
cursor:pointer;
fill:rgba(105,166,190,1);
}
.zr179-cls-3153:hover {
cursor:pointer;
fill:rgba(100,161,187,1);
}
.zr179-cls-3154:hover {
cursor:pointer;
fill:rgba(93,156,182,1);
}
.zr179-cls-3155:hover {
cursor:pointer;
fill:rgba(90,150,179,1);
}
.zr179-cls-3156:hover {
cursor:pointer;
fill:rgba(85,145,174,1);
}
.zr179-cls-3157:hover {
cursor:pointer;
fill:rgba(82,140,171,1);
}
.zr179-cls-3158:hover {
cursor:pointer;
fill:rgba(78,135,167,1);
}
.zr179-cls-3159:hover {
cursor:pointer;
fill:rgba(73,129,162,1);
}
.zr179-cls-3160:hover {
cursor:pointer;
fill:rgba(70,124,159,1);
}
.zr179-cls-3161:hover {
cursor:pointer;
fill:rgba(66,118,155,1);
}
.zr179-cls-3162:hover {
cursor:pointer;
fill:rgba(61,113,150,1);
}
.zr179-cls-3163:hover {
cursor:pointer;
fill:rgba(58,107,147,1);
}
.zr179-cls-3164:hover {
cursor:pointer;
fill:rgba(53,102,143,1);
}
.zr179-cls-3165:hover {
cursor:pointer;
fill:[object Object];
}
.zr179-cls-3166:hover {
cursor:pointer;
fill:[object Object];
}

]]>

</style>
</svg>