<svg width="760" height="500" xmlns="http://www.w3.org/2000/svg" xmlns:xlink="http://www.w3.org/1999/xlink" version="1.1" baseProfile="full" viewBox="0 0 760 500"><desc>双向柱状图; independently rendered demonstration data; L1502 issue 95; independent web implementation</desc>
<rect width="760" height="500" x="0" y="0" fill="#fff"></rect>
<text dominant-baseline="central" text-anchor="middle" style="font-size:25.233986928104574px;font-family:Arial;" y="-12.616993464052287" transform="matrix(0,-1,1,0,73.1393,248.5)" fill="#74808b">Y</text>
<path d="M119.5 398.8L119.5 98.2" fill="none" pointer-events="visible" stroke="#74808b" stroke-linecap="round" class="zr137-cls-2382"></path>
<text dominant-baseline="central" text-anchor="middle" style="font-size:25.233986928104574px;font-family:Arial;" y="12.616993464052287" transform="translate(419.5696 438.766)" fill="#74808b">X</text>
<path d="M119.1 278.5L720 278.5" fill="none" pointer-events="visible" stroke="#74808b" stroke-linecap="round" class="zr137-cls-2382"></path>
<path d="M119.1 399.5L114.1 399.5" fill="none" pointer-events="visible" stroke="#74808b" class="zr137-cls-2382"></path>
<path d="M119.1 338.5L114.1 338.5" fill="none" pointer-events="visible" stroke="#74808b" class="zr137-cls-2382"></path>
<path d="M119.1 278.5L114.1 278.5" fill="none" pointer-events="visible" stroke="#74808b" class="zr137-cls-2382"></path>
<path d="M119.1 218.5L114.1 218.5" fill="none" pointer-events="visible" stroke="#74808b" class="zr137-cls-2382"></path>
<path d="M119.1 158.5L114.1 158.5" fill="none" pointer-events="visible" stroke="#74808b" class="zr137-cls-2382"></path>
<path d="M119.1 98.5L114.1 98.5" fill="none" pointer-events="visible" stroke="#74808b" class="zr137-cls-2382"></path>
<path d="M119.5 278.6L119.5 283.6" fill="none" pointer-events="visible" stroke="#74808b" class="zr137-cls-2382"></path>
<path d="M319.5 278.6L319.5 283.6" fill="none" pointer-events="visible" stroke="#74808b" class="zr137-cls-2382"></path>
<path d="M519.5 278.6L519.5 283.6" fill="none" pointer-events="visible" stroke="#74808b" class="zr137-cls-2382"></path>
<path d="M720.5 278.6L720.5 283.6" fill="none" pointer-events="visible" stroke="#74808b" class="zr137-cls-2382"></path>
<text dominant-baseline="central" text-anchor="end" style="font-size:24.233986928104574px;font-family:Arial;" transform="translate(111.1393 398.766)" fill="#54555a">-20</text>
<text dominant-baseline="central" text-anchor="end" style="font-size:24.233986928104574px;font-family:Arial;" transform="translate(111.1393 338.6596)" fill="#54555a">-10</text>
<text dominant-baseline="central" text-anchor="end" style="font-size:24.233986928104574px;font-family:Arial;" transform="translate(111.1393 278.5532)" fill="#54555a">0</text>
<text dominant-baseline="central" text-anchor="end" style="font-size:24.233986928104574px;font-family:Arial;" transform="translate(111.1393 218.4468)" fill="#54555a">10</text>
<text dominant-baseline="central" text-anchor="end" style="font-size:24.233986928104574px;font-family:Arial;" transform="translate(111.1393 158.3404)" fill="#54555a">20</text>
<text dominant-baseline="central" text-anchor="end" style="font-size:24.233986928104574px;font-family:Arial;" transform="translate(111.1393 98.234)" fill="#54555a">30</text>
<text dominant-baseline="central" text-anchor="middle" style="font-size:24.233986928104574px;font-family:Arial;" xml:space="preserve" y="12.116993464052287" transform="translate(169.211 406.766)" fill="#54555a">Sample 1</text>
<text dominant-baseline="central" text-anchor="middle" style="font-size:24.233986928104574px;font-family:Arial;" xml:space="preserve" y="12.116993464052287" transform="translate(369.4979 406.766)" fill="#54555a">Sample 3</text>
<text dominant-baseline="central" text-anchor="middle" style="font-size:24.233986928104574px;font-family:Arial;" xml:space="preserve" y="12.116993464052287" transform="translate(569.7848 406.766)" fill="#54555a">Sample 5</text>
<path d="M134.5 278.9l34.4 0l0 58.4l-34.4 0Z" fill="#3FA55A" stroke="rgb(45,119,65)" stroke-width="0.7" ecmeta_series_index="0" ecmeta_data_index="0" ecmeta_ssr_type="chart" class="zr137-cls-2383"></path>
<path d="M234.7 278.9l34.4 0l0 75l-34.4 0Z" fill="#3FA55A" stroke="rgb(45,119,65)" stroke-width="0.7" ecmeta_series_index="0" ecmeta_data_index="1" ecmeta_ssr_type="chart" class="zr137-cls-2383"></path>
<path d="M334.8 278.9l34.4 0l0 83.4l-34.4 0Z" fill="#3FA55A" stroke="rgb(45,119,65)" stroke-width="0.7" ecmeta_series_index="0" ecmeta_data_index="2" ecmeta_ssr_type="chart" class="zr137-cls-2383"></path>
<path d="M434.9 278.9l34.4 0l0 87.4l-34.4 0Z" fill="#3FA55A" stroke="rgb(45,119,65)" stroke-width="0.7" ecmeta_series_index="0" ecmeta_data_index="3" ecmeta_ssr_type="chart" class="zr137-cls-2383"></path>
<path d="M535.1 278.9l34.4 0l0 94.9l-34.4 0Z" fill="#3FA55A" stroke="rgb(45,119,65)" stroke-width="0.7" ecmeta_series_index="0" ecmeta_data_index="4" ecmeta_ssr_type="chart" class="zr137-cls-2383"></path>
<path d="M635.2 278.9l34.4 0l0 110.7l-34.4 0Z" fill="#3FA55A" stroke="rgb(45,119,65)" stroke-width="0.7" ecmeta_series_index="0" ecmeta_data_index="5" ecmeta_ssr_type="chart" class="zr137-cls-2383"></path>
<path d="M169.6 278.2l34.4 0l0 -76.4l-34.4 0Z" fill="#F08A3C" stroke="rgb(173,99,43)" stroke-width="0.7" ecmeta_series_index="1" ecmeta_data_index="0" ecmeta_ssr_type="chart" class="zr137-cls-2384"></path>
<path d="M269.7 278.2l34.4 0l0 -93.1l-34.4 0Z" fill="#F08A3C" stroke="rgb(173,99,43)" stroke-width="0.7" ecmeta_series_index="1" ecmeta_data_index="1" ecmeta_ssr_type="chart" class="zr137-cls-2384"></path>
<path d="M369.8 278.2l34.4 0l0 -101.4l-34.4 0Z" fill="#F08A3C" stroke="rgb(173,99,43)" stroke-width="0.7" ecmeta_series_index="1" ecmeta_data_index="2" ecmeta_ssr_type="chart" class="zr137-cls-2384"></path>
<path d="M470 278.2l34.4 0l0 -105.4l-34.4 0Z" fill="#F08A3C" stroke="rgb(173,99,43)" stroke-width="0.7" ecmeta_series_index="1" ecmeta_data_index="3" ecmeta_ssr_type="chart" class="zr137-cls-2384"></path>
<path d="M570.1 278.2l34.4 0l0 -113l-34.4 0Z" fill="#F08A3C" stroke="rgb(173,99,43)" stroke-width="0.7" ecmeta_series_index="1" ecmeta_data_index="4" ecmeta_ssr_type="chart" class="zr137-cls-2384"></path>
<path d="M670.3 278.2l34.4 0l0 -128.8l-34.4 0Z" fill="#F08A3C" stroke="rgb(173,99,43)" stroke-width="0.7" ecmeta_series_index="1" ecmeta_data_index="5" ecmeta_ssr_type="chart" class="zr137-cls-2384"></path>
<path d="M-5 -5l254.1 0l0 34.2l-254.1 0Z" transform="translate(40 47)" fill="rgb(0,0,0)" fill-opacity="0" stroke="#b7b9be" stroke-width="0" class="zr137-cls-2382"></path>
<path d="M3.5 0L21.5 0A3.5 3.5 0 0 1 25 3.5L25 10.5A3.5 3.5 0 0 1 21.5 14L3.5 14A3.5 3.5 0 0 1 0 10.5L0 3.5A3.5 3.5 0 0 1 3.5 0" transform="translate(41 52.117)" fill="#3FA55A" stroke="rgb(45,119,65)" stroke-width="2" stroke-linecap="butt" stroke-miterlimit="10" ecmeta_series_index="0" ecmeta_data_index="0" ecmeta_ssr_type="legend" ecmeta_silent="true" class="zr137-cls-2382"></path>
<text dominant-baseline="central" text-anchor="start" style="font-size:24.233986928104574px;font-family:Arial;" x="30" y="7" transform="translate(41 52.117)" fill="#54555a">SeriesA</text>
<path d="M-1 -5.1l116.1 0l0 24.2l-116.1 0Z" transform="translate(41 52.117)" fill="none" pointer-events="visible" ecmeta_series_index="0" ecmeta_data_index="0" ecmeta_ssr_type="legend" ecmeta_silent="true" class="zr137-cls-2382"></path>
<path d="M3.5 0L21.5 0A3.5 3.5 0 0 1 25 3.5L25 10.5A3.5 3.5 0 0 1 21.5 14L3.5 14A3.5 3.5 0 0 1 0 10.5L0 3.5A3.5 3.5 0 0 1 3.5 0" transform="translate(169.0613 52.117)" fill="#F08A3C" stroke="rgb(173,99,43)" stroke-width="2" stroke-linecap="butt" stroke-miterlimit="10" ecmeta_series_index="1" ecmeta_data_index="1" ecmeta_ssr_type="legend" ecmeta_silent="true" class="zr137-cls-2382"></path>
<text dominant-baseline="central" text-anchor="start" style="font-size:24.233986928104574px;font-family:Arial;" x="30" y="7" transform="translate(169.0613 52.117)" fill="#54555a">SeriesB</text>
<path d="M-1 -5.1l116.1 0l0 24.2l-116.1 0Z" transform="translate(169.0613 52.117)" fill="none" pointer-events="visible" ecmeta_series_index="1" ecmeta_data_index="1" ecmeta_ssr_type="legend" ecmeta_silent="true" class="zr137-cls-2382"></path>
<path d="M-154.1 -5l308.2 0l0 38.2l-308.2 0Z" transform="translate(380 14)" fill="rgb(0,0,0)" fill-opacity="0" stroke="#3c3c41" stroke-width="0" class="zr137-cls-2382"></path>
<text dominant-baseline="central" text-anchor="middle" style="font-size:28.233986928104574px;font-family:Arial;font-weight:bold;" xml:space="preserve" y="14.116993464052287" transform="translate(380 14)" fill="#202b35">双向柱状图 · 示例数据</text>
<style ><![CDATA[
.zr137-cls-2382:hover {
pointer-events:none;
}
.zr137-cls-2383:hover {
cursor:pointer;
fill:rgba(69,181,99,1);
}
.zr137-cls-2384:hover {
cursor:pointer;
fill:rgba(255,151,66,1);
}

]]>

</style>
</svg>